<svg width="257" height="57" viewBox="0 0 257 57" fill="none" xmlns="http://www.w3.org/2000/svg">
<path d="M0 51.2336L3 0.733643L198.5 7.23364L208.5 42.2336L0 51.2336Z" fill="white"/>
<path d="M17.656 36.7336C15.8453 36.7336 14.576 36.3883 13.848 35.6976C13.12 34.9883 12.756 33.7936 12.756 32.1136V23.1816C12.756 21.539 13.1107 20.363 13.82 19.6536C14.548 18.9256 15.8267 18.5616 17.656 18.5616C19.4667 18.5616 20.736 18.9256 21.464 19.6536C22.192 20.3816 22.556 21.6043 22.556 23.3216H19.448C19.448 22.7616 19.42 22.3603 19.364 22.1176C19.3267 21.8563 19.1867 21.6976 18.944 21.6416C18.7013 21.567 18.272 21.5296 17.656 21.5296C17.0773 21.5296 16.6573 21.5576 16.396 21.6136C16.1533 21.651 16.004 21.791 15.948 22.0336C15.9107 22.2576 15.892 22.6403 15.892 23.1816V32.7296C15.9293 33.047 16.1533 33.2803 16.564 33.4296C16.9747 33.579 17.4133 33.6536 17.88 33.6536C18.496 33.6536 18.916 33.5883 19.14 33.4576C19.3827 33.3083 19.504 32.9163 19.504 32.2816C19.504 32.1323 19.4947 31.9736 19.476 31.8056C19.476 31.619 19.4667 31.3763 19.448 31.0776H22.556C22.556 31.9736 22.5093 32.7763 22.416 33.4856C22.3413 34.195 22.1453 34.7923 21.828 35.2776C21.5107 35.7443 21.0253 36.1083 20.372 36.3696C19.7187 36.6123 18.8133 36.7336 17.656 36.7336ZM27.355 36.7336C26.0617 36.7336 25.155 36.4803 24.635 35.9736C24.1283 35.4536 23.875 34.607 23.875 33.4336V27.0536C23.875 25.867 24.1283 25.0203 24.635 24.5136C25.155 24.007 26.0617 23.7536 27.355 23.7536C28.635 23.7536 29.535 24.007 30.055 24.5136C30.5883 25.007 30.855 25.8536 30.855 27.0536V32.7936C30.855 33.4336 30.8217 34.0003 30.755 34.4936C30.6883 34.987 30.535 35.4003 30.295 35.7336C30.0683 36.067 29.7217 36.3203 29.255 36.4936C28.7883 36.6536 28.155 36.7336 27.355 36.7336ZM27.395 34.5736C27.9817 34.5736 28.3283 34.4336 28.435 34.1536C28.555 33.8603 28.615 33.407 28.615 32.7936V27.0536C28.615 26.667 28.5883 26.3936 28.535 26.2336C28.495 26.0603 28.3883 25.9603 28.215 25.9336C28.0417 25.8936 27.755 25.8736 27.355 25.8736C26.955 25.8736 26.6617 25.907 26.475 25.9736C26.3017 26.027 26.1883 26.1403 26.135 26.3136C26.095 26.4736 26.075 26.7203 26.075 27.0536L26.115 32.8936C26.115 33.347 26.1417 33.6936 26.195 33.9336C26.2483 34.1736 26.3683 34.3403 26.555 34.4336C26.7417 34.527 27.0217 34.5736 27.395 34.5736ZM31.9819 36.7336V23.7936H34.2419V36.7336H31.9819ZM35.3808 36.7336V23.7536H37.5808L40.8008 31.1136V23.7536H43.0608V36.7336H40.8208L37.6008 29.3736V36.7336H35.3808ZM47.7266 36.7336C46.9132 36.7336 46.2666 36.647 45.7866 36.4736C45.3199 36.287 44.9732 36.027 44.7466 35.6936C44.5199 35.347 44.3732 34.9203 44.3066 34.4136C44.2532 33.907 44.2266 33.3336 44.2266 32.6936H46.4466V33.0736L46.4266 33.4336V33.7536C46.4266 34.087 46.4866 34.3136 46.6066 34.4336C46.7266 34.5536 47.0466 34.6136 47.5666 34.6136H47.9066C48.2399 34.587 48.4799 34.5603 48.6266 34.5336C48.7866 34.4936 48.8866 34.4136 48.9266 34.2936C48.9666 34.1603 48.9866 33.947 48.9866 33.6536V33.4336L49.0066 33.1736V32.8936L49.0266 32.3736C49.0266 32.2803 49.0199 32.1403 49.0066 31.9536C49.0066 31.767 48.9799 31.5403 48.9266 31.2736C48.8732 31.1536 48.7199 31.0803 48.4666 31.0536C48.2266 31.0136 48.0066 30.9936 47.8066 30.9936H47.7266C46.9132 30.9936 46.2666 30.907 45.7866 30.7336C45.3199 30.5603 44.9732 30.307 44.7466 29.9736C44.5199 29.6403 44.3732 29.2336 44.3066 28.7536C44.2532 28.2603 44.2266 27.6936 44.2266 27.0536C44.2266 25.867 44.4866 25.027 45.0066 24.5336C45.5266 24.027 46.4332 23.7736 47.7266 23.7736C49.0332 23.7736 49.9399 24.0403 50.4466 24.5736C50.9666 25.0936 51.2266 25.9536 51.2266 27.1536H48.9866C48.9866 26.727 48.9666 26.427 48.9266 26.2536C48.8866 26.067 48.7732 25.9603 48.5866 25.9336C48.4132 25.8936 48.1266 25.8736 47.7266 25.8736C47.3266 25.8736 47.0332 25.8936 46.8466 25.9336C46.6732 25.9736 46.5599 26.0803 46.5066 26.2536C46.4666 26.4136 46.4466 26.6803 46.4466 27.0536V27.3736L46.4266 27.8336C46.4266 27.9003 46.4266 28.0136 46.4266 28.1736C46.4399 28.3203 46.4799 28.487 46.5466 28.6736C46.5599 28.7136 46.6666 28.7603 46.8666 28.8136C47.0799 28.8536 47.3666 28.8736 47.7266 28.8736C48.6066 28.8736 49.2866 28.9803 49.7666 29.1936C50.2466 29.3936 50.5866 29.6803 50.7866 30.0536C50.9999 30.4136 51.1266 30.847 51.1666 31.3536C51.2066 31.847 51.2266 32.3936 51.2266 32.9936V33.4336C51.2266 34.6336 50.9666 35.487 50.4466 35.9936C49.9399 36.487 49.0332 36.7336 47.7266 36.7336ZM65.031 36.7336C63.2203 36.7336 61.951 36.3883 61.223 35.6976C60.495 34.9883 60.131 33.7936 60.131 32.1136V23.1816C60.131 21.539 60.4857 20.363 61.195 19.6536C61.923 18.9256 63.2017 18.5616 65.031 18.5616C66.8417 18.5616 68.111 18.9256 68.839 19.6536C69.567 20.3816 69.931 21.6043 69.931 23.3216H66.823C66.823 22.7616 66.795 22.3603 66.739 22.1176C66.7017 21.8563 66.5617 21.6976 66.319 21.6416C66.0763 21.567 65.647 21.5296 65.031 21.5296C64.4523 21.5296 64.0323 21.5576 63.771 21.6136C63.5283 21.651 63.379 21.791 63.323 22.0336C63.2857 22.2576 63.267 22.6403 63.267 23.1816V32.7296C63.3043 33.047 63.5283 33.2803 63.939 33.4296C64.3497 33.579 64.7883 33.6536 65.255 33.6536C65.871 33.6536 66.291 33.5883 66.515 33.4576C66.7577 33.3083 66.879 32.9163 66.879 32.2816C66.879 32.1323 66.8697 31.9736 66.851 31.8056C66.851 31.619 66.8417 31.3763 66.823 31.0776H69.931C69.931 31.9736 69.8843 32.7763 69.791 33.4856C69.7163 34.195 69.5203 34.7923 69.203 35.2776C68.8857 35.7443 68.4003 36.1083 67.747 36.3696C67.0937 36.6123 66.1883 36.7336 65.031 36.7336ZM74.73 36.7336C73.4367 36.7336 72.53 36.4803 72.01 35.9736C71.5033 35.4536 71.25 34.607 71.25 33.4336V27.0536C71.25 25.867 71.5033 25.0203 72.01 24.5136C72.53 24.007 73.4367 23.7536 74.73 23.7536C76.01 23.7536 76.91 24.007 77.43 24.5136C77.9633 25.007 78.23 25.8536 78.23 27.0536V32.7936C78.23 33.4336 78.1967 34.0003 78.13 34.4936C78.0633 34.987 77.91 35.4003 77.67 35.7336C77.4433 36.067 77.0967 36.3203 76.63 36.4936C76.1633 36.6536 75.53 36.7336 74.73 36.7336ZM74.77 34.5736C75.3567 34.5736 75.7033 34.4336 75.81 34.1536C75.93 33.8603 75.99 33.407 75.99 32.7936V27.0536C75.99 26.667 75.9633 26.3936 75.91 26.2336C75.87 26.0603 75.7633 25.9603 75.59 25.9336C75.4167 25.8936 75.13 25.8736 74.73 25.8736C74.33 25.8736 74.0367 25.907 73.85 25.9736C73.6767 26.027 73.5633 26.1403 73.51 26.3136C73.47 26.4736 73.45 26.7203 73.45 27.0536L73.49 32.8936C73.49 33.347 73.5167 33.6936 73.57 33.9336C73.6233 34.1736 73.7433 34.3403 73.93 34.4336C74.1167 34.527 74.3967 34.5736 74.77 34.5736ZM79.4369 36.7336V23.7536H81.6969V34.6136H84.9369V36.7336H79.4369ZM85.7845 36.7336V23.7536H88.0445V34.6136H91.2845V36.7336H85.7845ZM92.0722 36.7336V23.7536H98.3922V25.8536H94.3122V28.8736H97.1922V30.9936H94.3122V34.6136H98.3922V36.7336H92.0722ZM103.013 36.7336C101.719 36.7336 100.813 36.487 100.293 35.9936C99.7727 35.487 99.5127 34.6336 99.5127 33.4336V27.0536C99.5127 25.8803 99.766 25.0403 100.273 24.5336C100.793 24.0136 101.706 23.7536 103.013 23.7536C104.306 23.7536 105.213 24.0136 105.733 24.5336C106.253 25.0536 106.513 25.927 106.513 27.1536H104.293C104.293 26.7536 104.273 26.467 104.233 26.2936C104.206 26.107 104.099 25.9936 103.913 25.9536C103.739 25.9003 103.439 25.8736 103.013 25.8736C102.599 25.8736 102.299 25.8936 102.113 25.9336C101.939 25.9603 101.833 26.0603 101.793 26.2336C101.766 26.3936 101.753 26.667 101.753 27.0536V33.8736C101.779 34.1003 101.939 34.267 102.233 34.3736C102.526 34.4803 102.839 34.5336 103.173 34.5336C103.613 34.5336 103.913 34.487 104.073 34.3936C104.246 34.287 104.333 34.007 104.333 33.5536C104.333 33.447 104.326 33.3336 104.313 33.2136C104.313 33.0803 104.306 32.907 104.293 32.6936H106.513C106.513 33.3336 106.479 33.907 106.413 34.4136C106.359 34.9203 106.219 35.347 105.993 35.6936C105.766 36.027 105.419 36.287 104.953 36.4736C104.486 36.647 103.839 36.7336 103.013 36.7336ZM108.918 36.7336V25.8536H106.838V23.7536H113.218V25.8536H111.138V36.7336H108.918ZM113.615 36.7336V23.7536H119.935V25.8536H115.855V28.8736H118.735V30.9936H115.855V34.6136H119.935V36.7336H113.615ZM121.076 36.7336V23.7536H124.576C125.882 23.7536 126.789 24.0203 127.296 24.5536C127.816 25.087 128.076 25.9403 128.076 27.1136V33.0936C128.076 33.9336 127.942 34.6003 127.676 35.0936C127.422 35.5736 127.062 35.9336 126.596 36.1736C126.129 36.4003 125.589 36.5536 124.976 36.6336C124.376 36.7003 123.736 36.7336 123.056 36.7336H121.076ZM123.316 34.6136C123.929 34.6136 124.422 34.587 124.796 34.5336C125.169 34.4803 125.436 34.3403 125.596 34.1136C125.769 33.887 125.856 33.5203 125.856 33.0136V27.3136C125.856 26.8203 125.776 26.4736 125.616 26.2736C125.469 26.0736 125.242 25.9536 124.936 25.9136C124.629 25.8736 124.229 25.8536 123.736 25.8536H123.316V34.6136Z" fill="#5B40D5"/>
<path d="M158.393 42.6031L251 49.2337L246 16.2337L181.859 2.60633L158.393 42.6031Z" fill="#5B40D5"/>
<path d="M225.598 35.5C224.443 37.5 221.557 37.5 220.402 35.5L214.34 25C213.185 23 214.628 20.5 216.938 20.5L229.062 20.5C231.372 20.5 232.815 23 231.66 25L225.598 35.5Z" fill="#FFD016"/>
</svg>
