<svg width="263" height="57" viewBox="0 0 263 57" fill="none" xmlns="http://www.w3.org/2000/svg">
<path d="M0 43.7266L4.5 3.22662L218 12.2266L209.5 47.2266L0 43.7266Z" fill="white"/>
<path d="M164 42.6031L256.607 49.2337L251.607 16.2337L187.465 2.60633L164 42.6031Z" fill="#5B40D5"/>
<path d="M16.784 35.2266V17.0546H21.684C23.5133 17.0546 24.7827 17.428 25.492 18.1746C26.22 18.9213 26.584 20.116 26.584 21.7586V30.1306C26.584 31.3066 26.3973 32.24 26.024 32.9306C25.6693 33.6026 25.1653 34.1066 24.512 34.4426C23.8587 34.76 23.1027 34.9746 22.244 35.0866C21.404 35.18 20.508 35.2266 19.556 35.2266H16.784ZM19.92 32.2586C20.7787 32.2586 21.4693 32.2213 21.992 32.1466C22.5147 32.072 22.888 31.876 23.112 31.5586C23.3547 31.2413 23.476 30.728 23.476 30.0186V22.0386C23.476 21.348 23.364 20.8626 23.14 20.5826C22.9347 20.3026 22.6173 20.1346 22.188 20.0786C21.7587 20.0226 21.1987 19.9946 20.508 19.9946H19.92V32.2586ZM27.935 35.2266V22.2866H30.195V35.2266H27.935ZM34.7539 35.2266C33.9406 35.2266 33.2939 35.14 32.8139 34.9666C32.3472 34.78 32.0006 34.52 31.7739 34.1866C31.5472 33.84 31.4006 33.4133 31.3339 32.9066C31.2806 32.4 31.2539 31.8266 31.2539 31.1866H33.4739V31.5666L33.4539 31.9266V32.2466C33.4539 32.58 33.5139 32.8066 33.6339 32.9266C33.7539 33.0466 34.0739 33.1066 34.5939 33.1066H34.9339C35.2672 33.08 35.5072 33.0533 35.6539 33.0266C35.8139 32.9866 35.9139 32.9066 35.9539 32.7866C35.9939 32.6533 36.0139 32.44 36.0139 32.1466V31.9266L36.0339 31.6666V31.3866L36.0539 30.8666C36.0539 30.7733 36.0472 30.6333 36.0339 30.4466C36.0339 30.26 36.0072 30.0333 35.9539 29.7666C35.9006 29.6466 35.7472 29.5733 35.4939 29.5466C35.2539 29.5066 35.0339 29.4866 34.8339 29.4866H34.7539C33.9406 29.4866 33.2939 29.4 32.8139 29.2266C32.3472 29.0533 32.0006 28.8 31.7739 28.4666C31.5472 28.1333 31.4006 27.7266 31.3339 27.2466C31.2806 26.7533 31.2539 26.1866 31.2539 25.5466C31.2539 24.36 31.5139 23.52 32.0339 23.0266C32.5539 22.52 33.4606 22.2666 34.7539 22.2666C36.0606 22.2666 36.9672 22.5333 37.4739 23.0666C37.9939 23.5866 38.2539 24.4466 38.2539 25.6466H36.0139C36.0139 25.22 35.9939 24.92 35.9539 24.7466C35.9139 24.56 35.8006 24.4533 35.6139 24.4266C35.4406 24.3866 35.1539 24.3666 34.7539 24.3666C34.3539 24.3666 34.0606 24.3866 33.8739 24.4266C33.7006 24.4666 33.5872 24.5733 33.5339 24.7466C33.4939 24.9066 33.4739 25.1733 33.4739 25.5466V25.8666L33.4539 26.3266C33.4539 26.3933 33.4539 26.5066 33.4539 26.6666C33.4672 26.8133 33.5072 26.98 33.5739 27.1666C33.5872 27.2066 33.6939 27.2533 33.8939 27.3066C34.1072 27.3466 34.3939 27.3666 34.7539 27.3666C35.6339 27.3666 36.3139 27.4733 36.7939 27.6866C37.2739 27.8866 37.6139 28.1733 37.8139 28.5466C38.0272 28.9066 38.1539 29.34 38.1939 29.8466C38.2339 30.34 38.2539 30.8866 38.2539 31.4866V31.9266C38.2539 33.1266 37.9939 33.98 37.4739 34.4866C36.9672 34.98 36.0606 35.2266 34.7539 35.2266ZM40.6208 35.2266V24.3466H38.5408V22.2466H44.9208V24.3466H42.8408V35.2266H40.6208ZM44.9783 35.2266V32.4466C44.9783 31.2066 45.0316 30.02 45.1383 28.8866C45.2583 27.74 45.5116 26.62 45.8983 25.5266C46.2983 24.4333 46.9116 23.34 47.7383 22.2466H49.1783C50.0183 23.3266 50.6383 24.4266 51.0383 25.5466C51.4383 26.6533 51.6916 27.78 51.7983 28.9266C51.9183 30.0733 51.9783 31.2466 51.9783 32.4466V35.2266H49.7383V32.6666H47.1983V35.2266H44.9783ZM47.1983 30.5666H49.7183C49.6649 29.6333 49.5383 28.7 49.3383 27.7666C49.1383 26.8333 48.8449 25.96 48.4583 25.1466C48.0583 25.9866 47.7583 26.8666 47.5583 27.7866C47.3583 28.7066 47.2383 29.6333 47.1983 30.5666ZM52.7988 35.2266V22.2466H54.9988L58.2188 29.6066V22.2466H60.4788V35.2266H58.2388L55.0188 27.8666V35.2266H52.7988ZM65.1845 35.2266C63.8912 35.2266 62.9845 34.98 62.4645 34.4866C61.9445 33.98 61.6845 33.1266 61.6845 31.9266V25.5466C61.6845 24.3733 61.9379 23.5333 62.4445 23.0266C62.9645 22.5066 63.8779 22.2466 65.1845 22.2466C66.4779 22.2466 67.3845 22.5066 67.9045 23.0266C68.4245 23.5466 68.6845 24.42 68.6845 25.6466H66.4645C66.4645 25.2466 66.4445 24.96 66.4045 24.7866C66.3779 24.6 66.2712 24.4866 66.0845 24.4466C65.9112 24.3933 65.6112 24.3666 65.1845 24.3666C64.7712 24.3666 64.4712 24.3866 64.2845 24.4266C64.1112 24.4533 64.0045 24.5533 63.9645 24.7266C63.9379 24.8866 63.9245 25.16 63.9245 25.5466V32.3666C63.9512 32.5933 64.1112 32.76 64.4045 32.8666C64.6979 32.9733 65.0112 33.0266 65.3445 33.0266C65.7845 33.0266 66.0845 32.98 66.2445 32.8866C66.4179 32.78 66.5045 32.5 66.5045 32.0466C66.5045 31.94 66.4979 31.8266 66.4845 31.7066C66.4845 31.5733 66.4779 31.4 66.4645 31.1866H68.6845C68.6845 31.8266 68.6512 32.4 68.5845 32.9066C68.5312 33.4133 68.3912 33.84 68.1645 34.1866C67.9379 34.52 67.5912 34.78 67.1245 34.9666C66.6579 35.14 66.0112 35.2266 65.1845 35.2266ZM69.8495 35.2266V22.2466H76.1695V24.3466H72.0895V27.3666H74.9695V29.4866H72.0895V33.1066H76.1695V35.2266H69.8495ZM86.8996 35.2266V19.9946H83.9876V17.0546H92.9196V19.9946H90.0076V35.2266H86.8996ZM93.2841 35.2266V22.2466H96.8041C97.7774 22.2466 98.5307 22.3933 99.0641 22.6866C99.5974 22.9666 99.9507 23.42 100.124 24.0466C100.204 24.3133 100.257 24.64 100.284 25.0266C100.311 25.4133 100.324 25.78 100.324 26.1266C100.324 26.4733 100.324 26.7266 100.324 26.8866C100.324 27.42 100.297 27.9333 100.244 28.4266C100.191 28.92 100.037 29.3533 99.7841 29.7266C99.5307 30.0866 99.1041 30.3533 98.5041 30.5266L100.344 35.2266H97.9441L96.1841 30.7466H95.5241V35.2266H93.2841ZM95.5241 28.6466C96.1374 28.6466 96.6174 28.6333 96.9641 28.6066C97.3241 28.58 97.5841 28.5133 97.7441 28.4066C97.9041 28.2866 98.0041 28.1066 98.0441 27.8666C98.0841 27.6133 98.1041 27.26 98.1041 26.8066C98.1041 26.6866 98.1041 26.4866 98.1041 26.2066C98.1041 25.9266 98.0841 25.64 98.0441 25.3466C98.0041 25.04 97.9174 24.8133 97.7841 24.6666C97.5707 24.4533 97.2441 24.3466 96.8041 24.3466H95.5241V28.6466ZM101.107 35.2266V32.4466C101.107 31.2066 101.161 30.02 101.267 28.8866C101.387 27.74 101.641 26.62 102.027 25.5266C102.427 24.4333 103.041 23.34 103.867 22.2466H105.307C106.147 23.3266 106.767 24.4266 107.167 25.5466C107.567 26.6533 107.821 27.78 107.927 28.9266C108.047 30.0733 108.107 31.2466 108.107 32.4466V35.2266H105.867V32.6666H103.327V35.2266H101.107ZM103.327 30.5666H105.847C105.794 29.6333 105.667 28.7 105.467 27.7666C105.267 26.8333 104.974 25.96 104.587 25.1466C104.187 25.9866 103.887 26.8666 103.687 27.7866C103.487 28.7066 103.367 29.6333 103.327 30.5666ZM111.388 35.2266C110.548 34.1733 109.928 33.1 109.528 32.0066C109.141 30.9133 108.888 29.7933 108.768 28.6466C108.661 27.5 108.608 26.3333 108.608 25.1466V22.2666H110.828V23.0066L110.808 23.7666V24.4866L110.788 25.2066C110.788 26.42 110.854 27.6333 110.988 28.8466C111.134 30.06 111.508 31.22 112.108 32.3266C112.668 31.1666 113.021 29.9933 113.168 28.8066C113.328 27.62 113.408 26.4066 113.408 25.1666V24.4666L113.388 23.7866V23.0266L113.368 22.2666H115.608V25.1466C115.608 26.3066 115.548 27.46 115.428 28.6066C115.321 29.7533 115.068 30.88 114.668 31.9866C114.281 33.0933 113.661 34.1733 112.808 35.2266H111.388ZM116.584 35.2266V22.2466H122.904V24.3466H118.824V27.3666H121.704V29.4866H118.824V33.1066H122.904V35.2266H116.584ZM124.124 35.2266V22.2466H126.384V33.1066H129.624V35.2266H124.124ZM130.472 35.2266V22.2466H132.732V33.1066H135.972V35.2266H130.472ZM136.76 35.2266V22.2466H143.08V24.3466H139V27.3666H141.88V29.4866H139V33.1066H143.08V35.2266H136.76ZM144.22 35.2266V22.2466H147.72C149.027 22.2466 149.933 22.5133 150.44 23.0466C150.96 23.58 151.22 24.4333 151.22 25.6066V31.5866C151.22 32.4266 151.087 33.0933 150.82 33.5866C150.567 34.0666 150.207 34.4266 149.74 34.6666C149.273 34.8933 148.733 35.0466 148.12 35.1266C147.52 35.1933 146.88 35.2266 146.2 35.2266H144.22ZM146.46 33.1066C147.073 33.1066 147.567 33.08 147.94 33.0266C148.313 32.9733 148.58 32.8333 148.74 32.6066C148.913 32.38 149 32.0133 149 31.5066V25.8066C149 25.3133 148.92 24.9666 148.76 24.7666C148.613 24.5666 148.387 24.4466 148.08 24.4066C147.773 24.3666 147.373 24.3466 146.88 24.3466H146.46V33.1066Z" fill="#5B40D5"/>
</svg>
