<svg width="164" height="205" viewBox="0 0 164 205" fill="none" xmlns="http://www.w3.org/2000/svg">
<path d="M0 10L0.0406834 7.85065L0.286187 5.00678L1.24926 2.34129L3.42021 0L4.93251 0.337764L6.57177 3.22436L7.08031 5.74335L7.05717 8.164L6.91969 10H4.93181L5.03632 8.22911L2.50554 8.12466L2.43329 10H0ZM2.56656 6.54368L5.10507 6.7363L4.85605 4.64528L4.07535 2.50068L3.03652 4.4357L2.56656 6.54368Z" fill="white"/>
<path d="M7.60429 10L8.32116 1.09468L10.1323 1.49891L11.9806 6.67051L12.5045 2.02862L14 2.36299L13.0489 10H11.6179L9.78646 5.32081L9.34386 10H7.60429Z" fill="white"/>
<path d="M0 39V13H16.7123L15.9746 17.991L5.81774 18.1296L5.46308 24.7414L12.2615 24.5311L11.767 28.6457L5.2383 28.9195L4.89363 35.3127L13.4954 34.8069L13.0075 38.1203L0 39Z" fill="white"/>
<path d="M15.3003 37.9651L19.6228 13H25.0193L28.2678 28.165L32.6336 13H37.7887L29.7914 36.9852L25.6836 37.2623L22.3718 25.1871L19.6095 37.673L15.3003 37.9651Z" fill="white"/>
<path d="M31.9992 36.835L40.5227 13H48.0954L51.3673 13.449L52.9174 14.761L53.0273 16.9561L51.9167 20.0141L46.765 30.562L44.5788 33.6801L41.983 35.3828L38.9076 36.2291L35.5092 36.598L31.9992 36.835ZM37.2292 33.4114L39.9333 33.1326L41.6383 32.4015L42.8771 30.6388L47.4211 20.4999L47.8756 18.4217L46.83 17.6972L44.4256 17.6054L43.5581 17.6171L37.2292 33.4114Z" fill="white"/>
<path d="M46.1007 35.8819L57.7645 13H62.2135L51.4672 32.5734L56.7604 32.263L54.9388 35.2843L46.1007 35.8819Z" fill="white"/>
<path d="M56.166 35.2008L69.8495 13H81.1287L78.1582 17.1497L71.1732 17.2432L67.5367 22.8184L72.3038 22.6699L69.8362 26.207L65.1973 26.4023L61.5575 31.9809L67.8031 31.6136L65.6968 34.5565L56.166 35.2008Z" fill="white"/>
<path d="M72.2655 34.1108L69.7796 33.9506L69.0686 32.9857L69.7463 31.2247L71.4813 28.6975L74.8214 28.5306L74.3868 29.0964L73.9522 29.6289L73.5942 30.0963L73.1097 31.0578L74.3036 31.2314L74.7914 31.203L75.912 31.0294L76.6097 30.6655L77.4289 29.7474L77.6836 29.4286L78.0166 29.0497L78.3463 28.6374L78.9957 27.8629L79.4736 27.2319L80.1912 26.1936L79.7833 25.8798L78.8725 25.8281L78.7526 25.8331L76.1301 25.5426L75.4425 24.3725L76.2567 22.346L78.3264 19.3498L80.7257 16.5121L83.1351 14.5607L85.7675 13.4223L88.778 13.0401L91.1474 13.434L91.88 14.5924L91.184 16.5271L89.1759 19.2964L85.7476 19.3698L86.9497 17.7556L86.8831 17.1764L85.6077 17.0846L84.1141 17.2165L83.1118 17.8174L81.9012 19.2747L81.4633 19.8472L80.8123 20.6584L80.3594 21.251L79.8898 22.104L80.2045 22.326L81.4533 22.3861L84.1258 22.8201L84.4954 24.1638L83.3615 26.1753L81.4067 28.6207L80.8756 29.2583L78.8009 31.44L76.8461 32.8756L74.7764 33.7102L72.2655 34.1108Z" fill="white"/>
<path d="M83.1717 33.373L80.9072 33.2094L80.396 32.268L81.2818 30.557L83.2533 28.1082L86.347 27.953L85.8658 28.5005L85.3862 29.0163L84.9899 29.4687L84.4022 30.4034L85.4745 30.5737L85.929 30.547L86.9847 30.3817L87.6807 30.0312L88.5698 29.1398L88.8496 28.831L89.2109 28.4621L89.5755 28.0632L90.2849 27.3137L90.816 26.7027L91.6269 25.6979L91.2956 25.3941L90.4663 25.3407L90.3548 25.3457L87.9871 25.0602L87.5258 23.9285L88.5682 21.9738L90.8976 19.0894L93.5018 16.3635L95.9844 14.494L98.5552 13.404L101.368 13.0384L103.485 13.4156L104 14.5257L103.094 16.3852L100.865 19.0476L97.7044 19.1144L99.0348 17.562L99.0548 17.0062L97.8975 16.916L96.5072 17.0412L95.5048 17.6188L94.1861 19.0209L93.7032 19.5701L92.9889 20.3513L92.4894 20.9222L91.9366 21.7435L92.1947 21.9588L93.3319 22.0189L95.7263 22.4412L95.8761 23.7399L94.5474 25.6845L92.3962 28.0548L91.815 28.6724L89.5872 30.789L87.5758 32.1828L85.5461 32.9908L83.1717 33.373Z" fill="white"/>
<path d="M25 66.9084L26.6502 61.1108L25.5394 61.1099L25.8564 60H29.2682L28.9543 61.1135L27.8381 61.1126L26.1933 66.9168L25 66.9084Z" fill="white"/>
<path d="M27.5179 66.9261L29.4712 60H30.6753L29.9136 62.7129L31.2851 62.7169L32.0441 60H33.2329L31.2991 66.9531L30.1039 66.9447L30.9653 63.8614L29.5925 63.856L28.7279 66.9349L27.5179 66.9261Z" fill="white"/>
<path d="M31.7789 66.9562L32.1947 65.4581L32.8126 63.5462L33.7241 61.7494L35.207 60H35.9899L36.5189 61.7649L36.4368 63.5812L36.016 65.4794L35.6043 66.9836L34.3767 66.9748L34.7573 65.5913L33.3705 65.5834L32.989 66.965L31.7789 66.9562ZM33.683 64.4531L35.0577 64.4593L35.2642 62.9532L35.1713 61.5485L34.2914 62.9612L33.683 64.4531Z" fill="white"/>
<path d="M36.7367 66.9916L38.336 61.1241L37.1986 61.1232L37.5061 60H41L40.6956 61.1272L39.5528 61.1259L37.9589 67L36.7367 66.9916Z" fill="white"/>
<path d="M40 80.3988L43.7373 60.0288H49.413L53.109 60.6959L54.4927 62.5447L54.5245 65.3035L54.4375 65.972L54.3148 66.6459L54.2416 67.2004L54.1271 67.818L53.1545 70.8006L51.2989 72.3612L48.617 72.8937L45.2177 72.9692L43.9691 80.44L40 80.3988ZM45.775 69.6243L48.2404 69.6051L49.551 69.4225L50.1415 68.8612L50.4119 67.711L50.8188 64.9604L50.5305 63.5796L49.3454 63.161L47.781 63.0992L46.8649 63.0978L45.775 69.6243Z" fill="white"/>
<path d="M54.49 80.5471L57.0202 60H60.7078L58.9033 76.9661L64.6204 77.0141L64.321 80.6473L54.49 80.5471Z" fill="white"/>
<path d="M64.9819 80.6541L65.3585 75.9106L66.0952 70.1033L67.7838 64.8808L71.1721 60H73.5533L76.4698 64.9316L77.6121 70.2255L77.7708 76.008L77.6425 80.7831L73.574 80.742L73.7658 76.3471L69.2559 76.31L68.9799 80.6939L64.9819 80.6541ZM69.4738 72.832L73.883 72.8594L73.4278 68.3643L72.1323 64.3125L70.3706 68.3835L69.4738 72.832Z" fill="white"/>
<path d="M82.2972 80.8298L82.3649 71.7682L79.6125 68.7376L78.5792 65.6741L78.462 62.2469L78.5185 60H82.2186L82.2117 60.7947L82.1717 61.5949L82.1662 62.2208L82.1276 62.8508L82.5125 65.8086L84.2991 68.6937L86.1877 65.788L86.5657 62.6463L86.5588 62.0465L86.5188 61.4494L86.5106 60.7069L86.4692 60H90.2327L90.2948 62.2592L90.1155 65.7057L89.0421 68.7775L86.3133 71.7916L86.4002 80.8724L82.2972 80.8298Z" fill="white"/>
<path d="M98.9849 81L95.3648 80.5045L93.3906 79.1196L92.5063 76.9057L92.2594 74.0041L96.2478 74.0316L96.2809 74.6671L96.2768 75.2724L96.3044 75.8145L96.6934 76.9743L98.4634 77.2982L99.0856 77.3037L100.395 77.1775L100.915 76.7698L100.947 75.68L100.921 75.3067L100.925 74.8688L100.892 74.398L100.865 73.5278L100.778 72.8306L100.555 71.7092L99.7078 71.3441L98.5241 71.2398L98.382 71.2384L94.9096 70.7978L93.0195 69.5625L92.1766 67.619L91.9448 64.97L92.1959 62.6531L93.134 61.1557L94.9096 60.3102L97.6895 60.0302L100.53 60.3253L102.409 61.2202L103.549 62.7822L104.095 65.1539L100.193 65.1443L99.9907 63.7594L99.3698 63.2694L97.884 63.1761L96.3761 63.2653L95.8174 63.7512L95.7787 64.9782L95.8036 65.4737L95.8063 66.1888L95.8339 66.72L96.085 67.5065L96.6575 67.7302L98.171 67.8304L101.799 68.3533L103.72 69.741L104.583 71.8629L104.934 74.5943L105 75.3369L104.874 77.9735L103.943 79.7441L102.05 80.7035L98.9849 81Z" fill="white"/>
<path d="M112.986 60.1018L111.798 60.0919L111.341 59.2279L111.635 57.6819L111.977 56.8992L112.504 56.0041L113.187 55.133L114.015 54.3994L114.988 53.8977L115.739 53.758L116.237 53.8674L116.54 54.1153L116.704 54.4046L116.783 54.602L115.703 55.6196L115.552 55.189L115.247 54.9003L114.665 54.9417L113.959 55.3473L113.387 55.9784L112.96 56.7012L112.678 57.3728L112.515 58.0075L112.514 58.5471L112.767 58.8679L113.36 58.8294L114.125 58.4238L114.746 57.7666L115.32 56.8933L116.184 57.0969L115.232 58.4493L114.181 59.4838L112.986 60.1018Z" fill="white"/>
<path d="M117.502 58.714L116.686 58.6871L116.268 58.1003L116.342 57.0926L116.782 56.0709L117.445 55.1959L118.24 54.5277L119.077 54.1099L119.744 53.9893L119.85 53.7001L120.873 53.5425L120.707 53.9478L120.51 54.5445L120.329 55.207L120.184 55.8135L120.117 56.2444L120.176 56.5537L120.453 56.5915L120.546 56.5625L120.111 57.9313L119.413 57.979L119.053 57.6616L118.29 58.3517L117.502 58.714ZM117.338 56.911L117.443 57.3941L117.959 57.4235L118.559 57.0523L119.051 56.3845L119.099 56.1496L119.229 55.6358L119.377 55.119L118.848 55.187L118.204 55.5332L117.687 56.0754L117.375 56.7469L117.352 56.8334L117.338 56.911Z" fill="white"/>
<path d="M122.385 57.2511L121.536 57.3934L120.877 57.2989L120.39 57.0722L121.2 55.8162L121.657 56.084L122.165 56.1275L122.786 55.9906L123.27 55.7623L123.481 55.4867L123.336 55.3716L122.92 55.3988L122.39 55.4488L121.679 55.4216L121.19 55.196L121.114 54.5939L121.373 53.9755L121.84 53.4429L122.444 53.0175L123.101 52.7289L124.075 52.5476L124.845 52.6493L124.116 53.775L123.696 53.6751L123.216 53.6737L122.763 53.762L122.381 53.9556L122.213 54.2087L122.348 54.3149L122.96 54.2961L123.539 54.2498L124.111 54.2619L124.526 54.489L124.625 55.0872L124.409 55.7599L123.94 56.3715L122.385 57.2511Z" fill="white"/>
<path d="M126.206 56.076L125.465 56.1313L125.051 55.8107L124.878 55.2404L124.866 54.5387L124.937 53.8247L125.056 53.0365L125.214 52.1761L126.426 51.7117L126.324 52.1441L126.184 52.8104L126.069 53.5994L126.08 54.5894L126.405 54.8146L126.837 54.5032L127.171 53.8756L127.563 51.6589L127.587 51.3582L128.157 51.1596L128.853 50.92L128.647 52.1119L128.533 53.05L128.49 53.559L128.52 54.0189L128.713 54.0954L128.874 54.0168L129.081 53.8513L128.971 55.1551L128.481 55.3502L127.91 55.3893L127.587 55.1313L127 55.6907L126.206 56.076Z" fill="white"/>
<path d="M131.139 54.5453L130.124 54.5599L129.435 54.0093L129.226 53.0254L129.463 52.011L130.016 51.129L130.793 50.4416L131.695 49.9929L132.478 49.8405L132.521 49.5555L133.73 49.348L133.649 49.7481L133.589 50.336L133.567 50.9866L133.571 51.5826L133.62 52.0049L133.785 52.3025L134.14 52.3244L134.246 52.2915L134.126 53.6481L133.276 53.7302L132.736 53.4392L132.001 54.1514L131.139 54.5453ZM130.396 52.7971L130.67 53.2615L131.314 53.2636L131.942 52.871L132.347 52.1966L132.335 51.9662L132.34 51.4608L132.366 50.9522L131.737 51.0459L131.049 51.4154L130.575 51.9681L130.392 52.6362L130.39 52.7214L130.396 52.7971Z" fill="white"/>
<path d="M135.946 53.076L135.216 53.1127L134.747 52.7656L134.473 52.147L134.333 51.3705L134.268 50.5347L134.244 49.7548L134.243 48.9085L134.265 48.1141L134.303 47.4797L135.555 47.0736L135.515 47.8075L135.502 48.6455L135.521 49.4493L135.559 50.0456L135.667 51.0205L135.797 51.5187L135.972 51.6196L136.242 51.3796L136.505 50.9378L137.303 51.953L136.77 52.5972L135.946 53.076Z" fill="white"/>
<path d="M137.518 46.3503L138.649 46.0215L138.692 46.5978L138.774 47.3719L138.871 48.2512L138.975 49.1346L139.089 49.8823L139.117 50.0566L139.149 50.2019L137.921 50.5585L137.877 50.2942L137.831 49.9623L137.684 48.7578L137.573 47.4991L137.518 46.3503ZM138.773 52.2436L138.21 52.1945L137.935 51.758L138.082 51.2016L138.589 50.8394L139.135 50.8812L139.434 51.3262L139.304 51.8832L138.773 52.2436Z" fill="white"/>
<path d="M131.648 111.132L130.531 111.391L129.418 111.369L128.383 111.139L128.381 109.984L128.953 110.244L129.669 110.367L130.401 110.356L131.061 110.202L131.692 109.811L131.743 109.373L131.445 109.151L131.053 109.079L130.707 109.056L130.329 109.066L129.727 109.087L129.092 109.119L128.607 109.129L127.435 108.915L126.588 108.252L126.275 107.63L126.268 106.933L126.667 106.264L127.577 105.713L128.817 105.396L129.91 105.382L130.824 105.546L130.792 106.875L129.569 106.658L128.465 106.856L127.863 107.204L127.695 107.508L127.74 107.701L127.987 107.888L128.563 107.959L128.997 107.953L129.594 107.922L130.251 107.908L130.857 107.918L131.577 108.023L132.301 108.295L132.864 108.846L133.057 109.364L133.02 109.975L132.604 110.592L131.648 111.132Z" fill="white"/>
<path d="M134.017 110.214L133.841 109.943L133.554 109.484L133.194 108.887L132.795 108.211L132.358 107.469L131.992 106.834L131.766 106.435L132.998 105.929L133.23 106.4L133.466 105.855L133.969 105.49L134.724 105.455L135.417 105.848L135.73 105.037L136.361 104.555L137.166 104.459L137.822 104.765L138.331 105.347L138.731 106.052L139.037 106.754L139.309 107.474L139.541 108.071L138.371 108.518L138.213 108.159L138.021 107.721L137.852 107.319L137.763 107.113L137.424 106.398L137.065 105.87L136.683 105.758L136.426 106.055L136.367 106.585L136.44 107.2L136.691 107.679L136.912 108.125L137.104 108.549L137.286 108.932L136.159 109.362L135.728 108.537L135.329 107.822L134.677 106.922L134.187 106.727L133.935 107.132L134.002 107.82L134.585 108.82L135.167 109.761L134.017 110.214Z" fill="white"/>
<path d="M141.533 107.351L140.521 107.47L139.613 107.096L139.002 106.257L138.844 105.266L139.12 104.309L139.774 103.499L140.698 102.936L141.586 102.724L141.543 102.383L142.915 102.094L142.924 102.571L143.003 103.237L143.133 103.933L143.272 104.534L143.413 104.937L143.641 105.202L143.999 105.195L144.098 105.158L144.211 106.341L143.421 106.485L142.834 106.292L142.278 106.949L141.533 107.351ZM140.216 105.938L140.67 106.33L141.349 106.272L141.89 105.868L142.133 105.214L142.058 104.995L141.922 104.496L141.803 103.968L141.117 104.106L140.455 104.539L140.116 105.133L140.155 105.789L140.183 105.869L140.216 105.938Z" fill="white"/>
<path d="M144.437 106.234L144.21 105.151L143.944 104.03L143.659 102.991L143.353 101.94L144.634 101.397L144.787 101.978L145.248 101.259L145.967 100.764L146.396 100.648L146.947 100.63L147.018 102L146.584 102L146.221 102.084L145.49 102.832L145.289 104.132L145.472 105.041L145.598 105.791L144.437 106.234Z" fill="white"/>
<path d="M149.698 104.232L149.009 104.314L148.587 103.983L148.338 103.33L148.187 102.468L148.081 101.426L147.134 101.979L146.696 100.855L148.032 100.06L148.03 99.1208L148.037 98.0171L149.458 97.5971L149.379 98.5821L149.339 99.4708L150.168 99.173L150.899 98.9559L150.834 100.3L150.272 100.478L149.697 100.685L149.346 100.829L149.39 101.809L149.442 102.358L149.548 102.909L149.725 103.018L149.993 102.834L150.271 102.491L150.501 102.079L151.15 103.015L150.457 103.779L149.698 104.232Z" fill="white"/>
<path d="M151.612 96.1766L152.935 95.7301L152.897 96.6323L152.875 97.7628L152.858 98.9421L152.847 100.029L152.862 100.878L152.867 101.068L152.879 101.223L151.713 101.642L151.691 101.361L151.671 100.998L151.609 99.5782L151.584 97.9049L151.612 96.1766ZM152.337 103.252L151.858 103.24L151.647 102.846L151.816 102.296L152.304 101.909L152.787 101.93L152.997 102.357L152.823 102.892L152.337 103.252Z" fill="white"/>
<path d="M30.3809 117.69L21 119L33.4023 84.0996L41.4629 84.0967L30.3809 117.69ZM66.3135 88.6094L58.6113 88.748L51.0947 115.303L42.4746 116.412L50.8613 88.9053L41.1182 89.0625L42.7734 84H67.5303L66.3135 88.6094ZM85.4424 84.4434L88.3906 85.6387L89.7012 87.6973L89.6416 90.8135L82.7588 91.0137L82.9873 89.1377L82.0625 88.4932L79.335 88.4189L76.417 88.5977L75.1191 89.3076L74.5 91.041L74.3311 91.7354L74.0205 92.7432L73.8398 93.4912L73.9844 94.5752L74.998 94.8369L77.8486 94.8398L84.2783 95.2266L87.0684 96.8877L87.6709 99.5752L87.1357 103.083L86.9404 104.037L85.6348 107.476L83.2861 109.955L79.5186 111.61L73.7217 112.695L66.8623 112.87L63.4365 111.388L62.5723 108.427L63.3506 104.306L71.4453 103.674L71.2334 104.553L70.958 105.396L70.7773 106.144L71.0352 107.679L74.3145 107.778L75.4902 107.667L77.9863 107.248L79.1133 106.608L79.6338 105.144L79.7422 104.65L79.9375 104.062L80.0771 103.435L80.3975 102.274L80.5371 101.35L80.6074 99.8682L79.2051 99.4834L77.0391 99.4883L76.7695 99.5049L70.2119 99.3359L66.9209 97.8076L66.041 95.0938L66.7539 91.2607L68.3271 87.8711L70.9297 85.6729L74.8662 84.4434L80.3467 84.041L85.4424 84.4434ZM110.298 87.8184L99.7266 88.0098L98.6611 93.9189L106.373 93.5781L105.713 97.6816L97.8955 98.1738L96.5488 105.649L107.72 104.582L107.064 108.853L88.9932 110.936L94.2715 84H110.883L110.298 87.8184ZM116.414 103.749L123.897 103.032L123.444 106.965L110.234 108.487L113.817 84H119.04L116.414 103.749ZM139.737 87.29L131.946 87.4307L131.447 92.4668L137.095 92.2178L136.796 95.7207L131.086 96.0811L130.355 103.431L130.263 103.414L129.884 103.382L128.79 103.396L128.321 103.459L127.081 103.775L126.541 104.003L125.631 104.554L125.476 104.709L127.771 84H140L139.737 87.29Z" fill="white"/>
<path d="M70 123.054L71.1834 121.401L72.7189 119.391L74.4629 117.578L76.7671 115.84L77.6651 115.783L77.7116 117.432L76.9885 119.283L75.7603 121.354L74.6341 123.086L73.1025 123.076L74.1607 121.502L72.4992 121.516L71.4223 123.064L70 123.054ZM73.3478 120.297L74.98 120.263L75.799 118.687L76.1957 117.3L74.6533 118.739L73.3478 120.297Z" fill="white"/>
<path d="M75.2084 123.091L79.9957 115.633L81.4638 115.539L81.2523 119.554L83.688 115.396L85.3051 115.293L80.9084 123.131L79.1802 123.118L79.5783 118.604L76.7919 123.102L75.2084 123.091Z" fill="white"/>
<path d="M81.8783 123.138L86.2023 115.235L88.8467 115.066L90.0906 115.094L90.7762 115.38L90.9704 115.952L90.7146 116.842L88.9545 120.64L87.9688 122.013L86.6692 122.772L85.1224 123.09L83.4839 123.149L81.8783 123.138ZM84.453 121.703L85.6997 121.641L86.5099 121.352L87.0897 120.615L88.8409 117.047L88.9498 116.445L88.5141 116.266L87.5938 116.282L87.2691 116.3L84.453 121.703Z" fill="white"/>
<path d="M91.6869 123.432L95.025 114.839L96.9958 114.697L95.8674 117.855L98.2787 117.741L99.3073 114.53L101.381 114.381L98.7845 123.417L96.4577 123.422L97.8139 119.191L95.3586 119.278L93.876 123.428L91.6869 123.432Z" fill="white"/>
<path d="M99.8287 123.415L100.42 121.244L101.291 118.647L102.671 116.331L105.045 114.117L106.52 114.011L108.1 116.038L108.558 118.392L108.344 121.093L107.984 123.398L105.263 123.403L105.67 121.317L102.791 121.369L102.307 123.41L99.8287 123.415ZM103.167 119.78L105.963 119.697L105.945 117.672L105.375 115.928L104.022 117.772L103.167 119.78Z" fill="white"/>
<path d="M113.45 123.386L110.922 123.164L109.683 122.504L109.284 121.448L109.383 120.075L112.101 120.003L112.07 120.308L112.015 120.6L111.989 120.86L112.161 121.417L113.385 121.549L113.83 121.542L114.785 121.459L115.196 121.249L115.304 120.71L115.314 120.527L115.353 120.311L115.365 120.08L115.414 119.657L115.405 119.32L115.331 118.783L114.754 118.631L113.924 118.614L113.824 118.618L111.456 118.505L110.286 117.986L109.896 117.122L109.975 115.933L110.34 114.889L111.082 114.185L112.328 113.728L114.226 113.469L116.168 113.462L117.433 113.777L118.142 114.445L118.376 115.533L115.575 115.689L115.536 115.057L115.139 114.858L114.116 114.88L113.078 114.986L112.659 115.23L112.533 115.789L112.51 116.014L112.453 116.341L112.428 116.584L112.534 116.938L112.908 117.022L113.949 117.016L116.48 117.137L117.778 117.739L118.267 118.746L118.335 120.089L118.331 120.46L118.047 121.793L117.212 122.707L115.72 123.214L113.45 123.386Z" fill="white"/>
<path d="M98.4567 156L95 127L99.3636 127.06L103.012 150.324L110.47 150.346L111.659 156H98.4567Z" fill="white"/>
<path d="M113.489 156L107.074 127.236L111.391 127.296L118.857 156H113.489Z" fill="white"/>
<path d="M121.645 156L113.616 127.255L117.867 127.313L120.909 136.949L122.61 134.251L123.033 130.905L122.703 127.381L126.878 127.436L127.526 131.748L127.284 136.145L125.366 140.086L130.263 144.335L134.425 149.705L138.1 156H132.925L130.076 151.061L126.76 146.583L122.922 143.326L126.925 156H121.645Z" fill="white"/>
<path d="M140.439 156L128.766 127.463L140.54 127.624L142.483 131.437L134.655 131.343L137.306 137.303L143.104 137.356L145.331 141.895L139.33 141.854L143.146 150.433L152.175 150.457L155 156H140.439Z" fill="white"/>
<path d="M29.6732 156L25.7025 155.455L23.6524 153.839L23.4036 151.022L24.6149 147.055L30.748 132.57L32.4184 129.559L34.3875 127.65L36.9749 126.627L40.4182 126.327L43.5686 126.718L45.3671 127.796L45.9983 129.708L45.4993 132.731L41.648 145.528L40.1054 149.855L37.963 153.188L34.6974 155.316L29.6732 156ZM31.928 150.042L33.7207 149.771L34.8239 148.947L36.4276 145.504L40.7878 132.678L41.176 131.043L40.7153 130.447L38.9752 130.31L37.0773 130.483L36.1134 131.141L35.4196 132.621L30.475 145.722L29.6561 148.359L30.0286 149.668L31.928 150.042Z" fill="white"/>
<path d="M49.8496 156L45.876 155.474L43.634 153.916L42.9687 151.135L43.6284 147.134L47.7057 132.714L48.9483 129.734L50.6486 127.866L53.0541 126.848L56.3978 126.548L59.5938 126.956L61.4888 128.084L62.3276 130.044L62.2295 133.074L57.4612 133.024L57.5963 131.946L57.5394 130.805L56.7888 130.486L55.5249 130.471L53.4009 130.795L52.3432 132.765L48.8274 147.156L48.6725 149.149L49.5795 149.934L51.5684 150.201L51.8058 150.203L53.9426 149.063L55.0927 145.448L55.6301 142.764L51.4888 142.737L52.6048 137.932L61.4277 138.009L60.5676 143.314L59.4886 148.517L57.7655 152.561L54.7302 155.097L49.8496 156Z" fill="white"/>
<path d="M69.6976 156L65.7269 155.479L63.3171 153.935L62.2907 151.178L62.3987 147.213L65.3558 126.708L69.726 126.771L67.6902 147.235L67.6646 147.485L67.5694 148.393L67.6632 149.262H67.6177L68.5773 149.937L70.2833 150.201L72.1287 149.896L73.1651 148.974L74.6592 126.838L78.9513 126.898L78.4622 145.71L78.1196 149.963L76.9851 153.241L74.4062 155.272L69.6976 156Z" fill="white"/>
<path d="M80.8691 156L81.0866 126.891L93.1837 127.061L93.5604 130.93L85.5066 130.832L85.6872 136.895L91.6667 136.948L92.025 141.575L85.8251 141.532L86.0867 150.297L95.447 150.321L96 156H80.8691Z" fill="white"/>
<path d="M0 156L17.0274 126L24.2026 126.101L28.4079 126.973L29.2979 128.017L29.4216 129.571L28.9026 131.499L27.9999 133.735L27.2962 135.327L25.6328 138.686L23.2529 141.659L19.4002 143.549L18.2145 156H12.0572L13.6779 144.053L12.1169 144.044L5.81181 156H0ZM14.7257 139.097L18.0439 139.032L20.03 138.595L21.2853 137.402L22.5207 135.111L23.1278 133.85L23.8472 132.087L23.9538 130.723L22.1994 130.068L19.504 130.037L14.7257 139.097Z" fill="white"/>
<path d="M29.6732 156L25.7025 155.455L23.6524 153.839L23.4036 151.022L24.6149 147.055L30.748 132.57L32.4184 129.559L34.3875 127.65L36.9749 126.627L40.4182 126.327L43.5686 126.718L45.3671 127.796L45.9983 129.708L45.4993 132.731L41.648 145.528L40.1054 149.855L37.963 153.188L34.6974 155.316L29.6732 156ZM31.928 150.042L33.7207 149.771L34.8239 148.947L36.4276 145.504L40.7878 132.678L41.176 131.043L40.7153 130.447L38.9752 130.31L37.0773 130.483L36.1134 131.141L35.4196 132.621L30.475 145.722L29.6561 148.359L30.0286 149.668L31.928 150.042Z" fill="white"/>
<path d="M49.8496 156L45.876 155.474L43.634 153.916L42.9687 151.135L43.6284 147.134L47.7057 132.714L48.9483 129.734L50.6486 127.866L53.0541 126.848L56.3978 126.548L59.5938 126.956L61.4888 128.084L62.3276 130.044L62.2295 133.074L57.4612 133.024L57.5963 131.946L57.5394 130.805L56.7888 130.486L55.5249 130.471L53.4009 130.795L52.3432 132.765L48.8274 147.156L48.6725 149.149L49.5795 149.934L51.5684 150.201L51.8058 150.203L53.9426 149.063L55.0927 145.448L55.6301 142.764L51.4888 142.737L52.6048 137.932L61.4277 138.009L60.5676 143.314L59.4886 148.517L57.7655 152.561L54.7302 155.097L49.8496 156Z" fill="white"/>
<path d="M69.6976 156L65.7269 155.479L63.3171 153.935L62.2907 151.178L62.3987 147.213L65.3558 126.708L69.726 126.771L67.6902 147.235L67.6646 147.485L67.5694 148.393L67.6632 149.262H67.6177L68.5773 149.937L70.2833 150.201L72.1287 149.896L73.1651 148.974L74.6592 126.838L78.9513 126.898L78.4622 145.71L78.1196 149.963L76.9851 153.241L74.4062 155.272L69.6976 156Z" fill="white"/>
<path d="M141.589 194.07L140.084 194.346L138.594 194.243L137.244 193.861L137.513 192.352L138.205 192.724L139.117 192.932L140.069 192.972L140.938 192.822L141.779 192.378L141.93 192.114L141.883 191.851L141.537 191.562L141.062 191.448L140.637 191.394L140.166 191.377L139.411 191.355L138.606 191.342L137.99 191.317L136.544 190.968L136.02 190.608L135.637 190.125L135.414 189.397L135.594 188.639L136.245 187.976L137.44 187.504L138.926 187.307L140.166 187.393L141.174 187.635L140.997 188.974L139.6 188.643L138.262 188.753L137.47 189.07L137.2 189.386L137.213 189.602L137.475 189.831L138.17 189.959L138.704 189.989L139.436 190.004L140.231 190.042L140.956 190.104L141.804 190.278L142.645 190.641L143.285 191.313L143.494 191.937L143.42 192.677L142.865 193.426L141.589 194.07Z" fill="white"/>
<path d="M147.116 192.237L146.277 192.3L145.605 191.944L145.039 191.274L144.533 190.424L144.039 189.441L143.057 189.911L142.166 188.852L143.53 188.221L143.234 187.424L142.912 186.526L144.381 186.286L144.612 187.062L144.863 187.792L145.707 187.591L146.453 187.455L146.884 188.578L146.303 188.703L145.708 188.855L145.348 188.965L145.761 189.856L146.034 190.373L146.381 190.907L146.642 191.02L146.896 190.852L147.092 190.534L147.199 190.157L148.375 191.072L147.865 191.801L147.116 192.237Z" fill="white"/>
<path d="M150.587 191.114L149.749 191.211L149.05 190.958L148.468 190.456L147.987 189.806L147.589 189.119L147.191 188.334L146.781 187.446L148.116 187.002L148.278 187.446L148.544 188.116L148.915 188.886L149.555 189.812L149.831 189.995L150.084 190.005L150.415 189.71L150.442 189.132L150.162 188.238L149.566 186.995L149.403 186.689L149.998 186.514L150.709 186.309L151.162 187.479L151.559 188.363L151.789 188.828L152.069 189.239L152.322 189.302L152.456 189.231L152.595 189.082L153.13 190.199L152.713 190.381L152.121 190.44L151.629 190.235L151.275 190.74L150.587 191.114Z" fill="white"/>
<path d="M154.213 191.418L153.612 190.421L152.965 189.235L152.123 187.577L151.407 186.04L152.572 185.767L152.703 186.089L153.088 185.73L153.599 185.514L154.335 185.446L155.095 185.63L155.802 186.109L156.399 186.935L156.699 187.852L156.614 188.588L156.236 189.132L155.648 189.471L155.01 189.572L154.34 189.462L154.781 190.221L155.242 190.961L154.213 191.418ZM153.971 186.608L153.496 186.919L153.334 187.497L153.713 188.278L154.294 188.509L154.979 188.462L155.329 188.28L155.503 188.008L155.504 187.648L155.333 187.196L155.01 186.791L154.629 186.607L154.256 186.57L153.971 186.608Z" fill="white"/>
<path d="M155.288 184.37L155.224 184.26L155.154 184.124L154.951 183.701L154.781 183.317L155.866 183.077L156.065 183.557L156.318 184.104L155.288 184.37ZM157.507 188.743L157.074 187.953L156.624 187.092L156.069 185.984L155.595 184.995L156.616 184.715L156.939 185.413L157.368 186.265L157.816 187.128L158.221 187.895L158.506 188.414L157.507 188.743Z" fill="white"/>
<path d="M160.235 187.906L159.628 187.983L158.97 187.814L158.341 187.373L157.805 186.619L157.502 185.689L157.595 184.957L157.967 184.442L158.512 184.161L158.864 184.1L159.195 184.092L158.8 183.22L158.428 182.346L159.376 182.191L159.821 183.248L160.334 184.382L160.879 185.494L161.37 186.451L161.816 187.258L160.956 187.628L160.844 187.417L160.595 187.706L160.235 187.906ZM158.688 186.294L159.044 186.744L159.436 186.901L159.777 186.876L160.081 186.687L160.259 186.304L160.192 186.171L159.718 185.204L159.362 185.1L159.042 185.122L158.792 185.24L158.595 185.465L158.532 185.809L158.688 186.294Z" fill="white"/>
<path d="M160.045 182.036L160.889 181.884L161.119 182.427L161.437 183.138L161.788 183.915L162.131 184.665L162.43 185.279L162.5 185.419L162.563 185.534L161.763 185.752L161.65 185.539L161.514 185.266L161.016 184.245L160.501 183.118L160.045 182.036ZM162.849 187.069L162.441 187.02L162.122 186.686L162.07 186.264L162.337 186.005L162.738 186.061L163.066 186.409L163.12 186.818L162.849 187.069Z" fill="white"/>
<path d="M19.1553 159.167L20.2764 164.348L10.7031 164.34L12.5176 171.416L19.0752 171.419L20.1514 176.139L13.7295 176.138L15.6865 183.768H24.4766L25.3916 188H12.0391L4 159.152L19.1553 159.167ZM27.4961 159.176L31.9697 183.77H38.9434L39.5781 188H27.9697L22.0811 159.17L27.4961 159.176ZM52.2646 159.198L52.6787 164.374L43.126 164.365L43.9746 171.434L50.5176 171.437L50.9492 176.151L44.541 176.149L45.4561 183.771L54.2285 183.772L54.5654 188H41.2383L37.1416 159.185L52.2646 159.198ZM60.4336 159.005L67.0469 173.826L73.1543 159.018L78.46 159.023L77.6475 188H72.9336L73.0254 172.804L68.9463 182.095H65.5264L61.1152 172.796L61.8154 188H57.0957L55.1211 159L60.4336 159.005ZM96.3408 159.243L95.8145 164.407L86.29 164.4L85.8555 171.458L92.3789 171.462L91.9561 176.169L85.5654 176.166L85.0957 183.776L93.8457 183.778L93.416 188H80.124L81.2627 159.227L96.3408 159.243ZM104.35 159.25L109.166 176.437L112.022 159.257L117.405 159.263L111.987 188H107.284L102.598 172.595L100.52 188H95.8555L99.1064 159.244L104.35 159.25ZM133.553 159.278L132.236 164.438L127.395 164.433L121.864 188H117.205L122.224 164.429L117.377 164.426L118.371 159.264L133.553 159.278ZM146.404 159.842L148.442 161.332L149 163.86L148.255 167.534L143.112 167.53L143.621 165.403L143.063 164.638L141.106 164.492L139.02 164.635L138.015 165.4L137.345 167.291L137.136 168.039L136.791 169.108L136.573 169.89L136.524 171.033L137.159 171.35L139.062 171.486L143.44 172.212L145.117 174.131L145.04 176.969L144.033 180.449L143.735 181.366L142.292 184.512L141.275 185.603L140.633 185.449L140.304 185.397L139.064 185.312L138.664 185.324L137.177 185.521L136.705 185.644L135.511 186.116L134.818 186.574L134.167 187.237L133.777 187.94L130.304 187.491L128.523 185.951L128.259 183.376L129.006 179.816L133.839 179.818L133.616 180.614L133.363 181.364L133.178 182.025L133.175 183.418L135.123 183.783H135.851L137.438 183.622L138.229 183.133L138.757 181.819L138.895 181.364L139.104 180.825L139.282 180.24L139.659 179.146L139.888 178.254L140.156 176.795L139.284 176.318L137.864 176.187H137.687L133.55 175.62L131.684 173.946L131.408 171.21L132.239 167.288L133.63 163.667L135.647 161.223L138.562 159.81L142.614 159.337L146.404 159.842Z" fill="white"/>
<path d="M32.9961 39.8242L33.6465 40.4482L33.8125 41.4512L33.5752 42.7197L33.1104 44.1758L32.7471 45.1973L31.8887 47.2988L30.6045 49.1221L28.4268 50.3037L28.5732 57H25.1982L25.1846 50.7217L24.3125 50.7539L21.9238 57H19L25.7041 39.9912L30.1934 39.5566L32.9961 39.8242ZM42.7354 50.8975L41.7754 53.4971L40.4688 55.4297L38.4375 56.5938L35.2969 57L32.8828 56.7188L31.5781 55.8896L31.2471 54.3867L31.748 52.1533L36.3594 38.9824L39.5479 38.6748L35.126 52.0635L35.0771 52.21L34.8984 52.7402L34.8496 53.2402H34.8184L35.3535 53.6133L36.4307 53.7432L37.6934 53.54L38.5225 52.9854L43.2988 38.3115L46.7012 37.9814L42.7354 50.8975ZM56.4219 57H52.2188L49.7383 45.5205L46.4688 57H42.6914L48.4521 37.7861L52.0068 37.4414L54.5693 47.8906L57.4453 36.915L61.4404 36.5264L56.4219 57ZM75.0654 57H70.0771L65.9863 44.5859L63.2812 57H58.8359L63.7109 36.3066L67.8389 35.9062L71.9219 47.1152L74.1797 35.291L78.8545 34.8379L75.0654 57ZM95.6895 36.7168L85.9873 37.5176L85.2832 42.6162L92.1826 42.1943L91.7646 46.0127L84.7705 46.3311L83.8564 52.9502L94.1387 52.7715L93.7295 57H77.9395L81.5146 34.5801L96.0322 33.1719L95.6895 36.7168ZM114.33 32.1787L116.217 32.9912L117.355 34.3711L117.822 36.1533L117.94 38.2246V39.6846L117.696 42.7139L116.286 45.3789L112.413 47.1475L115.077 51.8467L114.622 51.9316L114.072 52.1201L113.099 52.6221L112.688 52.9033L111.86 53.6367L111.613 53.8984L110.931 54.7695L110.781 54.9883L110.254 55.8838L110.144 56.0986L110.074 56.2568L105.668 47.832L103.815 47.8994L103.282 57H96.9805L98.998 32.8848L108.123 32L114.33 32.1787ZM27.5283 42.3506L25.3936 47.9307L27.3145 47.7793L28.4609 47.4561L29.1348 46.707L29.7373 45.2871L30.0293 44.4961L30.3633 43.374L30.3408 42.5176L29.1953 42.2129L27.5283 42.3506ZM104.515 35.9863L104.053 43.8574L108.067 43.5723L110.307 43.0693L111.201 41.9824L111.432 39.9561L111.463 38.8291L111.339 37.2461L110.645 36.0576L107.96 35.7012L104.515 35.9863Z" fill="white"/>
<path d="M0.874615 202.552C0.869282 202.493 0.866615 202.429 0.866615 202.36C0.866615 202.291 0.866615 202.211 0.866615 202.12C0.866615 201.891 0.871948 201.619 0.882615 201.304C0.893282 200.984 0.909282 200.645 0.930615 200.288C0.951948 199.925 0.973282 199.563 0.994615 199.2C1.01595 198.832 1.03728 198.48 1.05862 198.144C1.08528 197.808 1.10928 197.507 1.13062 197.24C1.01328 197.277 0.909282 197.312 0.818615 197.344L0.610615 196C1.21328 195.829 1.77328 195.701 2.29062 195.616C2.81328 195.531 3.28528 195.488 3.70662 195.488C4.56528 195.488 5.22128 195.651 5.67462 195.976C6.12795 196.301 6.35462 196.773 6.35462 197.392C6.35462 197.744 6.27728 198.04 6.12262 198.28C5.96795 198.515 5.74928 198.709 5.46662 198.864C6.15995 199.216 6.50662 199.789 6.50662 200.584C6.50662 200.936 6.43995 201.232 6.30662 201.472C6.17862 201.707 6.01328 201.896 5.81062 202.04C5.60795 202.184 5.39195 202.291 5.16262 202.36C4.93862 202.435 4.72528 202.483 4.52262 202.504C4.32528 202.531 4.17062 202.544 4.05862 202.544C3.78128 202.544 3.48528 202.517 3.17062 202.464C2.85595 202.411 2.54928 202.331 2.25062 202.224C2.25062 202.331 2.25062 202.432 2.25062 202.528L0.874615 202.552ZM3.73862 196.824C3.54662 196.824 3.34395 196.835 3.13062 196.856C2.92262 196.872 2.71462 196.899 2.50662 196.936C2.47462 197.325 2.44262 197.779 2.41062 198.296C2.47995 198.301 2.54928 198.304 2.61862 198.304C2.69328 198.304 2.76795 198.304 2.84262 198.304C4.25062 198.304 4.95462 198.016 4.95462 197.44C4.95462 197.248 4.84528 197.099 4.62662 196.992C4.41328 196.88 4.11728 196.824 3.73862 196.824ZM3.02662 199.568C2.91462 199.568 2.79995 199.568 2.68262 199.568C2.57062 199.568 2.45595 199.571 2.33862 199.576C2.32795 199.811 2.31728 200.045 2.30662 200.28C2.30128 200.515 2.29328 200.747 2.28262 200.976C2.58128 201.067 2.87462 201.133 3.16262 201.176C3.45062 201.213 3.69862 201.232 3.90662 201.232C4.34928 201.232 4.66662 201.179 4.85862 201.072C5.05062 200.96 5.14662 200.779 5.14662 200.528C5.14662 200.219 4.96262 199.981 4.59461 199.816C4.23195 199.651 3.70928 199.568 3.02662 199.568ZM8.51468 204.168L7.31468 203.528C7.61334 203.197 7.90401 202.856 8.18668 202.504C8.46934 202.157 8.73868 201.8 8.99468 201.432C8.74401 201.096 8.49334 200.736 8.24268 200.352C7.99201 199.963 7.76001 199.581 7.54668 199.208C7.33334 198.835 7.16001 198.501 7.02668 198.208L8.30668 197.648C8.40268 197.904 8.52534 198.181 8.67468 198.48C8.82934 198.779 8.99734 199.083 9.17868 199.392C9.36534 199.701 9.55734 199.997 9.75468 200.28C10.3307 199.347 10.8053 198.427 11.1787 197.52L12.5067 198.048C12.2667 198.507 11.9947 199 11.6907 199.528C11.392 200.051 11.0693 200.584 10.7227 201.128C10.3813 201.667 10.024 202.195 9.65068 202.712C9.27734 203.235 8.89868 203.72 8.51468 204.168ZM16.0271 202.568L14.6591 202.312C14.9151 201.277 15.1818 200.341 15.4591 199.504C15.7418 198.667 16.0324 197.949 16.3311 197.352C16.6298 196.755 16.9338 196.296 17.2431 195.976C17.5578 195.651 17.8724 195.488 18.1871 195.488C18.8218 195.488 19.4058 196.077 19.9391 197.256C20.4724 198.429 20.9258 200.131 21.2991 202.36L19.8831 202.552C19.8191 202.2 19.7498 201.84 19.6751 201.472C19.6004 201.099 19.5231 200.736 19.4431 200.384C19.3151 200.379 19.1764 200.376 19.0271 200.376C18.7658 200.376 18.4884 200.381 18.1951 200.392C17.9071 200.403 17.6218 200.421 17.3391 200.448C17.0618 200.469 16.8031 200.493 16.5631 200.52C16.4618 200.861 16.3631 201.208 16.2671 201.56C16.1764 201.907 16.0964 202.243 16.0271 202.568ZM17.4991 197.896C17.3818 198.147 17.2244 198.552 17.0271 199.112C17.2564 199.085 17.4991 199.067 17.7551 199.056C18.0111 199.04 18.2618 199.032 18.5071 199.032C18.7151 199.032 18.9151 199.037 19.1071 199.048C19.0324 198.776 18.9604 198.533 18.8911 198.32C18.8271 198.107 18.7684 197.939 18.7151 197.816C18.6031 197.528 18.5044 197.325 18.4191 197.208C18.3338 197.085 18.2458 197.024 18.1551 197.024C18.0591 197.024 17.9631 197.088 17.8671 197.216C17.7711 197.339 17.6484 197.565 17.4991 197.896ZM23.8444 202.632C23.5671 202.632 23.2951 202.584 23.0284 202.488C22.7671 202.392 22.5298 202.243 22.3164 202.04C22.1084 201.843 21.9431 201.595 21.8204 201.296C21.6978 200.992 21.6364 200.637 21.6364 200.232C21.6364 199.773 21.7058 199.379 21.8444 199.048C21.9884 198.712 22.1778 198.437 22.4124 198.224C22.6471 198.005 22.9084 197.843 23.1964 197.736C23.4844 197.629 23.7724 197.576 24.0604 197.576C24.2311 197.576 24.3938 197.589 24.5484 197.616C24.7031 197.637 24.8471 197.669 24.9804 197.712C24.9964 197.323 25.0151 196.931 25.0364 196.536C25.0631 196.141 25.0924 195.752 25.1244 195.368L26.4684 195.456C26.4258 195.899 26.3884 196.376 26.3564 196.888C26.3244 197.395 26.3004 197.912 26.2844 198.44C26.2738 198.968 26.2684 199.483 26.2684 199.984C26.2684 200.453 26.2738 200.901 26.2844 201.328C26.3004 201.749 26.3191 202.133 26.3404 202.48L24.9564 202.584C24.9511 202.483 24.9484 202.384 24.9484 202.288C24.7938 202.389 24.6231 202.472 24.4364 202.536C24.2551 202.6 24.0578 202.632 23.8444 202.632ZM22.9244 200.16C22.9244 200.437 22.9778 200.656 23.0844 200.816C23.1911 200.971 23.3218 201.08 23.4764 201.144C23.6311 201.208 23.7804 201.24 23.9244 201.24C24.0951 201.24 24.2658 201.203 24.4364 201.128C24.6071 201.053 24.7671 200.923 24.9164 200.736C24.9164 200.672 24.9164 200.611 24.9164 200.552C24.9164 200.12 24.9218 199.677 24.9324 199.224C24.6818 199.005 24.4098 198.896 24.1164 198.896C23.9938 198.896 23.8631 198.915 23.7244 198.952C23.5858 198.989 23.4551 199.056 23.3324 199.152C23.2151 199.243 23.1164 199.371 23.0364 199.536C22.9618 199.696 22.9244 199.904 22.9244 200.16ZM29.1177 202.632C28.7177 202.632 28.355 202.528 28.0297 202.32C27.7043 202.117 27.4457 201.843 27.2537 201.496C27.067 201.144 26.9737 200.752 26.9737 200.32C26.9737 199.915 27.0483 199.549 27.1977 199.224C27.347 198.893 27.5497 198.611 27.8057 198.376C28.067 198.141 28.363 197.963 28.6937 197.84C29.0243 197.712 29.371 197.648 29.7337 197.648C30.0377 197.648 30.3363 197.691 30.6297 197.776C30.651 197.664 30.6697 197.552 30.6857 197.44L32.0537 197.672C32.0163 197.773 31.979 197.925 31.9417 198.128C31.9043 198.331 31.8723 198.557 31.8457 198.808C31.8243 199.059 31.8057 199.309 31.7897 199.56C31.7737 199.811 31.7657 200.037 31.7657 200.24C31.7657 200.405 31.7763 200.568 31.7977 200.728C31.8243 200.883 31.8777 201.011 31.9577 201.112C32.0377 201.208 32.1603 201.256 32.3257 201.256H32.4377L32.2377 202.648C31.8857 202.648 31.595 202.587 31.3657 202.464C31.1363 202.347 30.9523 202.187 30.8137 201.984C30.5843 202.24 30.323 202.411 30.0297 202.496C29.7363 202.587 29.4323 202.632 29.1177 202.632ZM28.2857 200.48C28.3123 200.736 28.4163 200.941 28.5977 201.096C28.7843 201.245 29.019 201.32 29.3017 201.32C29.5737 201.32 29.8003 201.248 29.9817 201.104C30.163 200.955 30.3123 200.752 30.4297 200.496C30.4243 200.411 30.4217 200.323 30.4217 200.232C30.4217 200.045 30.427 199.853 30.4377 199.656C30.4483 199.459 30.4617 199.264 30.4777 199.072C30.2537 198.987 30.019 198.944 29.7737 198.944C29.4857 198.944 29.227 199.003 28.9977 199.12C28.7737 199.232 28.5977 199.389 28.4697 199.592C28.3417 199.795 28.2777 200.029 28.2777 200.296C28.2777 200.328 28.2777 200.36 28.2777 200.392C28.2777 200.424 28.2803 200.453 28.2857 200.48ZM32.9378 202.624C32.9325 202.544 32.9271 202.411 32.9218 202.224C32.9165 202.043 32.9111 201.824 32.9058 201.568C32.9005 201.312 32.8978 201.037 32.8978 200.744C32.8978 200.445 32.8978 200.147 32.8978 199.848C32.8978 199.517 32.8978 199.203 32.8978 198.904C32.9031 198.605 32.9058 198.347 32.9058 198.128C32.9111 197.909 32.9138 197.752 32.9138 197.656L34.2658 197.632C34.2551 197.781 34.2471 197.963 34.2418 198.176C34.3805 197.989 34.5405 197.843 34.7218 197.736C34.9031 197.629 35.1111 197.576 35.3458 197.576C35.6285 197.576 35.8605 197.659 36.0418 197.824C36.2285 197.989 36.3805 198.205 36.4978 198.472C36.8818 197.875 37.3538 197.576 37.9138 197.576C38.2285 197.576 38.4871 197.645 38.6898 197.784C38.8978 197.917 39.0605 198.099 39.1778 198.328C39.2951 198.557 39.3805 198.816 39.4338 199.104C39.4925 199.392 39.5298 199.688 39.5458 199.992C39.5618 200.296 39.5698 200.589 39.5698 200.872C39.5698 201.208 39.5645 201.515 39.5538 201.792C39.5431 202.069 39.5405 202.333 39.5458 202.584H38.1618C38.1618 202.456 38.1618 202.293 38.1618 202.096C38.1618 201.904 38.1618 201.709 38.1618 201.512C38.1671 201.309 38.1698 201.136 38.1698 200.992C38.1698 200.843 38.1698 200.755 38.1698 200.728C38.1698 200.408 38.1618 200.107 38.1458 199.824C38.1298 199.541 38.0898 199.312 38.0258 199.136C37.9618 198.96 37.8578 198.872 37.7138 198.872C37.5751 198.872 37.4525 198.939 37.3458 199.072C37.2391 199.205 37.1431 199.379 37.0578 199.592C36.9778 199.805 36.9085 200.032 36.8498 200.272C36.8605 200.48 36.8685 200.688 36.8738 200.896C36.8791 201.099 36.8818 201.296 36.8818 201.488C36.8818 201.707 36.8791 201.896 36.8738 202.056C36.8738 202.221 36.8738 202.397 36.8738 202.584H35.5298C35.5298 202.152 35.5271 201.771 35.5218 201.44C35.5165 201.109 35.5058 200.789 35.4898 200.48C35.4631 199.925 35.4045 199.52 35.3138 199.264C35.2285 199.003 35.1085 198.872 34.9538 198.872C34.7831 198.872 34.6391 198.976 34.5218 199.184C34.4045 199.387 34.3085 199.635 34.2338 199.928C34.2391 200.355 34.2498 200.8 34.2658 201.264C34.2818 201.728 34.3031 202.176 34.3298 202.608L32.9378 202.624ZM44.8781 202.592C44.4727 202.592 44.1074 202.563 43.7821 202.504C43.4621 202.451 43.1901 202.344 42.9661 202.184C42.7421 202.029 42.5714 201.8 42.4541 201.496C42.3367 201.192 42.2781 200.795 42.2781 200.304C42.2781 199.947 42.2967 199.576 42.3341 199.192C42.3714 198.808 42.4167 198.437 42.4701 198.08C42.5287 197.717 42.5847 197.395 42.6381 197.112C42.5314 197.128 42.4407 197.144 42.3661 197.16L42.2141 195.888C42.4754 195.84 42.7767 195.8 43.1181 195.768C43.4647 195.731 43.8301 195.699 44.2141 195.672C44.6034 195.645 44.9901 195.627 45.3741 195.616C45.7581 195.6 46.1181 195.592 46.4541 195.592C46.7207 195.592 46.9634 195.597 47.1821 195.608C47.4061 195.613 47.5901 195.624 47.7341 195.64L47.6701 196.976C47.5261 196.949 47.3314 196.931 47.0861 196.92C46.8407 196.904 46.5661 196.896 46.2621 196.896C45.9047 196.896 45.5234 196.904 45.1181 196.92C44.7127 196.936 44.3261 196.955 43.9581 196.976C43.9154 197.2 43.8781 197.429 43.8461 197.664C43.8141 197.899 43.7847 198.131 43.7581 198.36C44.0674 198.317 44.4061 198.285 44.7741 198.264C45.1474 198.237 45.5181 198.219 45.8861 198.208C46.2541 198.192 46.5847 198.184 46.8781 198.184C47.0487 198.184 47.2007 198.187 47.3341 198.192C47.4674 198.192 47.5767 198.197 47.6621 198.208L47.6301 199.52C47.5607 199.515 47.4647 199.512 47.3421 199.512C47.2247 199.507 47.0861 199.504 46.9261 199.504C46.6967 199.504 46.4407 199.509 46.1581 199.52C45.8754 199.525 45.5821 199.536 45.2781 199.552C44.9794 199.563 44.6887 199.579 44.4061 199.6C44.1234 199.616 43.8674 199.637 43.6381 199.664C43.6167 199.963 43.6061 200.203 43.6061 200.384C43.6061 200.645 43.6407 200.837 43.7101 200.96C43.7794 201.083 43.8941 201.163 44.0541 201.2C44.2194 201.232 44.4354 201.248 44.7021 201.248C45.1767 201.248 45.6861 201.208 46.2301 201.128C46.7794 201.048 47.3207 200.923 47.8541 200.752L47.9421 202.144C47.3021 202.32 46.7207 202.437 46.1981 202.496C45.6807 202.56 45.2407 202.592 44.8781 202.592ZM48.869 202.576C48.853 202.107 48.8397 201.672 48.829 201.272C48.8237 200.872 48.821 200.477 48.821 200.088C48.821 199.699 48.8237 199.309 48.829 198.92C48.8397 198.525 48.8557 198.104 48.877 197.656H50.229C50.2077 197.896 50.189 198.139 50.173 198.384C50.3543 198.155 50.5703 197.965 50.821 197.816C51.0717 197.661 51.3677 197.584 51.709 197.584C52.045 197.584 52.3197 197.64 52.533 197.752C52.7517 197.864 52.9223 198.019 53.045 198.216C53.173 198.413 53.2637 198.64 53.317 198.896C53.3757 199.147 53.413 199.419 53.429 199.712C53.445 200 53.453 200.291 53.453 200.584C53.453 200.904 53.4477 201.211 53.437 201.504C53.4263 201.797 53.4157 202.043 53.405 202.24C53.3943 202.437 53.3863 202.555 53.381 202.592H52.037C52.0477 202.373 52.0583 202.141 52.069 201.896C52.0797 201.645 52.0903 201.4 52.101 201.16C52.1117 200.915 52.117 200.693 52.117 200.496C52.117 199.36 51.933 198.792 51.565 198.792C51.261 198.792 50.9837 198.925 50.733 199.192C50.4877 199.453 50.2823 199.784 50.117 200.184C50.117 200.237 50.117 200.291 50.117 200.344C50.117 200.6 50.117 200.867 50.117 201.144C50.1223 201.416 50.1277 201.677 50.133 201.928C50.1437 202.173 50.1517 202.387 50.157 202.568L48.869 202.576ZM56.0907 202.04C55.7547 202.04 55.4693 201.989 55.2347 201.888C55 201.787 54.8053 201.656 54.6507 201.496C54.5013 201.331 54.384 201.155 54.2987 200.968C54.2133 200.776 54.1547 200.592 54.1227 200.416C54.0907 200.235 54.0747 200.077 54.0747 199.944C54.0747 199.688 54.1093 199.424 54.1787 199.152C54.2533 198.88 54.376 198.627 54.5467 198.392C54.7227 198.157 54.96 197.968 55.2587 197.824C55.5627 197.68 55.944 197.608 56.4027 197.608C56.5413 197.608 56.6693 197.619 56.7867 197.64C56.904 197.661 57.0133 197.691 57.1147 197.728V197.464H58.4987C58.4933 197.784 58.488 198.147 58.4827 198.552C58.4773 198.952 58.4747 199.405 58.4747 199.912C58.4747 200.173 58.4747 200.448 58.4747 200.736C58.48 201.019 58.4827 201.328 58.4827 201.664C58.4827 202.123 58.4213 202.499 58.2987 202.792C58.176 203.085 58.0187 203.312 57.8267 203.472C57.6347 203.632 57.4347 203.747 57.2267 203.816C57.024 203.891 56.8347 203.933 56.6587 203.944C56.488 203.96 56.36 203.968 56.2747 203.968C56.0667 203.968 55.8373 203.944 55.5867 203.896C55.336 203.853 55.0853 203.781 54.8347 203.68C54.584 203.584 54.3547 203.459 54.1467 203.304L54.7307 202.088C54.864 202.2 54.9973 202.301 55.1307 202.392C55.264 202.488 55.4187 202.563 55.5947 202.616C55.7707 202.675 55.9893 202.704 56.2507 202.704C56.5173 202.704 56.7147 202.656 56.8427 202.56C56.9707 202.469 57.0533 202.347 57.0907 202.192C57.1333 202.043 57.1573 201.877 57.1627 201.696C56.9813 201.829 56.7973 201.92 56.6107 201.968C56.424 202.016 56.2507 202.04 56.0907 202.04ZM55.2747 199.832C55.2747 200.136 55.3573 200.376 55.5227 200.552C55.6933 200.728 55.9253 200.816 56.2187 200.816C56.6293 200.816 56.936 200.579 57.1387 200.104C57.1387 199.933 57.136 199.76 57.1307 199.584C57.1307 199.403 57.128 199.227 57.1227 199.056C56.9093 198.917 56.664 198.848 56.3867 198.848C56.0453 198.848 55.7733 198.939 55.5707 199.12C55.3733 199.296 55.2747 199.533 55.2747 199.832ZM60.7478 202.632C60.4545 202.632 60.2118 202.568 60.0198 202.44C59.8331 202.317 59.6838 202.147 59.5718 201.928C59.4651 201.709 59.3851 201.459 59.3318 201.176C59.2838 200.893 59.2518 200.592 59.2358 200.272C59.2251 199.947 59.2198 199.621 59.2198 199.296C59.2198 199.013 59.2278 198.704 59.2438 198.368C59.2598 198.027 59.2785 197.683 59.2998 197.336C59.3265 196.984 59.3531 196.653 59.3798 196.344C59.4118 196.035 59.4411 195.765 59.4678 195.536L60.9158 195.552C60.8731 195.824 60.8331 196.133 60.7958 196.48C60.7585 196.821 60.7265 197.168 60.6998 197.52C60.6785 197.872 60.6598 198.197 60.6438 198.496C60.6331 198.795 60.6278 199.032 60.6278 199.208C60.6278 199.693 60.6358 200.075 60.6518 200.352C60.6731 200.629 60.7025 200.827 60.7398 200.944C60.7825 201.056 60.8385 201.112 60.9078 201.112C60.9985 201.112 61.0971 201.056 61.2038 200.944C61.3105 200.827 61.4145 200.696 61.5158 200.552L62.1958 201.904C62.0305 202.085 61.8331 202.251 61.6038 202.4C61.3745 202.555 61.0891 202.632 60.7478 202.632ZM62.8591 196.832C62.8591 196.784 62.8564 196.736 62.8511 196.688C62.8511 196.635 62.8511 196.576 62.8511 196.512C62.8511 196.341 62.8564 196.16 62.8671 195.968C62.8778 195.776 62.8884 195.613 62.8991 195.48L64.3231 195.504C64.3071 195.685 64.2884 195.891 64.2671 196.12C64.2511 196.349 64.2404 196.587 64.2351 196.832H62.8591ZM62.8271 202.56C62.8111 202.229 62.8004 201.877 62.7951 201.504C62.7898 201.125 62.7871 200.747 62.7871 200.368C62.7871 199.872 62.7924 199.389 62.8031 198.92C62.8138 198.451 62.8271 198.024 62.8431 197.64L64.2191 197.632C64.1978 197.877 64.1844 198.181 64.1791 198.544C64.1738 198.901 64.1711 199.277 64.1711 199.672C64.1711 200.061 64.1738 200.445 64.1791 200.824C64.1844 201.203 64.1898 201.547 64.1951 201.856C64.2058 202.16 64.2138 202.395 64.2191 202.56H62.8271ZM67.3445 202.664C66.9818 202.664 66.6458 202.621 66.3365 202.536C66.0272 202.451 65.7472 202.341 65.4965 202.208C65.2458 202.075 65.0218 201.933 64.8245 201.784L65.5445 200.624C65.7685 200.832 65.9845 200.992 66.1925 201.104C66.4005 201.216 66.6165 201.293 66.8405 201.336C67.0698 201.379 67.3178 201.4 67.5845 201.4C67.8138 201.4 67.9978 201.371 68.1365 201.312C68.2752 201.248 68.3445 201.168 68.3445 201.072C68.3445 200.992 68.2778 200.931 68.1445 200.888C68.0112 200.84 67.8405 200.8 67.6325 200.768C67.4245 200.731 67.2058 200.685 66.9765 200.632C66.6512 200.547 66.3472 200.448 66.0645 200.336C65.7818 200.224 65.5525 200.072 65.3765 199.88C65.2058 199.688 65.1205 199.432 65.1205 199.112C65.1205 198.856 65.1818 198.632 65.3045 198.44C65.4272 198.243 65.5898 198.08 65.7925 197.952C66.0005 197.819 66.2352 197.72 66.4965 197.656C66.7578 197.592 67.0272 197.56 67.3045 197.56C67.7845 197.56 68.1978 197.619 68.5445 197.736C68.8965 197.848 69.2325 197.997 69.5525 198.184L68.8245 199.288C68.6645 199.176 68.4805 199.08 68.2725 199C68.0698 198.915 67.8645 198.851 67.6565 198.808C67.4538 198.76 67.2645 198.736 67.0885 198.736C66.8965 198.736 66.7445 198.765 66.6325 198.824C66.5258 198.883 66.4725 198.965 66.4725 199.072C66.4725 199.136 66.5392 199.197 66.6725 199.256C66.8112 199.309 67.0725 199.381 67.4565 199.472C67.6858 199.525 67.9285 199.581 68.1845 199.64C68.4405 199.693 68.6805 199.771 68.9045 199.872C69.1338 199.968 69.3178 200.109 69.4565 200.296C69.6005 200.477 69.6725 200.72 69.6725 201.024C69.6725 201.536 69.4672 201.936 69.0565 202.224C68.6458 202.517 68.0752 202.664 67.3445 202.664ZM70.3054 202.552C70.3054 202.227 70.3054 201.811 70.3054 201.304C70.3107 200.792 70.316 200.224 70.3214 199.6C70.332 198.976 70.3454 198.32 70.3614 197.632C70.3827 196.944 70.4067 196.256 70.4334 195.568L71.7934 195.56C71.772 195.864 71.7507 196.235 71.7294 196.672C71.708 197.109 71.6894 197.579 71.6734 198.08C72.0414 197.739 72.4627 197.568 72.9374 197.568C73.2627 197.568 73.532 197.627 73.7454 197.744C73.964 197.861 74.14 198.016 74.2734 198.208C74.4067 198.395 74.508 198.6 74.5774 198.824C74.6467 199.048 74.6947 199.269 74.7214 199.488C74.748 199.701 74.7614 199.891 74.7614 200.056C74.7614 200.408 74.7587 200.757 74.7534 201.104C74.748 201.451 74.7427 201.755 74.7374 202.016C74.7374 202.277 74.7374 202.461 74.7374 202.568L73.3374 202.576C73.3587 202.368 73.372 202.128 73.3774 201.856C73.388 201.584 73.3934 201.304 73.3934 201.016C73.3987 200.723 73.4014 200.445 73.4014 200.184C73.4014 199.32 73.1987 198.888 72.7934 198.888C72.6707 198.888 72.5347 198.92 72.3854 198.984C72.236 199.048 72.092 199.149 71.9534 199.288C71.82 199.427 71.7134 199.611 71.6334 199.84C71.628 200.192 71.6254 200.533 71.6254 200.864C71.6254 201.168 71.628 201.453 71.6334 201.72C71.644 201.981 71.652 202.245 71.6574 202.512L70.3054 202.552ZM75.6192 202.576C75.6192 202.139 75.6272 201.669 75.6432 201.168C75.6592 200.667 75.6805 200.157 75.7072 199.64C75.7338 199.123 75.7605 198.616 75.7872 198.12C75.8192 197.624 75.8512 197.157 75.8832 196.72C75.9152 196.277 75.9418 195.885 75.9632 195.544L77.2992 195.56C77.2672 195.864 77.2352 196.205 77.2032 196.584C77.1765 196.963 77.1498 197.365 77.1232 197.792C77.2778 197.728 77.4432 197.68 77.6192 197.648C77.8005 197.611 77.9952 197.592 78.2032 197.592C78.4858 197.592 78.7552 197.64 79.0112 197.736C79.2725 197.827 79.5072 197.968 79.7152 198.16C79.9232 198.352 80.0858 198.6 80.2032 198.904C80.3258 199.208 80.3872 199.573 80.3872 200C80.3872 200.453 80.3232 200.845 80.1952 201.176C80.0672 201.507 79.8938 201.779 79.6752 201.992C79.4565 202.205 79.2085 202.363 78.9312 202.464C78.6592 202.571 78.3792 202.624 78.0912 202.624C77.8725 202.624 77.6672 202.595 77.4752 202.536C77.2885 202.477 77.1152 202.4 76.9552 202.304C76.9552 202.389 76.9552 202.475 76.9552 202.56L75.6192 202.576ZM78.0192 198.936C77.6192 198.936 77.2938 199.053 77.0432 199.288C77.0218 199.779 77.0032 200.259 76.9872 200.728C77.2485 201.075 77.6138 201.248 78.0832 201.248C78.2378 201.248 78.3925 201.213 78.5472 201.144C78.7072 201.069 78.8405 200.944 78.9472 200.768C79.0538 200.592 79.1072 200.347 79.1072 200.032C79.1072 199.675 79.0138 199.403 78.8272 199.216C78.6458 199.029 78.3765 198.936 78.0192 198.936ZM82.21 204.168L81.01 203.528C81.3087 203.197 81.5993 202.856 81.882 202.504C82.1647 202.157 82.434 201.8 82.69 201.432C82.4393 201.096 82.1887 200.736 81.938 200.352C81.6873 199.963 81.4553 199.581 81.242 199.208C81.0287 198.835 80.8553 198.501 80.722 198.208L82.002 197.648C82.098 197.904 82.2207 198.181 82.37 198.48C82.5247 198.779 82.6927 199.083 82.874 199.392C83.0607 199.701 83.2527 199.997 83.45 200.28C84.026 199.347 84.5007 198.427 84.874 197.52L86.202 198.048C85.962 198.507 85.69 199 85.386 199.528C85.0873 200.051 84.7647 200.584 84.418 201.128C84.0767 201.667 83.7193 202.195 83.346 202.712C82.9727 203.235 82.594 203.72 82.21 204.168Z" fill="white"/>
</svg>
