<svg width="166" height="198" viewBox="0 0 166 198" fill="none" xmlns="http://www.w3.org/2000/svg">
<path d="M0 10L0.0406834 7.85065L0.286187 5.00678L1.24926 2.34129L3.42021 0L4.93251 0.337764L6.57177 3.22436L7.08031 5.74335L7.05717 8.164L6.91969 10H4.93181L5.03632 8.22911L2.50554 8.12466L2.43329 10H0ZM2.56656 6.54368L5.10507 6.7363L4.85605 4.64528L4.07535 2.50068L3.03652 4.4357L2.56656 6.54368Z" fill="white"/>
<path d="M7.60429 10L8.32116 1.09468L10.1323 1.49891L11.9806 6.67051L12.5045 2.02862L14 2.36299L13.0489 10H11.6179L9.78646 5.32081L9.34386 10H7.60429Z" fill="white"/>
<path d="M0 39V13H16.7123L15.9746 17.991L5.81774 18.1296L5.46308 24.7414L12.2615 24.5311L11.767 28.6457L5.2383 28.9195L4.89363 35.3127L13.4954 34.8069L13.0075 38.1203L0 39Z" fill="white"/>
<path d="M15.3003 37.9651L19.6228 13H25.0193L28.2678 28.165L32.6336 13H37.7887L29.7914 36.9852L25.6836 37.2623L22.3718 25.1871L19.6095 37.673L15.3003 37.9651Z" fill="white"/>
<path d="M31.9992 36.835L40.5227 13H48.0954L51.3673 13.449L52.9174 14.761L53.0273 16.9561L51.9167 20.0141L46.765 30.562L44.5788 33.6801L41.983 35.3828L38.9076 36.2291L35.5092 36.598L31.9992 36.835ZM37.2292 33.4114L39.9333 33.1326L41.6383 32.4015L42.8771 30.6388L47.4211 20.4999L47.8756 18.4217L46.83 17.6972L44.4256 17.6054L43.5581 17.6171L37.2292 33.4114Z" fill="white"/>
<path d="M46.1007 35.8819L57.7645 13H62.2135L51.4672 32.5734L56.7604 32.263L54.9388 35.2843L46.1007 35.8819Z" fill="white"/>
<path d="M56.166 35.2008L69.8495 13H81.1287L78.1582 17.1497L71.1732 17.2432L67.5367 22.8184L72.3038 22.6699L69.8362 26.207L65.1973 26.4023L61.5575 31.9809L67.8031 31.6136L65.6968 34.5565L56.166 35.2008Z" fill="white"/>
<path d="M72.2655 34.1108L69.7796 33.9506L69.0686 32.9857L69.7463 31.2247L71.4813 28.6975L74.8214 28.5306L74.3868 29.0964L73.9522 29.6289L73.5942 30.0963L73.1097 31.0578L74.3036 31.2314L74.7914 31.203L75.912 31.0294L76.6097 30.6655L77.4289 29.7474L77.6836 29.4286L78.0166 29.0497L78.3463 28.6374L78.9957 27.8629L79.4736 27.2319L80.1912 26.1936L79.7833 25.8798L78.8725 25.8281L78.7526 25.8331L76.1301 25.5426L75.4425 24.3725L76.2567 22.346L78.3264 19.3498L80.7257 16.5121L83.1351 14.5607L85.7675 13.4223L88.778 13.0401L91.1474 13.434L91.88 14.5924L91.184 16.5271L89.1759 19.2964L85.7476 19.3698L86.9497 17.7556L86.8831 17.1764L85.6077 17.0846L84.1141 17.2165L83.1118 17.8174L81.9012 19.2747L81.4633 19.8472L80.8123 20.6584L80.3594 21.251L79.8898 22.104L80.2045 22.326L81.4533 22.3861L84.1258 22.8201L84.4954 24.1638L83.3615 26.1753L81.4067 28.6207L80.8756 29.2583L78.8009 31.44L76.8461 32.8756L74.7764 33.7102L72.2655 34.1108Z" fill="white"/>
<path d="M83.1717 33.373L80.9072 33.2094L80.396 32.268L81.2818 30.557L83.2533 28.1082L86.347 27.953L85.8658 28.5005L85.3862 29.0163L84.9899 29.4687L84.4022 30.4034L85.4745 30.5737L85.929 30.547L86.9847 30.3817L87.6807 30.0312L88.5698 29.1398L88.8496 28.831L89.2109 28.4621L89.5755 28.0632L90.2849 27.3137L90.816 26.7027L91.6269 25.6979L91.2956 25.3941L90.4663 25.3407L90.3548 25.3457L87.9871 25.0602L87.5258 23.9285L88.5682 21.9738L90.8976 19.0894L93.5018 16.3635L95.9844 14.494L98.5552 13.404L101.368 13.0384L103.485 13.4156L104 14.5257L103.094 16.3852L100.865 19.0476L97.7044 19.1144L99.0348 17.562L99.0548 17.0062L97.8975 16.916L96.5072 17.0412L95.5048 17.6188L94.1861 19.0209L93.7032 19.5701L92.9889 20.3513L92.4894 20.9222L91.9366 21.7435L92.1947 21.9588L93.3319 22.0189L95.7263 22.4412L95.8761 23.7399L94.5474 25.6845L92.3962 28.0548L91.815 28.6724L89.5872 30.789L87.5758 32.1828L85.5461 32.9908L83.1717 33.373Z" fill="white"/>
<path d="M19 57L25.7038 39.9911L30.1934 39.5562L32.9965 39.8245L33.6463 40.4478L33.8126 41.451L33.575 42.7193L33.1101 44.1759L32.747 45.1975L31.8885 47.299L30.604 49.1222L28.4271 50.3038L28.573 57H25.1982L25.1846 50.7221L24.3125 50.7537L21.9235 57H19ZM25.3933 47.9306L27.3141 47.7789L28.4611 47.4556L29.1347 46.7074L29.737 45.2874L30.0288 44.4958L30.3631 43.3742L30.341 42.5176L29.1957 42.2127L27.5278 42.351L25.3933 47.9306Z" fill="white"/>
<path d="M35.2972 57L32.8828 56.7184L31.578 55.8901L31.2471 54.3868L31.7476 52.1537L36.3594 38.9829L39.5476 38.6746L35.1259 52.0637L35.0767 52.2103L34.8985 52.7403L34.8493 53.2402H34.8188L35.3532 53.6136L36.4307 53.7435L37.693 53.5402L38.5228 52.9853L43.2991 38.3112L46.7011 37.9813L42.7358 50.8971L41.7754 53.4969L40.4689 55.4301L38.4379 56.5934L35.2972 57Z" fill="white"/>
<path d="M42.6917 57L48.4521 37.7863L52.0068 37.4413L54.5689 47.8906L57.4449 36.9147L61.4407 36.5264L56.4217 57H52.2189L49.7382 45.5208L46.4686 57H42.6917Z" fill="white"/>
<path d="M58.8362 57L63.7109 36.3064L67.8391 35.9064L71.9215 47.1157L74.1799 35.2914L78.8544 34.8381L75.0656 57H70.0771L65.9863 44.5858L63.2817 57H58.8362Z" fill="white"/>
<path d="M77.9398 57L81.5149 34.5798L96.0322 33.1716L95.6895 36.7164L85.9875 37.518L85.2833 42.616L92.1823 42.1943L91.7649 46.0124L84.7709 46.3307L83.8564 52.9503L94.1387 52.7719L93.7298 57H77.9398Z" fill="white"/>
<path d="M96.9807 57L98.9981 32.8849L108.123 32L114.33 32.1783L116.217 32.9916L117.355 34.3715L117.822 36.1531L117.941 38.2246V39.6845L117.696 42.7143L116.286 45.3791L112.413 47.1473L118 57H110.463L105.668 47.8323L103.815 47.8989L103.282 57H96.9807ZM104.053 43.8575L108.067 43.5726L110.307 43.0693L111.201 41.9827L111.432 39.9561L111.462 38.8295L111.339 37.2463L110.645 36.0581L107.96 35.7014L104.514 35.9864L104.053 43.8575Z" fill="white"/>
<path d="M24 66.9084L25.6502 61.1108L24.5394 61.1099L24.8564 60H28.2682L27.9543 61.1135L26.8381 61.1126L25.1933 66.9168L24 66.9084Z" fill="white"/>
<path d="M26.5179 66.9261L28.4712 60H29.6753L28.9136 62.7129L30.2851 62.7169L31.0441 60H32.2329L30.2991 66.9531L29.1039 66.9447L29.9653 63.8614L28.5925 63.856L27.7279 66.9349L26.5179 66.9261Z" fill="white"/>
<path d="M30.7789 66.9562L31.1947 65.4581L31.8126 63.5462L32.7241 61.7494L34.207 60H34.9899L35.5189 61.7649L35.4368 63.5812L35.016 65.4794L34.6043 66.9836L33.3767 66.9748L33.7573 65.5913L32.3705 65.5834L31.989 66.965L30.7789 66.9562ZM32.683 64.4531L34.0577 64.4593L34.2642 62.9532L34.1713 61.5485L33.2914 62.9612L32.683 64.4531Z" fill="white"/>
<path d="M35.7367 66.9916L37.336 61.1241L36.1986 61.1232L36.5061 60H40L39.6956 61.1272L38.5528 61.1259L36.9589 67L35.7367 66.9916Z" fill="white"/>
<path d="M40 80.3988L43.7373 60.0288H49.413L53.109 60.6959L54.4927 62.5447L54.5245 65.3035L54.4375 65.972L54.3148 66.6459L54.2416 67.2004L54.1271 67.818L53.1545 70.8006L51.2989 72.3612L48.617 72.8937L45.2177 72.9692L43.9691 80.44L40 80.3988ZM45.775 69.6243L48.2404 69.6051L49.551 69.4225L50.1415 68.8612L50.4119 67.711L50.8188 64.9604L50.5305 63.5796L49.3454 63.161L47.781 63.0992L46.8649 63.0978L45.775 69.6243Z" fill="white"/>
<path d="M54.49 80.5471L57.0202 60H60.7078L58.9033 76.9661L64.6204 77.0141L64.321 80.6473L54.49 80.5471Z" fill="white"/>
<path d="M64.9819 80.6541L65.3585 75.9106L66.0952 70.1033L67.7838 64.8808L71.1721 60H73.5533L76.4698 64.9316L77.6121 70.2255L77.7708 76.008L77.6425 80.7831L73.574 80.742L73.7658 76.3471L69.2559 76.31L68.9799 80.6939L64.9819 80.6541ZM69.4738 72.832L73.883 72.8594L73.4278 68.3643L72.1323 64.3125L70.3706 68.3835L69.4738 72.832Z" fill="white"/>
<path d="M82.2972 80.8298L82.3649 71.7682L79.6125 68.7376L78.5792 65.6741L78.462 62.2469L78.5185 60H82.2186L82.2117 60.7947L82.1717 61.5949L82.1662 62.2208L82.1276 62.8508L82.5125 65.8086L84.2991 68.6937L86.1877 65.788L86.5657 62.6463L86.5588 62.0465L86.5188 61.4494L86.5106 60.7069L86.4692 60H90.2327L90.2948 62.2592L90.1155 65.7057L89.0421 68.7775L86.3133 71.7916L86.4002 80.8724L82.2972 80.8298Z" fill="white"/>
<path d="M98.9849 81L95.3648 80.5045L93.3906 79.1196L92.5063 76.9057L92.2594 74.0041L96.2478 74.0316L96.2809 74.6671L96.2768 75.2724L96.3044 75.8145L96.6934 76.9743L98.4634 77.2982L99.0856 77.3037L100.395 77.1775L100.915 76.7698L100.947 75.68L100.921 75.3067L100.925 74.8688L100.892 74.398L100.865 73.5278L100.778 72.8306L100.555 71.7092L99.7078 71.3441L98.5241 71.2398L98.382 71.2384L94.9096 70.7978L93.0195 69.5625L92.1766 67.619L91.9448 64.97L92.1959 62.6531L93.134 61.1557L94.9096 60.3102L97.6895 60.0302L100.53 60.3253L102.409 61.2202L103.549 62.7822L104.095 65.1539L100.193 65.1443L99.9907 63.7594L99.3698 63.2694L97.884 63.1761L96.3761 63.2653L95.8174 63.7512L95.7787 64.9782L95.8036 65.4737L95.8063 66.1888L95.8339 66.72L96.085 67.5065L96.6575 67.7302L98.171 67.8304L101.799 68.3533L103.72 69.741L104.583 71.8629L104.934 74.5943L105 75.3369L104.874 77.9735L103.943 79.7441L102.05 80.7035L98.9849 81Z" fill="white"/>
<path d="M21 119L33.4023 84.0993L41.463 84.0968L30.3809 117.69L21 119Z" fill="white"/>
<path d="M42.475 116.412L50.8613 88.9052L41.1185 89.0626L42.7736 84H67.5301L66.3135 88.6099L58.6114 88.7479L51.0948 115.303L42.475 116.412Z" fill="white"/>
<path d="M73.7216 112.695L66.8628 112.87L63.4369 111.388L62.572 108.427L63.3502 104.306L71.445 103.674L71.233 104.553L70.9583 105.396L70.7776 106.144L71.0354 107.679L74.3143 107.778L75.49 107.667L77.9858 107.248L79.1133 106.609L79.6337 105.144L79.7421 104.65L79.9373 104.062L80.077 103.434L80.3974 102.275L80.5371 101.35L80.607 99.8682L79.2049 99.4832L77.039 99.488L76.7692 99.505L70.2115 99.3355L66.9206 97.8078L66.0412 95.0937L66.7543 91.261L68.3275 87.8714L70.9294 85.673L74.866 84.4431L80.3468 84.0412L85.4422 84.4431L88.391 85.6391L89.7016 87.6971L89.6413 90.8131L82.7584 91.014L82.9873 89.1377L82.0621 88.4936L79.335 88.4186L76.4175 88.5977L75.1189 89.3071L74.4998 91.0407L74.3311 91.7355L74.0204 92.7427L73.8397 93.4909L73.9842 94.5755L74.9985 94.837L77.8485 94.8394L84.2786 95.2268L87.0684 96.8877L87.6707 99.5752L87.1358 103.083L86.9407 104.037L85.6349 107.475L83.286 109.955L79.5181 111.611L73.7216 112.695Z" fill="white"/>
<path d="M88.9933 110.935L94.2718 84H110.883L110.297 87.8181L99.7261 88.0094L98.6612 93.9194L106.373 93.578L105.713 97.6819L97.8951 98.1734L96.5484 105.65L107.72 104.582L107.064 108.853L88.9933 110.935Z" fill="white"/>
<path d="M110.235 108.487L113.817 84H119.04L116.414 103.749L123.897 103.033L123.444 106.965L110.235 108.487Z" fill="white"/>
<path d="M125.249 106.756L127.771 84H140L139.737 87.2903L131.946 87.4308L131.447 92.4667L137.095 92.2173L136.796 95.7207L131.086 96.0815L130.081 106.199L125.249 106.756Z" fill="white"/>
<mask id="path-7-outside-1_24_227" maskUnits="userSpaceOnUse" x="107.496" y="43.4957" width="35.4356" height="19.6588" fill="black">
<rect fill="white" x="107.496" y="43.4957" width="35.4356" height="19.6588"/>
<path d="M112.986 60.1018L111.798 60.0919L111.341 59.2279L111.635 57.6819L111.977 56.8992L112.504 56.0041L113.187 55.133L114.015 54.3994L114.988 53.8977L115.739 53.758L116.237 53.8674L116.54 54.1153L116.704 54.4046L116.783 54.602L115.703 55.6196L115.552 55.189L115.247 54.9003L114.665 54.9418L113.959 55.3473L113.387 55.9784L112.96 56.7012L112.678 57.3728L112.515 58.0075L112.514 58.5471L112.767 58.8679L113.36 58.8294L114.125 58.4238L114.746 57.7666L115.32 56.8933L116.184 57.0969L115.232 58.4493L114.181 59.4838L112.986 60.1018Z"/>
<path d="M117.502 58.714L116.686 58.6871L116.268 58.1003L116.342 57.0926L116.782 56.0709L117.445 55.1959L118.24 54.5277L119.077 54.1099L119.744 53.9893L119.85 53.7001L120.873 53.5425L120.707 53.9478L120.51 54.5445L120.329 55.207L120.184 55.8135L120.117 56.2444L120.176 56.5537L120.453 56.5915L120.546 56.5625L120.111 57.9313L119.413 57.979L119.053 57.6616L118.29 58.3517L117.502 58.714ZM117.338 56.911L117.443 57.3941L117.959 57.4235L118.559 57.0523L119.051 56.3845L119.099 56.1496L119.229 55.6358L119.377 55.119L118.848 55.187L118.204 55.5332L117.687 56.0754L117.375 56.7469L117.352 56.8334L117.338 56.911Z"/>
<path d="M122.385 57.2511L121.536 57.3934L120.877 57.2989L120.39 57.0722L121.2 55.8162L121.657 56.084L122.165 56.1275L122.786 55.9906L123.27 55.7623L123.481 55.4867L123.336 55.3716L122.92 55.3988L122.39 55.4488L121.679 55.4216L121.19 55.196L121.114 54.5939L121.373 53.9755L121.84 53.4429L122.444 53.0175L123.101 52.7289L124.075 52.5476L124.845 52.6493L124.116 53.775L123.696 53.6751L123.216 53.6737L122.763 53.762L122.381 53.9556L122.213 54.2087L122.348 54.3149L122.96 54.2961L123.539 54.2498L124.111 54.2619L124.526 54.489L124.625 55.0872L124.409 55.7599L123.94 56.3715L122.385 57.2511Z"/>
<path d="M126.206 56.076L125.465 56.1313L125.051 55.8107L124.878 55.2404L124.866 54.5387L124.937 53.8247L125.056 53.0365L125.214 52.1761L126.426 51.7117L126.324 52.1441L126.184 52.8104L126.069 53.5994L126.08 54.5894L126.405 54.8146L126.837 54.5032L127.171 53.8756L127.563 51.6589L127.587 51.3582L128.157 51.1596L128.853 50.9201L128.647 52.1119L128.533 53.05L128.49 53.559L128.52 54.0189L128.713 54.0954L128.874 54.0168L129.081 53.8513L128.971 55.1551L128.481 55.3502L127.91 55.3893L127.587 55.1313L127 55.6907L126.206 56.076Z"/>
<path d="M131.139 54.5453L130.124 54.5599L129.435 54.0093L129.226 53.0254L129.463 52.011L130.016 51.129L130.793 50.4416L131.695 49.9929L132.478 49.8405L132.521 49.5555L133.73 49.348L133.649 49.7481L133.589 50.336L133.567 50.9866L133.571 51.5826L133.62 52.0049L133.785 52.3025L134.14 52.3244L134.246 52.2915L134.126 53.6481L133.276 53.7302L132.736 53.4392L132.001 54.1514L131.139 54.5453ZM130.396 52.7971L130.67 53.2615L131.314 53.2636L131.942 52.871L132.347 52.1966L132.335 51.9662L132.34 51.4608L132.366 50.9522L131.737 51.0459L131.049 51.4154L130.575 51.9681L130.392 52.6362L130.39 52.7214L130.396 52.7971Z"/>
<path d="M135.946 53.076L135.216 53.1127L134.747 52.7656L134.473 52.147L134.333 51.3705L134.268 50.5347L134.244 49.7548L134.243 48.9085L134.265 48.1141L134.303 47.4797L135.555 47.0736L135.515 47.8075L135.502 48.6455L135.521 49.4493L135.559 50.0456L135.667 51.0205L135.797 51.5187L135.972 51.6196L136.242 51.3796L136.505 50.9378L137.303 51.953L136.77 52.5972L135.946 53.076Z"/>
<path d="M137.518 46.3503L138.649 46.0215L138.692 46.5978L138.774 47.3719L138.871 48.2512L138.975 49.1346L139.089 49.8823L139.117 50.0566L139.149 50.2019L137.921 50.5585L137.877 50.2942L137.831 49.9623L137.684 48.7578L137.573 47.4991L137.518 46.3503ZM138.773 52.2436L138.21 52.1945L137.935 51.758L138.082 51.2016L138.589 50.8394L139.135 50.8812L139.434 51.3262L139.304 51.8832L138.773 52.2436Z"/>
</mask>
<path d="M112.986 60.1018L111.798 60.0919L111.341 59.2279L111.635 57.6819L111.977 56.8992L112.504 56.0041L113.187 55.133L114.015 54.3994L114.988 53.8977L115.739 53.758L116.237 53.8674L116.54 54.1153L116.704 54.4046L116.783 54.602L115.703 55.6196L115.552 55.189L115.247 54.9003L114.665 54.9418L113.959 55.3473L113.387 55.9784L112.96 56.7012L112.678 57.3728L112.515 58.0075L112.514 58.5471L112.767 58.8679L113.36 58.8294L114.125 58.4238L114.746 57.7666L115.32 56.8933L116.184 57.0969L115.232 58.4493L114.181 59.4838L112.986 60.1018Z" fill="white"/>
<path d="M117.502 58.714L116.686 58.6871L116.268 58.1003L116.342 57.0926L116.782 56.0709L117.445 55.1959L118.24 54.5277L119.077 54.1099L119.744 53.9893L119.85 53.7001L120.873 53.5425L120.707 53.9478L120.51 54.5445L120.329 55.207L120.184 55.8135L120.117 56.2444L120.176 56.5537L120.453 56.5915L120.546 56.5625L120.111 57.9313L119.413 57.979L119.053 57.6616L118.29 58.3517L117.502 58.714ZM117.338 56.911L117.443 57.3941L117.959 57.4235L118.559 57.0523L119.051 56.3845L119.099 56.1496L119.229 55.6358L119.377 55.119L118.848 55.187L118.204 55.5332L117.687 56.0754L117.375 56.7469L117.352 56.8334L117.338 56.911Z" fill="white"/>
<path d="M122.385 57.2511L121.536 57.3934L120.877 57.2989L120.39 57.0722L121.2 55.8162L121.657 56.084L122.165 56.1275L122.786 55.9906L123.27 55.7623L123.481 55.4867L123.336 55.3716L122.92 55.3988L122.39 55.4488L121.679 55.4216L121.19 55.196L121.114 54.5939L121.373 53.9755L121.84 53.4429L122.444 53.0175L123.101 52.7289L124.075 52.5476L124.845 52.6493L124.116 53.775L123.696 53.6751L123.216 53.6737L122.763 53.762L122.381 53.9556L122.213 54.2087L122.348 54.3149L122.96 54.2961L123.539 54.2498L124.111 54.2619L124.526 54.489L124.625 55.0872L124.409 55.7599L123.94 56.3715L122.385 57.2511Z" fill="white"/>
<path d="M126.206 56.076L125.465 56.1313L125.051 55.8107L124.878 55.2404L124.866 54.5387L124.937 53.8247L125.056 53.0365L125.214 52.1761L126.426 51.7117L126.324 52.1441L126.184 52.8104L126.069 53.5994L126.08 54.5894L126.405 54.8146L126.837 54.5032L127.171 53.8756L127.563 51.6589L127.587 51.3582L128.157 51.1596L128.853 50.9201L128.647 52.1119L128.533 53.05L128.49 53.559L128.52 54.0189L128.713 54.0954L128.874 54.0168L129.081 53.8513L128.971 55.1551L128.481 55.3502L127.91 55.3893L127.587 55.1313L127 55.6907L126.206 56.076Z" fill="white"/>
<path d="M131.139 54.5453L130.124 54.5599L129.435 54.0093L129.226 53.0254L129.463 52.011L130.016 51.129L130.793 50.4416L131.695 49.9929L132.478 49.8405L132.521 49.5555L133.73 49.348L133.649 49.7481L133.589 50.336L133.567 50.9866L133.571 51.5826L133.62 52.0049L133.785 52.3025L134.14 52.3244L134.246 52.2915L134.126 53.6481L133.276 53.7302L132.736 53.4392L132.001 54.1514L131.139 54.5453ZM130.396 52.7971L130.67 53.2615L131.314 53.2636L131.942 52.871L132.347 52.1966L132.335 51.9662L132.34 51.4608L132.366 50.9522L131.737 51.0459L131.049 51.4154L130.575 51.9681L130.392 52.6362L130.39 52.7214L130.396 52.7971Z" fill="white"/>
<path d="M135.946 53.076L135.216 53.1127L134.747 52.7656L134.473 52.147L134.333 51.3705L134.268 50.5347L134.244 49.7548L134.243 48.9085L134.265 48.1141L134.303 47.4797L135.555 47.0736L135.515 47.8075L135.502 48.6455L135.521 49.4493L135.559 50.0456L135.667 51.0205L135.797 51.5187L135.972 51.6196L136.242 51.3796L136.505 50.9378L137.303 51.953L136.77 52.5972L135.946 53.076Z" fill="white"/>
<path d="M137.518 46.3503L138.649 46.0215L138.692 46.5978L138.774 47.3719L138.871 48.2512L138.975 49.1346L139.089 49.8823L139.117 50.0566L139.149 50.2019L137.921 50.5585L137.877 50.2942L137.831 49.9623L137.684 48.7578L137.573 47.4991L137.518 46.3503ZM138.773 52.2436L138.21 52.1945L137.935 51.758L138.082 51.2016L138.589 50.8394L139.135 50.8812L139.434 51.3262L139.304 51.8832L138.773 52.2436Z" fill="white"/>
<path d="M112.986 60.1018L111.798 60.0919L111.341 59.2279L111.635 57.6819L111.977 56.8992L112.504 56.0041L113.187 55.133L114.015 54.3994L114.988 53.8977L115.739 53.758L116.237 53.8674L116.54 54.1153L116.704 54.4046L116.783 54.602L115.703 55.6196L115.552 55.189L115.247 54.9003L114.665 54.9418L113.959 55.3473L113.387 55.9784L112.96 56.7012L112.678 57.3728L112.515 58.0075L112.514 58.5471L112.767 58.8679L113.36 58.8294L114.125 58.4238L114.746 57.7666L115.32 56.8933L116.184 57.0969L115.232 58.4493L114.181 59.4838L112.986 60.1018Z" stroke="#8F8F8F" stroke-width="4" stroke-linejoin="bevel" mask="url(#path-7-outside-1_24_227)"/>
<path d="M117.502 58.714L116.686 58.6871L116.268 58.1003L116.342 57.0926L116.782 56.0709L117.445 55.1959L118.24 54.5277L119.077 54.1099L119.744 53.9893L119.85 53.7001L120.873 53.5425L120.707 53.9478L120.51 54.5445L120.329 55.207L120.184 55.8135L120.117 56.2444L120.176 56.5537L120.453 56.5915L120.546 56.5625L120.111 57.9313L119.413 57.979L119.053 57.6616L118.29 58.3517L117.502 58.714ZM117.338 56.911L117.443 57.3941L117.959 57.4235L118.559 57.0523L119.051 56.3845L119.099 56.1496L119.229 55.6358L119.377 55.119L118.848 55.187L118.204 55.5332L117.687 56.0754L117.375 56.7469L117.352 56.8334L117.338 56.911Z" stroke="#8F8F8F" stroke-width="4" stroke-linejoin="bevel" mask="url(#path-7-outside-1_24_227)"/>
<path d="M122.385 57.2511L121.536 57.3934L120.877 57.2989L120.39 57.0722L121.2 55.8162L121.657 56.084L122.165 56.1275L122.786 55.9906L123.27 55.7623L123.481 55.4867L123.336 55.3716L122.92 55.3988L122.39 55.4488L121.679 55.4216L121.19 55.196L121.114 54.5939L121.373 53.9755L121.84 53.4429L122.444 53.0175L123.101 52.7289L124.075 52.5476L124.845 52.6493L124.116 53.775L123.696 53.6751L123.216 53.6737L122.763 53.762L122.381 53.9556L122.213 54.2087L122.348 54.3149L122.96 54.2961L123.539 54.2498L124.111 54.2619L124.526 54.489L124.625 55.0872L124.409 55.7599L123.94 56.3715L122.385 57.2511Z" stroke="#8F8F8F" stroke-width="4" stroke-linejoin="bevel" mask="url(#path-7-outside-1_24_227)"/>
<path d="M126.206 56.076L125.465 56.1313L125.051 55.8107L124.878 55.2404L124.866 54.5387L124.937 53.8247L125.056 53.0365L125.214 52.1761L126.426 51.7117L126.324 52.1441L126.184 52.8104L126.069 53.5994L126.08 54.5894L126.405 54.8146L126.837 54.5032L127.171 53.8756L127.563 51.6589L127.587 51.3582L128.157 51.1596L128.853 50.9201L128.647 52.1119L128.533 53.05L128.49 53.559L128.52 54.0189L128.713 54.0954L128.874 54.0168L129.081 53.8513L128.971 55.1551L128.481 55.3502L127.91 55.3893L127.587 55.1313L127 55.6907L126.206 56.076Z" stroke="#8F8F8F" stroke-width="4" stroke-linejoin="bevel" mask="url(#path-7-outside-1_24_227)"/>
<path d="M131.139 54.5453L130.124 54.5599L129.435 54.0093L129.226 53.0254L129.463 52.011L130.016 51.129L130.793 50.4416L131.695 49.9929L132.478 49.8405L132.521 49.5555L133.73 49.348L133.649 49.7481L133.589 50.336L133.567 50.9866L133.571 51.5826L133.62 52.0049L133.785 52.3025L134.14 52.3244L134.246 52.2915L134.126 53.6481L133.276 53.7302L132.736 53.4392L132.001 54.1514L131.139 54.5453ZM130.396 52.7971L130.67 53.2615L131.314 53.2636L131.942 52.871L132.347 52.1966L132.335 51.9662L132.34 51.4608L132.366 50.9522L131.737 51.0459L131.049 51.4154L130.575 51.9681L130.392 52.6362L130.39 52.7214L130.396 52.7971Z" stroke="#8F8F8F" stroke-width="4" stroke-linejoin="bevel" mask="url(#path-7-outside-1_24_227)"/>
<path d="M135.946 53.076L135.216 53.1127L134.747 52.7656L134.473 52.147L134.333 51.3705L134.268 50.5347L134.244 49.7548L134.243 48.9085L134.265 48.1141L134.303 47.4797L135.555 47.0736L135.515 47.8075L135.502 48.6455L135.521 49.4493L135.559 50.0456L135.667 51.0205L135.797 51.5187L135.972 51.6196L136.242 51.3796L136.505 50.9378L137.303 51.953L136.77 52.5972L135.946 53.076Z" stroke="#8F8F8F" stroke-width="4" stroke-linejoin="bevel" mask="url(#path-7-outside-1_24_227)"/>
<path d="M137.518 46.3503L138.649 46.0215L138.692 46.5978L138.774 47.3719L138.871 48.2512L138.975 49.1346L139.089 49.8823L139.117 50.0566L139.149 50.2019L137.921 50.5585L137.877 50.2942L137.831 49.9623L137.684 48.7578L137.573 47.4991L137.518 46.3503ZM138.773 52.2436L138.21 52.1945L137.935 51.758L138.082 51.2016L138.589 50.8394L139.135 50.8812L139.434 51.3262L139.304 51.8832L138.773 52.2436Z" stroke="#8F8F8F" stroke-width="4" stroke-linejoin="bevel" mask="url(#path-7-outside-1_24_227)"/>
<mask id="path-8-outside-2_24_227" maskUnits="userSpaceOnUse" x="123.19" y="92.9913" width="34.7198" height="22.5361" fill="black">
<rect fill="white" x="123.19" y="92.9913" width="34.7198" height="22.5361"/>
<path d="M131.648 111.132L130.531 111.391L129.418 111.369L128.383 111.139L128.381 109.984L128.953 110.244L129.669 110.367L130.401 110.356L131.061 110.202L131.692 109.811L131.743 109.373L131.445 109.151L131.053 109.079L130.707 109.056L130.329 109.066L129.727 109.087L129.092 109.119L128.607 109.129L127.435 108.915L126.588 108.252L126.275 107.63L126.268 106.933L126.667 106.264L127.577 105.713L128.817 105.396L129.91 105.382L130.824 105.546L130.792 106.875L129.569 106.658L128.465 106.856L127.863 107.204L127.695 107.508L127.74 107.701L127.987 107.888L128.563 107.959L128.997 107.953L129.594 107.922L130.251 107.908L130.857 107.918L131.577 108.023L132.301 108.295L132.864 108.846L133.057 109.364L133.02 109.975L132.604 110.592L131.648 111.132Z"/>
<path d="M134.017 110.214L133.841 109.943L133.554 109.484L133.194 108.887L132.795 108.211L132.358 107.469L131.992 106.834L131.766 106.435L132.998 105.929L133.23 106.4L133.466 105.855L133.969 105.49L134.724 105.455L135.417 105.848L135.73 105.037L136.361 104.555L137.166 104.459L137.822 104.765L138.331 105.347L138.731 106.052L139.037 106.754L139.309 107.474L139.541 108.071L138.371 108.518L138.213 108.159L138.021 107.721L137.852 107.319L137.763 107.113L137.424 106.398L137.065 105.87L136.683 105.758L136.426 106.055L136.367 106.585L136.44 107.2L136.691 107.679L136.912 108.125L137.104 108.549L137.286 108.932L136.159 109.362L135.728 108.537L135.329 107.822L134.677 106.922L134.187 106.727L133.935 107.132L134.002 107.82L134.585 108.82L135.167 109.761L134.017 110.214Z"/>
<path d="M141.533 107.351L140.521 107.47L139.613 107.096L139.002 106.257L138.844 105.266L139.12 104.309L139.774 103.499L140.698 102.936L141.586 102.724L141.543 102.383L142.915 102.094L142.924 102.571L143.003 103.237L143.133 103.933L143.272 104.534L143.413 104.937L143.641 105.202L143.999 105.195L144.098 105.158L144.211 106.341L143.421 106.485L142.834 106.292L142.278 106.949L141.533 107.351ZM140.216 105.938L140.67 106.33L141.349 106.272L141.89 105.868L142.133 105.214L142.058 104.995L141.922 104.496L141.803 103.968L141.117 104.106L140.455 104.539L140.116 105.133L140.155 105.789L140.183 105.869L140.216 105.938Z"/>
<path d="M144.437 106.234L144.21 105.151L143.944 104.03L143.659 102.991L143.353 101.94L144.634 101.397L144.787 101.978L145.248 101.259L145.967 100.764L146.396 100.648L146.947 100.63L147.018 102L146.584 102L146.221 102.084L145.49 102.832L145.289 104.132L145.472 105.041L145.598 105.791L144.437 106.234Z"/>
<path d="M149.698 104.232L149.009 104.314L148.587 103.983L148.338 103.33L148.187 102.468L148.081 101.426L147.134 101.979L146.696 100.855L148.032 100.06L148.03 99.1208L148.037 98.0171L149.458 97.5971L149.379 98.5821L149.339 99.4708L150.168 99.173L150.899 98.9559L150.834 100.3L150.272 100.478L149.697 100.685L149.346 100.829L149.39 101.809L149.442 102.358L149.548 102.909L149.725 103.018L149.993 102.834L150.271 102.491L150.501 102.079L151.15 103.015L150.457 103.779L149.698 104.232Z"/>
<path d="M151.612 96.1766L152.935 95.7301L152.897 96.6323L152.875 97.7628L152.858 98.9421L152.847 100.029L152.862 100.878L152.867 101.068L152.879 101.223L151.713 101.642L151.691 101.361L151.671 100.998L151.609 99.5782L151.584 97.9049L151.612 96.1766ZM152.337 103.252L151.858 103.24L151.647 102.846L151.816 102.296L152.304 101.909L152.787 101.93L152.997 102.357L152.823 102.892L152.337 103.252Z"/>
</mask>
<path d="M131.648 111.132L130.531 111.391L129.418 111.369L128.383 111.139L128.381 109.984L128.953 110.244L129.669 110.367L130.401 110.356L131.061 110.202L131.692 109.811L131.743 109.373L131.445 109.151L131.053 109.079L130.707 109.056L130.329 109.066L129.727 109.087L129.092 109.119L128.607 109.129L127.435 108.915L126.588 108.252L126.275 107.63L126.268 106.933L126.667 106.264L127.577 105.713L128.817 105.396L129.91 105.382L130.824 105.546L130.792 106.875L129.569 106.658L128.465 106.856L127.863 107.204L127.695 107.508L127.74 107.701L127.987 107.888L128.563 107.959L128.997 107.953L129.594 107.922L130.251 107.908L130.857 107.918L131.577 108.023L132.301 108.295L132.864 108.846L133.057 109.364L133.02 109.975L132.604 110.592L131.648 111.132Z" fill="white"/>
<path d="M134.017 110.214L133.841 109.943L133.554 109.484L133.194 108.887L132.795 108.211L132.358 107.469L131.992 106.834L131.766 106.435L132.998 105.929L133.23 106.4L133.466 105.855L133.969 105.49L134.724 105.455L135.417 105.848L135.73 105.037L136.361 104.555L137.166 104.459L137.822 104.765L138.331 105.347L138.731 106.052L139.037 106.754L139.309 107.474L139.541 108.071L138.371 108.518L138.213 108.159L138.021 107.721L137.852 107.319L137.763 107.113L137.424 106.398L137.065 105.87L136.683 105.758L136.426 106.055L136.367 106.585L136.44 107.2L136.691 107.679L136.912 108.125L137.104 108.549L137.286 108.932L136.159 109.362L135.728 108.537L135.329 107.822L134.677 106.922L134.187 106.727L133.935 107.132L134.002 107.82L134.585 108.82L135.167 109.761L134.017 110.214Z" fill="white"/>
<path d="M141.533 107.351L140.521 107.47L139.613 107.096L139.002 106.257L138.844 105.266L139.12 104.309L139.774 103.499L140.698 102.936L141.586 102.724L141.543 102.383L142.915 102.094L142.924 102.571L143.003 103.237L143.133 103.933L143.272 104.534L143.413 104.937L143.641 105.202L143.999 105.195L144.098 105.158L144.211 106.341L143.421 106.485L142.834 106.292L142.278 106.949L141.533 107.351ZM140.216 105.938L140.67 106.33L141.349 106.272L141.89 105.868L142.133 105.214L142.058 104.995L141.922 104.496L141.803 103.968L141.117 104.106L140.455 104.539L140.116 105.133L140.155 105.789L140.183 105.869L140.216 105.938Z" fill="white"/>
<path d="M144.437 106.234L144.21 105.151L143.944 104.03L143.659 102.991L143.353 101.94L144.634 101.397L144.787 101.978L145.248 101.259L145.967 100.764L146.396 100.648L146.947 100.63L147.018 102L146.584 102L146.221 102.084L145.49 102.832L145.289 104.132L145.472 105.041L145.598 105.791L144.437 106.234Z" fill="white"/>
<path d="M149.698 104.232L149.009 104.314L148.587 103.983L148.338 103.33L148.187 102.468L148.081 101.426L147.134 101.979L146.696 100.855L148.032 100.06L148.03 99.1208L148.037 98.0171L149.458 97.5971L149.379 98.5821L149.339 99.4708L150.168 99.173L150.899 98.9559L150.834 100.3L150.272 100.478L149.697 100.685L149.346 100.829L149.39 101.809L149.442 102.358L149.548 102.909L149.725 103.018L149.993 102.834L150.271 102.491L150.501 102.079L151.15 103.015L150.457 103.779L149.698 104.232Z" fill="white"/>
<path d="M151.612 96.1766L152.935 95.7301L152.897 96.6323L152.875 97.7628L152.858 98.9421L152.847 100.029L152.862 100.878L152.867 101.068L152.879 101.223L151.713 101.642L151.691 101.361L151.671 100.998L151.609 99.5782L151.584 97.9049L151.612 96.1766ZM152.337 103.252L151.858 103.24L151.647 102.846L151.816 102.296L152.304 101.909L152.787 101.93L152.997 102.357L152.823 102.892L152.337 103.252Z" fill="white"/>
<path d="M131.648 111.132L130.531 111.391L129.418 111.369L128.383 111.139L128.381 109.984L128.953 110.244L129.669 110.367L130.401 110.356L131.061 110.202L131.692 109.811L131.743 109.373L131.445 109.151L131.053 109.079L130.707 109.056L130.329 109.066L129.727 109.087L129.092 109.119L128.607 109.129L127.435 108.915L126.588 108.252L126.275 107.63L126.268 106.933L126.667 106.264L127.577 105.713L128.817 105.396L129.91 105.382L130.824 105.546L130.792 106.875L129.569 106.658L128.465 106.856L127.863 107.204L127.695 107.508L127.74 107.701L127.987 107.888L128.563 107.959L128.997 107.953L129.594 107.922L130.251 107.908L130.857 107.918L131.577 108.023L132.301 108.295L132.864 108.846L133.057 109.364L133.02 109.975L132.604 110.592L131.648 111.132Z" stroke="#8F8F8F" stroke-width="4" stroke-linejoin="bevel" mask="url(#path-8-outside-2_24_227)"/>
<path d="M134.017 110.214L133.841 109.943L133.554 109.484L133.194 108.887L132.795 108.211L132.358 107.469L131.992 106.834L131.766 106.435L132.998 105.929L133.23 106.4L133.466 105.855L133.969 105.49L134.724 105.455L135.417 105.848L135.73 105.037L136.361 104.555L137.166 104.459L137.822 104.765L138.331 105.347L138.731 106.052L139.037 106.754L139.309 107.474L139.541 108.071L138.371 108.518L138.213 108.159L138.021 107.721L137.852 107.319L137.763 107.113L137.424 106.398L137.065 105.87L136.683 105.758L136.426 106.055L136.367 106.585L136.44 107.2L136.691 107.679L136.912 108.125L137.104 108.549L137.286 108.932L136.159 109.362L135.728 108.537L135.329 107.822L134.677 106.922L134.187 106.727L133.935 107.132L134.002 107.82L134.585 108.82L135.167 109.761L134.017 110.214Z" stroke="#8F8F8F" stroke-width="4" stroke-linejoin="bevel" mask="url(#path-8-outside-2_24_227)"/>
<path d="M141.533 107.351L140.521 107.47L139.613 107.096L139.002 106.257L138.844 105.266L139.12 104.309L139.774 103.499L140.698 102.936L141.586 102.724L141.543 102.383L142.915 102.094L142.924 102.571L143.003 103.237L143.133 103.933L143.272 104.534L143.413 104.937L143.641 105.202L143.999 105.195L144.098 105.158L144.211 106.341L143.421 106.485L142.834 106.292L142.278 106.949L141.533 107.351ZM140.216 105.938L140.67 106.33L141.349 106.272L141.89 105.868L142.133 105.214L142.058 104.995L141.922 104.496L141.803 103.968L141.117 104.106L140.455 104.539L140.116 105.133L140.155 105.789L140.183 105.869L140.216 105.938Z" stroke="#8F8F8F" stroke-width="4" stroke-linejoin="bevel" mask="url(#path-8-outside-2_24_227)"/>
<path d="M144.437 106.234L144.21 105.151L143.944 104.03L143.659 102.991L143.353 101.94L144.634 101.397L144.787 101.978L145.248 101.259L145.967 100.764L146.396 100.648L146.947 100.63L147.018 102L146.584 102L146.221 102.084L145.49 102.832L145.289 104.132L145.472 105.041L145.598 105.791L144.437 106.234Z" stroke="#8F8F8F" stroke-width="4" stroke-linejoin="bevel" mask="url(#path-8-outside-2_24_227)"/>
<path d="M149.698 104.232L149.009 104.314L148.587 103.983L148.338 103.33L148.187 102.468L148.081 101.426L147.134 101.979L146.696 100.855L148.032 100.06L148.03 99.1208L148.037 98.0171L149.458 97.5971L149.379 98.5821L149.339 99.4708L150.168 99.173L150.899 98.9559L150.834 100.3L150.272 100.478L149.697 100.685L149.346 100.829L149.39 101.809L149.442 102.358L149.548 102.909L149.725 103.018L149.993 102.834L150.271 102.491L150.501 102.079L151.15 103.015L150.457 103.779L149.698 104.232Z" stroke="#8F8F8F" stroke-width="4" stroke-linejoin="bevel" mask="url(#path-8-outside-2_24_227)"/>
<path d="M151.612 96.1766L152.935 95.7301L152.897 96.6323L152.875 97.7628L152.858 98.9421L152.847 100.029L152.862 100.878L152.867 101.068L152.879 101.223L151.713 101.642L151.691 101.361L151.671 100.998L151.609 99.5782L151.584 97.9049L151.612 96.1766ZM152.337 103.252L151.858 103.24L151.647 102.846L151.816 102.296L152.304 101.909L152.787 101.93L152.997 102.357L152.823 102.892L152.337 103.252Z" stroke="#8F8F8F" stroke-width="4" stroke-linejoin="bevel" mask="url(#path-8-outside-2_24_227)"/>
<path d="M73.2058 122.805L74.2078 121.146L75.5072 119.129L76.9807 117.307L78.9241 115.558L79.6783 115.495L79.7089 117.144L79.0923 118.999L78.0506 121.076L77.0962 122.814L75.8104 122.811L76.7068 121.232L75.3119 121.255L74.3998 122.807L73.2058 122.805ZM76.0305 120.031L77.401 119.989L78.0967 118.408L78.4369 117.02L77.1345 118.467L76.0305 120.031Z" fill="white"/>
<path d="M77.5783 122.815L81.6358 115.334L82.8688 115.233L82.6707 119.248L84.7369 115.078L86.095 114.966L82.3636 122.826L80.9127 122.822L81.2701 118.307L78.9077 122.818L77.5783 122.815Z" fill="white"/>
<path d="M83.1779 122.828L86.8486 114.904L89.0696 114.721L90.1138 114.743L90.688 115.026L90.8481 115.596L90.6288 116.488L89.1316 120.294L88.297 121.672L87.202 122.438L85.9017 122.764L84.5258 122.831L83.1779 122.828ZM85.3468 121.38L86.3939 121.312L87.0755 121.019L87.5661 120.279L89.0547 116.702L89.1492 116.1L88.7843 115.923L88.0116 115.944L87.7388 115.963L85.3468 121.38Z" fill="white"/>
<path d="M91.4113 123.072L94.2579 114.463L95.9132 114.311L94.9497 117.474L96.9747 117.348L97.8547 114.132L99.5961 113.973L97.3703 123.021L95.4168 123.037L96.577 118.8L94.5152 118.9L93.2492 123.057L91.4113 123.072Z" fill="white"/>
<path d="M98.247 123.014L98.7549 120.84L99.499 118.239L100.669 115.916L102.674 113.69L103.913 113.576L105.229 115.595L105.602 117.947L105.408 120.648L105.094 122.954L102.809 122.974L103.162 120.886L100.745 120.952L100.328 122.995L98.247 123.014ZM101.069 119.362L103.416 119.265L103.412 117.239L102.942 115.499L101.796 117.35L101.069 119.362Z" fill="white"/>
<path d="M109.683 122.914L107.562 122.706L106.525 122.052L106.195 120.998L106.285 119.625L108.568 119.539L108.54 119.844L108.493 120.136L108.469 120.397L108.611 120.953L109.638 121.078L110.012 121.069L110.814 120.981L111.16 120.769L111.254 120.229L111.263 120.046L111.296 119.83L111.307 119.6L111.351 119.176L111.346 118.839L111.286 118.302L110.802 118.154L110.105 118.141L110.021 118.145L108.034 118.045L107.055 117.531L106.732 116.67L106.804 115.481L107.115 114.435L107.742 113.727L108.791 113.263L110.386 112.995L112.016 112.978L113.076 113.287L113.668 113.951L113.859 115.037L111.506 115.208L111.477 114.576L111.144 114.379L110.286 114.407L109.414 114.518L109.061 114.763L108.952 115.323L108.932 115.549L108.882 115.876L108.86 116.119L108.947 116.472L109.261 116.554L110.134 116.543L112.259 116.651L113.345 117.246L113.751 118.251L113.802 119.593L113.796 119.964L113.55 121.299L112.845 122.217L111.59 122.731L109.683 122.914Z" fill="white"/>
<path d="M98.4567 156L95 127L99.3636 127.06L103.012 150.324L110.47 150.346L111.659 156H98.4567Z" fill="white"/>
<path d="M113.489 156L107.074 127.236L111.391 127.296L118.857 156H113.489Z" fill="white"/>
<path d="M121.645 156L113.616 127.255L117.867 127.313L120.909 136.949L122.61 134.251L123.033 130.905L122.703 127.381L126.878 127.436L127.526 131.748L127.284 136.145L125.366 140.086L130.263 144.335L134.425 149.705L138.1 156H132.925L130.076 151.061L126.76 146.583L122.922 143.326L126.925 156H121.645Z" fill="white"/>
<path d="M140.439 156L128.766 127.463L140.54 127.624L142.483 131.437L134.655 131.343L137.306 137.303L143.104 137.356L145.331 141.895L139.33 141.854L143.146 150.433L152.175 150.457L155 156H140.439Z" fill="white"/>
<path d="M29.6732 156L25.7025 155.455L23.6524 153.839L23.4036 151.022L24.6149 147.055L30.748 132.57L32.4184 129.559L34.3875 127.65L36.9749 126.627L40.4182 126.327L43.5686 126.718L45.3671 127.796L45.9983 129.708L45.4993 132.731L41.648 145.528L40.1054 149.855L37.963 153.188L34.6974 155.316L29.6732 156ZM31.928 150.042L33.7207 149.771L34.8239 148.947L36.4276 145.504L40.7878 132.678L41.176 131.043L40.7153 130.447L38.9752 130.31L37.0773 130.483L36.1134 131.141L35.4196 132.621L30.475 145.722L29.6561 148.359L30.0286 149.668L31.928 150.042Z" fill="white"/>
<path d="M49.8496 156L45.876 155.474L43.634 153.916L42.9687 151.135L43.6284 147.134L47.7057 132.714L48.9483 129.734L50.6486 127.866L53.0541 126.848L56.3978 126.548L59.5938 126.956L61.4888 128.084L62.3276 130.044L62.2295 133.074L57.4612 133.024L57.5963 131.946L57.5394 130.805L56.7888 130.486L55.5249 130.471L53.4009 130.795L52.3432 132.765L48.8274 147.156L48.6725 149.149L49.5795 149.934L51.5684 150.201L51.8058 150.203L53.9426 149.063L55.0927 145.448L55.6301 142.764L51.4888 142.737L52.6048 137.932L61.4277 138.009L60.5676 143.314L59.4886 148.517L57.7655 152.561L54.7302 155.097L49.8496 156Z" fill="white"/>
<path d="M69.6976 156L65.7269 155.479L63.3171 153.935L62.2907 151.178L62.3987 147.213L65.3558 126.708L69.726 126.771L67.6902 147.235L67.6646 147.485L67.5694 148.393L67.6632 149.262H67.6177L68.5773 149.937L70.2833 150.201L72.1287 149.896L73.1651 148.974L74.6592 126.838L78.9513 126.898L78.4622 145.71L78.1196 149.963L76.9851 153.241L74.4062 155.272L69.6976 156Z" fill="white"/>
<path d="M80.8691 156L81.0866 126.891L93.1837 127.061L93.5604 130.93L85.5066 130.832L85.6872 136.895L91.6667 136.948L92.025 141.575L85.8251 141.532L86.0867 150.297L95.447 150.321L96 156H80.8691Z" fill="white"/>
<path d="M0 156L17.0274 126L24.2026 126.101L28.4079 126.973L29.2979 128.017L29.4216 129.571L28.9026 131.499L27.9999 133.735L27.2962 135.327L25.6328 138.686L23.2529 141.659L19.4002 143.549L18.2145 156H12.0572L13.6779 144.053L12.1169 144.044L5.81181 156H0ZM14.7257 139.097L18.0439 139.032L20.03 138.595L21.2853 137.402L22.5207 135.111L23.1278 133.85L23.8472 132.087L23.9538 130.723L22.1994 130.068L19.504 130.037L14.7257 139.097Z" fill="white"/>
<path d="M29.6732 156L25.7025 155.455L23.6524 153.839L23.4036 151.022L24.6149 147.055L30.748 132.57L32.4184 129.559L34.3875 127.65L36.9749 126.627L40.4182 126.327L43.5686 126.718L45.3671 127.796L45.9983 129.708L45.4993 132.731L41.648 145.528L40.1054 149.855L37.963 153.188L34.6974 155.316L29.6732 156ZM31.928 150.042L33.7207 149.771L34.8239 148.947L36.4276 145.504L40.7878 132.678L41.176 131.043L40.7153 130.447L38.9752 130.31L37.0773 130.483L36.1134 131.141L35.4196 132.621L30.475 145.722L29.6561 148.359L30.0286 149.668L31.928 150.042Z" fill="white"/>
<path d="M49.8496 156L45.876 155.474L43.634 153.916L42.9687 151.135L43.6284 147.134L47.7057 132.714L48.9483 129.734L50.6486 127.866L53.0541 126.848L56.3978 126.548L59.5938 126.956L61.4888 128.084L62.3276 130.044L62.2295 133.074L57.4612 133.024L57.5963 131.946L57.5394 130.805L56.7888 130.486L55.5249 130.471L53.4009 130.795L52.3432 132.765L48.8274 147.156L48.6725 149.149L49.5795 149.934L51.5684 150.201L51.8058 150.203L53.9426 149.063L55.0927 145.448L55.6301 142.764L51.4888 142.737L52.6048 137.932L61.4277 138.009L60.5676 143.314L59.4886 148.517L57.7655 152.561L54.7302 155.097L49.8496 156Z" fill="white"/>
<path d="M69.6976 156L65.7269 155.479L63.3171 153.935L62.2907 151.178L62.3987 147.213L65.3558 126.708L69.726 126.771L67.6902 147.235L67.6646 147.485L67.5694 148.393L67.6632 149.262H67.6177L68.5773 149.937L70.2833 150.201L72.1287 149.896L73.1651 148.974L74.6592 126.838L78.9513 126.898L78.4622 145.71L78.1196 149.963L76.9851 153.241L74.4062 155.272L69.6976 156Z" fill="white"/>
<path d="M12.0391 188L4 159.152L19.1557 159.167L20.2764 164.347L10.7027 164.34L12.5179 171.416L19.075 171.419L20.1518 176.139L13.7297 176.137L15.6868 183.768H24.4765L25.392 188H12.0391Z" fill="white"/>
<path d="M27.97 188L22.0809 159.17L27.4964 159.175L31.9702 183.769H38.943L39.5779 188H27.97Z" fill="white"/>
<path d="M41.2387 188L37.142 159.184L52.2644 159.199L52.6782 164.374L43.1257 164.365L43.9745 171.433L50.5176 171.437L50.9491 176.152L44.5409 176.15L45.4564 183.771L54.2285 183.773L54.5652 188H41.2387Z" fill="white"/>
<path d="M57.0959 188L55.1212 159L60.4332 159.005L67.0465 173.826L73.1548 159.018L78.4598 159.023L77.6478 188H72.9338L73.025 172.803L68.9458 182.094H65.526L61.1154 172.796L61.8152 188H57.0959Z" fill="white"/>
<path d="M80.1241 188L81.2622 159.227L96.3408 159.243L95.8147 164.408L86.2902 164.401L85.8553 171.458L92.3791 171.462L91.9565 176.169L85.5659 176.166L85.0959 183.776L93.8452 183.778L93.4156 188H80.1241Z" fill="white"/>
<path d="M95.855 188L99.1064 159.245L104.35 159.25L109.166 176.437L112.023 159.257L117.405 159.262L111.988 188H107.284L102.598 172.594L100.52 188H95.855Z" fill="white"/>
<path d="M117.205 188L122.224 164.429L117.377 164.425L118.371 159.264L133.553 159.278L132.236 164.438L127.394 164.432L121.865 188H117.205Z" fill="white"/>
<path d="M134.232 188L130.303 187.491L128.523 185.951L128.259 183.376L129.006 179.817L133.839 179.819L133.616 180.614L133.364 181.364L133.178 182.025L133.174 183.418L135.123 183.783H135.851L137.438 183.622L138.229 183.133L138.756 181.82L138.895 181.364L139.104 180.825L139.283 180.24L139.66 179.145L139.888 178.254L140.156 176.795L139.284 176.318L137.864 176.187H137.687L133.55 175.62L131.684 173.947L131.408 171.21L132.24 167.288L133.63 163.667L135.647 161.223L138.562 159.81L142.615 159.337L146.404 159.842L148.442 161.332L149 163.86L148.255 167.534L143.113 167.531L143.621 165.404L143.064 164.638L141.106 164.493L139.02 164.634L138.015 165.4L137.345 167.291L137.136 168.039L136.791 169.108L136.573 169.89L136.524 171.033L137.159 171.35L139.062 171.487L143.441 172.211L145.117 174.131L145.04 176.969L144.033 180.45L143.735 181.366L142.292 184.512L140.396 186.547L137.823 187.638L134.232 188Z" fill="white"/>
<mask id="path-12-outside-3_24_227" maskUnits="userSpaceOnUse" x="132.428" y="176.43" width="33.9356" height="23.9262" fill="black">
<rect fill="white" x="132.428" y="176.43" width="33.9356" height="23.9262"/>
<path d="M141.589 194.07L140.084 194.346L138.594 194.243L137.244 193.861L137.513 192.352L138.205 192.724L139.117 192.932L140.069 192.972L140.938 192.822L141.779 192.378L141.93 192.114L141.883 191.851L141.537 191.562L141.062 191.448L140.637 191.394L140.166 191.377L139.411 191.355L138.606 191.342L137.99 191.317L136.544 190.968L136.02 190.608L135.637 190.125L135.414 189.397L135.594 188.639L136.245 187.976L137.44 187.504L138.926 187.307L140.166 187.393L141.174 187.635L140.997 188.974L139.6 188.643L138.262 188.753L137.47 189.07L137.2 189.386L137.213 189.602L137.475 189.831L138.17 189.959L138.704 189.989L139.436 190.004L140.231 190.042L140.956 190.104L141.804 190.278L142.645 190.641L143.285 191.313L143.494 191.937L143.42 192.677L142.865 193.426L141.589 194.07Z"/>
<path d="M147.116 192.237L146.277 192.3L145.605 191.944L145.039 191.274L144.533 190.424L144.039 189.441L143.057 189.911L142.166 188.852L143.53 188.221L143.234 187.424L142.912 186.526L144.381 186.286L144.612 187.062L144.863 187.792L145.707 187.591L146.453 187.455L146.884 188.578L146.303 188.703L145.708 188.855L145.348 188.965L145.761 189.856L146.034 190.373L146.381 190.907L146.642 191.02L146.896 190.852L147.092 190.534L147.199 190.157L148.375 191.072L147.865 191.801L147.116 192.237Z"/>
<path d="M150.587 191.114L149.749 191.211L149.05 190.958L148.468 190.456L147.987 189.806L147.589 189.119L147.191 188.334L146.781 187.446L148.116 187.002L148.278 187.446L148.544 188.116L148.915 188.886L149.555 189.812L149.831 189.995L150.084 190.005L150.415 189.71L150.442 189.132L150.162 188.238L149.566 186.995L149.403 186.689L149.998 186.514L150.709 186.309L151.162 187.479L151.559 188.363L151.789 188.828L152.069 189.239L152.322 189.302L152.456 189.231L152.595 189.082L153.13 190.199L152.713 190.381L152.121 190.44L151.629 190.235L151.275 190.74L150.587 191.114Z"/>
<path d="M154.213 191.418L153.612 190.421L152.965 189.235L152.123 187.577L151.407 186.04L152.572 185.767L152.703 186.089L153.088 185.73L153.599 185.514L154.335 185.446L155.095 185.63L155.802 186.109L156.399 186.935L156.699 187.852L156.614 188.588L156.236 189.132L155.648 189.471L155.01 189.572L154.34 189.462L154.781 190.221L155.242 190.961L154.213 191.418ZM153.971 186.608L153.496 186.919L153.334 187.497L153.713 188.278L154.294 188.509L154.979 188.462L155.329 188.28L155.503 188.008L155.504 187.648L155.333 187.196L155.01 186.791L154.629 186.607L154.256 186.57L153.971 186.608Z"/>
<path d="M155.288 184.37L155.224 184.26L155.154 184.124L154.951 183.701L154.781 183.317L155.866 183.077L156.065 183.557L156.318 184.104L155.288 184.37ZM157.507 188.743L157.074 187.953L156.624 187.092L156.069 185.984L155.595 184.995L156.616 184.715L156.939 185.413L157.368 186.265L157.816 187.128L158.221 187.895L158.506 188.414L157.507 188.743Z"/>
<path d="M160.235 187.906L159.628 187.983L158.97 187.814L158.341 187.373L157.805 186.619L157.502 185.689L157.595 184.957L157.967 184.442L158.512 184.161L158.864 184.1L159.195 184.092L158.8 183.22L158.428 182.346L159.376 182.191L159.821 183.248L160.334 184.382L160.879 185.494L161.37 186.451L161.816 187.258L160.956 187.628L160.844 187.417L160.595 187.706L160.235 187.906ZM158.688 186.294L159.044 186.744L159.436 186.901L159.777 186.876L160.081 186.687L160.259 186.304L160.192 186.171L159.718 185.204L159.362 185.1L159.042 185.122L158.792 185.24L158.595 185.465L158.532 185.809L158.688 186.294Z"/>
<path d="M160.045 182.036L160.889 181.884L161.119 182.427L161.437 183.138L161.788 183.915L162.131 184.665L162.43 185.279L162.5 185.419L162.563 185.534L161.763 185.752L161.65 185.539L161.514 185.266L161.016 184.245L160.501 183.118L160.045 182.036ZM162.849 187.069L162.441 187.02L162.122 186.686L162.07 186.264L162.337 186.005L162.738 186.061L163.066 186.409L163.12 186.818L162.849 187.069Z"/>
</mask>
<path d="M141.589 194.07L140.084 194.346L138.594 194.243L137.244 193.861L137.513 192.352L138.205 192.724L139.117 192.932L140.069 192.972L140.938 192.822L141.779 192.378L141.93 192.114L141.883 191.851L141.537 191.562L141.062 191.448L140.637 191.394L140.166 191.377L139.411 191.355L138.606 191.342L137.99 191.317L136.544 190.968L136.02 190.608L135.637 190.125L135.414 189.397L135.594 188.639L136.245 187.976L137.44 187.504L138.926 187.307L140.166 187.393L141.174 187.635L140.997 188.974L139.6 188.643L138.262 188.753L137.47 189.07L137.2 189.386L137.213 189.602L137.475 189.831L138.17 189.959L138.704 189.989L139.436 190.004L140.231 190.042L140.956 190.104L141.804 190.278L142.645 190.641L143.285 191.313L143.494 191.937L143.42 192.677L142.865 193.426L141.589 194.07Z" fill="white"/>
<path d="M147.116 192.237L146.277 192.3L145.605 191.944L145.039 191.274L144.533 190.424L144.039 189.441L143.057 189.911L142.166 188.852L143.53 188.221L143.234 187.424L142.912 186.526L144.381 186.286L144.612 187.062L144.863 187.792L145.707 187.591L146.453 187.455L146.884 188.578L146.303 188.703L145.708 188.855L145.348 188.965L145.761 189.856L146.034 190.373L146.381 190.907L146.642 191.02L146.896 190.852L147.092 190.534L147.199 190.157L148.375 191.072L147.865 191.801L147.116 192.237Z" fill="white"/>
<path d="M150.587 191.114L149.749 191.211L149.05 190.958L148.468 190.456L147.987 189.806L147.589 189.119L147.191 188.334L146.781 187.446L148.116 187.002L148.278 187.446L148.544 188.116L148.915 188.886L149.555 189.812L149.831 189.995L150.084 190.005L150.415 189.71L150.442 189.132L150.162 188.238L149.566 186.995L149.403 186.689L149.998 186.514L150.709 186.309L151.162 187.479L151.559 188.363L151.789 188.828L152.069 189.239L152.322 189.302L152.456 189.231L152.595 189.082L153.13 190.199L152.713 190.381L152.121 190.44L151.629 190.235L151.275 190.74L150.587 191.114Z" fill="white"/>
<path d="M154.213 191.418L153.612 190.421L152.965 189.235L152.123 187.577L151.407 186.04L152.572 185.767L152.703 186.089L153.088 185.73L153.599 185.514L154.335 185.446L155.095 185.63L155.802 186.109L156.399 186.935L156.699 187.852L156.614 188.588L156.236 189.132L155.648 189.471L155.01 189.572L154.34 189.462L154.781 190.221L155.242 190.961L154.213 191.418ZM153.971 186.608L153.496 186.919L153.334 187.497L153.713 188.278L154.294 188.509L154.979 188.462L155.329 188.28L155.503 188.008L155.504 187.648L155.333 187.196L155.01 186.791L154.629 186.607L154.256 186.57L153.971 186.608Z" fill="white"/>
<path d="M155.288 184.37L155.224 184.26L155.154 184.124L154.951 183.701L154.781 183.317L155.866 183.077L156.065 183.557L156.318 184.104L155.288 184.37ZM157.507 188.743L157.074 187.953L156.624 187.092L156.069 185.984L155.595 184.995L156.616 184.715L156.939 185.413L157.368 186.265L157.816 187.128L158.221 187.895L158.506 188.414L157.507 188.743Z" fill="white"/>
<path d="M160.235 187.906L159.628 187.983L158.97 187.814L158.341 187.373L157.805 186.619L157.502 185.689L157.595 184.957L157.967 184.442L158.512 184.161L158.864 184.1L159.195 184.092L158.8 183.22L158.428 182.346L159.376 182.191L159.821 183.248L160.334 184.382L160.879 185.494L161.37 186.451L161.816 187.258L160.956 187.628L160.844 187.417L160.595 187.706L160.235 187.906ZM158.688 186.294L159.044 186.744L159.436 186.901L159.777 186.876L160.081 186.687L160.259 186.304L160.192 186.171L159.718 185.204L159.362 185.1L159.042 185.122L158.792 185.24L158.595 185.465L158.532 185.809L158.688 186.294Z" fill="white"/>
<path d="M160.045 182.036L160.889 181.884L161.119 182.427L161.437 183.138L161.788 183.915L162.131 184.665L162.43 185.279L162.5 185.419L162.563 185.534L161.763 185.752L161.65 185.539L161.514 185.266L161.016 184.245L160.501 183.118L160.045 182.036ZM162.849 187.069L162.441 187.02L162.122 186.686L162.07 186.264L162.337 186.005L162.738 186.061L163.066 186.409L163.12 186.818L162.849 187.069Z" fill="white"/>
<path d="M141.589 194.07L140.084 194.346L138.594 194.243L137.244 193.861L137.513 192.352L138.205 192.724L139.117 192.932L140.069 192.972L140.938 192.822L141.779 192.378L141.93 192.114L141.883 191.851L141.537 191.562L141.062 191.448L140.637 191.394L140.166 191.377L139.411 191.355L138.606 191.342L137.99 191.317L136.544 190.968L136.02 190.608L135.637 190.125L135.414 189.397L135.594 188.639L136.245 187.976L137.44 187.504L138.926 187.307L140.166 187.393L141.174 187.635L140.997 188.974L139.6 188.643L138.262 188.753L137.47 189.07L137.2 189.386L137.213 189.602L137.475 189.831L138.17 189.959L138.704 189.989L139.436 190.004L140.231 190.042L140.956 190.104L141.804 190.278L142.645 190.641L143.285 191.313L143.494 191.937L143.42 192.677L142.865 193.426L141.589 194.07Z" stroke="#8F8F8F" stroke-width="4" stroke-linejoin="bevel" mask="url(#path-12-outside-3_24_227)"/>
<path d="M147.116 192.237L146.277 192.3L145.605 191.944L145.039 191.274L144.533 190.424L144.039 189.441L143.057 189.911L142.166 188.852L143.53 188.221L143.234 187.424L142.912 186.526L144.381 186.286L144.612 187.062L144.863 187.792L145.707 187.591L146.453 187.455L146.884 188.578L146.303 188.703L145.708 188.855L145.348 188.965L145.761 189.856L146.034 190.373L146.381 190.907L146.642 191.02L146.896 190.852L147.092 190.534L147.199 190.157L148.375 191.072L147.865 191.801L147.116 192.237Z" stroke="#8F8F8F" stroke-width="4" stroke-linejoin="bevel" mask="url(#path-12-outside-3_24_227)"/>
<path d="M150.587 191.114L149.749 191.211L149.05 190.958L148.468 190.456L147.987 189.806L147.589 189.119L147.191 188.334L146.781 187.446L148.116 187.002L148.278 187.446L148.544 188.116L148.915 188.886L149.555 189.812L149.831 189.995L150.084 190.005L150.415 189.71L150.442 189.132L150.162 188.238L149.566 186.995L149.403 186.689L149.998 186.514L150.709 186.309L151.162 187.479L151.559 188.363L151.789 188.828L152.069 189.239L152.322 189.302L152.456 189.231L152.595 189.082L153.13 190.199L152.713 190.381L152.121 190.44L151.629 190.235L151.275 190.74L150.587 191.114Z" stroke="#8F8F8F" stroke-width="4" stroke-linejoin="bevel" mask="url(#path-12-outside-3_24_227)"/>
<path d="M154.213 191.418L153.612 190.421L152.965 189.235L152.123 187.577L151.407 186.04L152.572 185.767L152.703 186.089L153.088 185.73L153.599 185.514L154.335 185.446L155.095 185.63L155.802 186.109L156.399 186.935L156.699 187.852L156.614 188.588L156.236 189.132L155.648 189.471L155.01 189.572L154.34 189.462L154.781 190.221L155.242 190.961L154.213 191.418ZM153.971 186.608L153.496 186.919L153.334 187.497L153.713 188.278L154.294 188.509L154.979 188.462L155.329 188.28L155.503 188.008L155.504 187.648L155.333 187.196L155.01 186.791L154.629 186.607L154.256 186.57L153.971 186.608Z" stroke="#8F8F8F" stroke-width="4" stroke-linejoin="bevel" mask="url(#path-12-outside-3_24_227)"/>
<path d="M155.288 184.37L155.224 184.26L155.154 184.124L154.951 183.701L154.781 183.317L155.866 183.077L156.065 183.557L156.318 184.104L155.288 184.37ZM157.507 188.743L157.074 187.953L156.624 187.092L156.069 185.984L155.595 184.995L156.616 184.715L156.939 185.413L157.368 186.265L157.816 187.128L158.221 187.895L158.506 188.414L157.507 188.743Z" stroke="#8F8F8F" stroke-width="4" stroke-linejoin="bevel" mask="url(#path-12-outside-3_24_227)"/>
<path d="M160.235 187.906L159.628 187.983L158.97 187.814L158.341 187.373L157.805 186.619L157.502 185.689L157.595 184.957L157.967 184.442L158.512 184.161L158.864 184.1L159.195 184.092L158.8 183.22L158.428 182.346L159.376 182.191L159.821 183.248L160.334 184.382L160.879 185.494L161.37 186.451L161.816 187.258L160.956 187.628L160.844 187.417L160.595 187.706L160.235 187.906ZM158.688 186.294L159.044 186.744L159.436 186.901L159.777 186.876L160.081 186.687L160.259 186.304L160.192 186.171L159.718 185.204L159.362 185.1L159.042 185.122L158.792 185.24L158.595 185.465L158.532 185.809L158.688 186.294Z" stroke="#8F8F8F" stroke-width="4" stroke-linejoin="bevel" mask="url(#path-12-outside-3_24_227)"/>
<path d="M160.045 182.036L160.889 181.884L161.119 182.427L161.437 183.138L161.788 183.915L162.131 184.665L162.43 185.279L162.5 185.419L162.563 185.534L161.763 185.752L161.65 185.539L161.514 185.266L161.016 184.245L160.501 183.118L160.045 182.036ZM162.849 187.069L162.441 187.02L162.122 186.686L162.07 186.264L162.337 186.005L162.738 186.061L163.066 186.409L163.12 186.818L162.849 187.069Z" stroke="#8F8F8F" stroke-width="4" stroke-linejoin="bevel" mask="url(#path-12-outside-3_24_227)"/>
</svg>
