<svg width="158" height="90" viewBox="0 0 158 90" fill="none" xmlns="http://www.w3.org/2000/svg">
<path d="M158 52V0L17 7L20.6238 42.8932L158 52Z" fill="white"/>
<path d="M91 81L0 74.5L14.5 40L84 42L91 81Z" fill="#5B40D5"/>
<path d="M63.5981 67.5C62.4434 69.5 59.5566 69.5 58.4019 67.5L52.3397 57C51.185 55 52.6284 52.5 54.9378 52.5L67.0622 52.5C69.3716 52.5 70.815 55 69.6603 57L63.5981 67.5Z" fill="#FFD016"/>
<path d="M81 64.5L72.5 87L124 89.5L137 58.5L81 64.5Z" fill="white"/>
<path d="M83.216 82.8729L82.1243 82.8454L81 82.8403L86.6101 68.1725L87.5631 68.1216L90.0026 68.0484L93.5469 68.2447L95.9995 69.2911L96.4923 70.2978L96.3291 71.7266L95.7841 72.8523L94.911 74.0705L93.6399 75.0814L94.2012 76.6637L93.7068 78.3904L92.2822 80.8431L90.3714 82.2048L87.9123 82.761L84.7221 82.881L83.216 82.8729ZM88.516 73.9882L89.0529 73.98L89.7497 73.9689L90.8626 73.7909L91.9608 73.1747L92.6608 72.1262L92.8142 71.2466L92.4601 70.7707L92.4356 70.7483L91.1334 70.5022L89.4853 70.5195L89.1998 70.5256L87.8633 73.976L88.2093 73.9709L88.516 73.9882ZM86.1402 80.5055L87.6724 80.414L88.9142 80.05L89.6012 79.3452L90.1119 78.366L90.3355 77.6348L90.5101 76.9494L89.8182 76.4552L88.2207 76.3576L87.7491 76.3627L87.302 76.3901L86.9267 76.3942L85.4042 80.4842L85.7143 80.4832L86.1402 80.5055Z" fill="#5B40D5"/>
<path d="M99.3838 82.9278L96.7631 82.702L95.2798 82.0594L94.8033 80.8889L95.1982 79.1185L99.733 67.8054L103.498 67.6935L98.9612 79.1042L98.9155 79.2202L98.7441 79.6381L98.7164 80.0317L98.6838 80.0327L99.2875 80.3327L100.466 80.4476L101.822 80.3062L102.7 79.8842L107.846 67.5644L111.717 67.4495L107.177 78.3141L106.167 80.3245L104.813 81.7817L102.701 82.64L99.3838 82.9278Z" fill="#5B40D5"/>
<path d="M110.779 82.9817L113.507 76.5732L111.655 74.337L111.531 71.9859L112.476 69.2402L113.257 67.3793L117.223 67.2613L116.939 67.9295L116.619 68.5976L116.399 69.1152L116.142 69.6328L115.558 72.0032L116.457 74.219L119.421 71.9035L120.959 69.3419L121.175 68.8447L121.353 68.3464L121.622 67.723L121.845 67.1241L126 67L125.163 68.9148L123.629 71.7479L121.356 74.1977L117.493 76.5355L114.705 83L110.779 82.9817Z" fill="#5B40D5"/>
</svg>
