<svg width="349" height="58" viewBox="0 0 349 58" fill="none" xmlns="http://www.w3.org/2000/svg">
<path d="M54 51.2336L57 0.733643L252.5 7.23364L262.5 42.2336L54 51.2336Z" fill="white"/>
<path d="M212.393 42.6031L305 49.2336L300 16.2336L235.859 2.60631L212.393 42.6031Z" fill="#5B40D5"/>
<path d="M275.598 36.2336C274.443 38.2336 271.557 38.2336 270.402 36.2336L264.34 25.7336C263.185 23.7336 264.628 21.2336 266.938 21.2336L279.062 21.2336C281.372 21.2336 282.815 23.7336 281.66 25.7336L275.598 36.2336Z" fill="#FFD016"/>
<path d="M293 32.7336L284.5 55.2336L336 57.7336L349 26.7336L293 32.7336Z" fill="white"/>
<path d="M295.216 51.1065L294.124 51.0791L293 51.074L298.61 36.4061L299.563 36.3553L302.003 36.2821L305.547 36.4783L307.999 37.5247L308.492 38.5315L308.329 39.9602L307.784 41.0859L306.911 42.3042L305.64 43.315L306.201 44.8973L305.707 46.624L304.282 49.0768L302.371 50.4384L299.912 50.9947L296.722 51.1147L295.216 51.1065ZM300.516 42.2218L301.053 42.2137L301.75 42.2025L302.863 42.0245L303.961 41.4083L304.661 40.3599L304.814 39.4802L304.46 39.0043L304.436 38.982L303.133 38.7359L301.485 38.7532L301.2 38.7593L299.863 42.2096L300.209 42.2045L300.516 42.2218ZM298.14 48.7392L299.672 48.6476L300.914 48.2836L301.601 47.5789L302.112 46.5996L302.335 45.8684L302.51 45.1831L301.818 44.6888L300.221 44.5912L299.749 44.5963L299.302 44.6238L298.927 44.6278L297.404 48.7178L297.714 48.7168L298.14 48.7392Z" fill="#5B40D5"/>
<path d="M311.384 51.1614L308.763 50.9357L307.28 50.293L306.803 49.1225L307.198 47.3521L311.733 36.039L315.498 35.9272L310.961 47.3379L310.915 47.4538L310.744 47.8718L310.716 48.2653L310.684 48.2663L311.288 48.5663L312.466 48.6812L313.822 48.5399L314.7 48.1178L319.846 35.798L323.717 35.6831L319.177 46.5477L318.167 48.5582L316.813 50.0154L314.701 50.8737L311.384 51.1614Z" fill="#5B40D5"/>
<path d="M322.779 51.2153L325.507 44.8068L323.655 42.5706L323.531 40.2195L324.476 37.4739L325.257 35.6129L329.223 35.495L328.939 36.1631L328.619 36.8312L328.399 37.3488L328.142 37.8664L327.558 40.2368L328.457 42.4527L331.421 40.1372L332.959 37.5756L333.175 37.0783L333.353 36.58L333.622 35.9567L333.845 35.3577L338 35.2336L337.163 37.1485L335.629 39.9816L333.356 42.4313L329.493 44.7692L326.705 51.2336L322.779 51.2153Z" fill="#5B40D5"/>
<path d="M59 45.7336V4.23364L12.5 8.23364L0 45.7336H59Z" fill="white"/>
</svg>
