<svg width="342" height="55" viewBox="0 0 342 55" fill="none" xmlns="http://www.w3.org/2000/svg">
<path d="M261 52V0L47 12.1165L52.5 42.8932L261 52Z" fill="white"/>
<path d="M296 46L205 39.5L219.5 5L289 7L296 46Z" fill="#5B40D5"/>
<path d="M268.598 32.5C267.443 34.5 264.557 34.5 263.402 32.5L257.34 22C256.185 20 257.628 17.5 259.938 17.5L272.062 17.5C274.372 17.5 275.815 20 274.66 22L268.598 32.5Z" fill="#FFD016"/>
<path d="M286 29.5L277.5 52L329 54.5L342 23.5L286 29.5Z" fill="white"/>
<path d="M288.216 47.8729L287.124 47.8454L286 47.8403L291.61 33.1725L292.563 33.1216L295.003 33.0484L298.547 33.2447L300.999 34.2911L301.492 35.2978L301.329 36.7266L300.784 37.8523L299.911 39.0705L298.64 40.0814L299.201 41.6637L298.707 43.3904L297.282 45.8431L295.371 47.2048L292.912 47.761L289.722 47.881L288.216 47.8729ZM293.516 38.9882L294.053 38.98L294.75 38.9689L295.863 38.7909L296.961 38.1747L297.661 37.1262L297.814 36.2466L297.46 35.7707L297.436 35.7483L296.133 35.5022L294.485 35.5195L294.2 35.5256L292.863 38.976L293.209 38.9709L293.516 38.9882ZM291.14 45.5055L292.672 45.414L293.914 45.05L294.601 44.3452L295.112 43.366L295.335 42.6348L295.51 41.9494L294.818 41.4552L293.221 41.3576L292.749 41.3627L292.302 41.3901L291.927 41.3942L290.404 45.4842L290.714 45.4832L291.14 45.5055Z" fill="#5B40D5"/>
<path d="M304.384 47.9278L301.763 47.702L300.28 47.0594L299.803 45.8889L300.198 44.1185L304.733 32.8054L308.498 32.6935L303.961 44.1042L303.915 44.2202L303.744 44.6381L303.716 45.0317L303.684 45.0327L304.288 45.3327L305.466 45.4476L306.822 45.3062L307.7 44.8842L312.846 32.5644L316.717 32.4495L312.177 43.3141L311.167 45.3245L309.813 46.7817L307.701 47.64L304.384 47.9278Z" fill="#5B40D5"/>
<path d="M315.779 47.9817L318.507 41.5732L316.655 39.337L316.531 36.9859L317.476 34.2402L318.257 32.3793L322.223 32.2613L321.939 32.9295L321.619 33.5976L321.399 34.1152L321.142 34.6328L320.558 37.0032L321.457 39.219L324.421 36.9035L325.959 34.3419L326.175 33.8447L326.353 33.3464L326.622 32.723L326.845 32.1241L331 32L330.163 33.9148L328.629 36.7479L326.356 39.1977L322.493 41.5355L319.705 48L315.779 47.9817Z" fill="#5B40D5"/>
<path d="M54 40V13.5L4 6L0 46L54 40Z" fill="white"/>
</svg>
