<svg width="345" height="61" viewBox="0 0 345 61" fill="none" xmlns="http://www.w3.org/2000/svg">
<path d="M46 45.7266L50.5 5.22659L264 14.2266L255.5 49.2266L46 45.7266Z" fill="white"/>
<path d="M208.393 45.0961L301 51.7266L296 18.7266L231.859 5.09928L208.393 45.0961Z" fill="#5B40D5"/>
<path d="M271.598 38.7266C270.443 40.7266 267.557 40.7266 266.402 38.7266L260.34 28.2266C259.185 26.2266 260.628 23.7266 262.938 23.7266L275.062 23.7266C277.372 23.7266 278.815 26.2266 277.66 28.2266L271.598 38.7266Z" fill="#FFD016"/>
<path d="M289 35.2266L280.5 57.7266L332 60.2266L345 29.2266L289 35.2266Z" fill="white"/>
<path d="M291.216 53.5995L290.124 53.572L289 53.5669L294.61 38.8991L295.563 38.8482L298.003 38.775L301.547 38.9713L303.999 40.0177L304.492 41.0244L304.329 42.4532L303.784 43.5789L302.911 44.7971L301.64 45.8079L302.201 47.3903L301.707 49.117L300.282 51.5697L298.371 52.9314L295.912 53.4876L292.722 53.6076L291.216 53.5995ZM296.516 44.7148L297.053 44.7066L297.75 44.6955L298.863 44.5175L299.961 43.9012L300.661 42.8528L300.814 41.9732L300.46 41.4973L300.436 41.4749L299.133 41.2288L297.485 41.2461L297.2 41.2522L295.863 44.7026L296.209 44.6975L296.516 44.7148ZM294.14 51.2321L295.672 51.1406L296.914 50.7765L297.601 50.0718L298.112 49.0926L298.335 48.3614L298.51 47.676L297.818 47.1818L296.221 47.0842L295.749 47.0892L295.302 47.1167L294.927 47.1208L293.404 51.2108L293.714 51.2097L294.14 51.2321Z" fill="#5B40D5"/>
<path d="M307.384 53.6544L304.763 53.4286L303.28 52.786L302.803 51.6155L303.198 49.8451L307.733 38.532L311.498 38.4201L306.961 49.8308L306.915 49.9468L306.744 50.3647L306.716 50.7582L306.684 50.7593L307.288 51.0592L308.466 51.1742L309.822 51.0328L310.7 50.6108L315.846 38.291L319.717 38.1761L315.177 49.0407L314.167 51.0511L312.813 52.5083L310.701 53.3666L307.384 53.6544Z" fill="#5B40D5"/>
<path d="M318.779 53.7083L321.507 47.2997L319.655 45.0636L319.531 42.7125L320.476 39.9668L321.257 38.1059L325.223 37.9879L324.939 38.656L324.619 39.3242L324.399 39.8418L324.142 40.3594L323.558 42.7298L324.457 44.9456L327.421 42.6301L328.959 40.0685L329.175 39.5713L329.353 39.073L329.622 38.4496L329.845 37.8507L334 37.7266L333.163 39.6414L331.629 42.4745L329.356 44.9243L325.493 47.2621L322.705 53.7266L318.779 53.7083Z" fill="#5B40D5"/>
<path d="M-3.42419e-05 13.2266L9.99996 50.7266L47.5 44.2266L54 9.22659L-3.42419e-05 13.2266Z" fill="white"/>
</svg>
