<svg width="254" height="193" viewBox="0 0 254 193" fill="none" xmlns="http://www.w3.org/2000/svg">
<path d="M202.5 66.5L21 75.5L3.5 0L227 16L202.5 66.5Z" fill="#FFD016"/>
<path d="M47.5 163.5L0 68.5L245.5 57.5L218.901 159.5L47.5 163.5Z" fill="#FFD016"/>
<path d="M37.3551 59L34.8509 41.7603L30.973 38.4524L28.0826 35.0784L24.507 27.8378L22.5549 19.1214L21.5 13L30.1958 13.4116L30.5145 15.5893L30.7544 17.7358L30.9976 19.3898L31.1619 21.0235L33.1338 28.4093L35.0185 31.8954L37.8432 35.1795L39.9596 31.98L40.9685 28.5857L40.9291 20.8728L40.7467 19.3273L40.4887 17.7634L40.257 15.7915L39.9546 13.8729L48.399 14.2717L48.9511 20.2039L49.1664 28.6298L47.5166 35.5599L42.7103 41.9018L44.761 59H37.3551Z" fill="white"/>
<path d="M66.5365 59L61.3046 58.4358L57.7685 56.7231L55.6783 53.5861L54.6612 48.8245L52.8471 27.0034L53.0624 21.3396L54.8337 17.5355L58.5884 15.4956L64.5351 15.0362L70.421 16.0469L74.2299 18.3919L76.3677 22.2364L77.1039 27.8267L77.2665 47.0658L76.9987 52.3309L75.6102 56.0541L72.4306 58.2962L66.5365 59ZM66.3689 52.4981L68.5921 52.1912L69.6421 51.2301L70.0792 46.9721L69.4565 27.5676L69.0835 24.5813L67.9299 23.4346L64.9015 23.0964L61.8123 23.3482L60.6818 24.5629L60.6292 27.2681L61.9422 47.1871L62.3957 50.4822L63.6478 52.0479L66.3689 52.4981Z" fill="white"/>
<path d="M91.1285 59L86.217 58.4652L83.0062 56.8444L81.2365 53.8084L80.6466 49.1057L80.7337 15.8779L88.4731 16.2436L87.8109 49.1847L87.8027 49.4916L87.7747 50.5924L87.9916 51.6252H87.9308L89.2536 52.4191L91.4916 52.7352L93.8644 52.3934L95.1855 51.3238L97.0916 16.6497L104.489 16.9989L102.253 47.3911L101.579 52.5092L100.025 56.1332L96.8336 58.2576L91.1285 59Z" fill="white"/>
<path d="M104.713 59L108.272 17.1036L119.664 17.6439L123.728 18.2357L126.602 19.5588L128.391 21.6005L129.186 24.4729L129.167 27.8396L128.726 31.5206L128.345 34.0107L127.359 38.9358L125.41 42.9567L123.719 44.3717L121.343 45.3402L124.585 59H117.931L114.467 45.9081L112.518 45.8787L111.116 59H104.713ZM113.219 39.3143L117.564 39.2849L119.975 38.7005L121.094 36.9951L121.726 33.5567L121.988 31.5738L122.185 28.6813L121.684 26.3308L118.773 25.1087L114.754 24.9525L113.219 39.3143Z" fill="white"/>
<path d="M151.087 59L146.91 58.502L144.432 56.9895L143.484 54.1631L143.888 49.7912L148.05 30.1735L149.69 25.1565L152.138 21.8321L155.716 20.0127L160.681 19.5827L165.294 20.4924L167.777 22.6591L168.493 26.1581L167.671 31.1622L161.304 30.949L161.633 29.2069L161.718 27.303L160.717 26.7333L158.958 26.6653L155.962 27.1505L155.101 28.2457L154.401 30.3904L149.884 49.8573L149.743 52.0718L150.766 52.9227L152.968 53.2167L153.231 53.2185L154.672 52.9227L155.638 52.0075L157.15 47.9332L157.977 44.6823L153.016 44.5978L154.537 38.2099L165.665 38.4855L163.764 45.4248L161.853 51.447L159.569 55.6737L158.072 57.1016L156.194 58.1455L151.087 59Z" fill="white"/>
<path d="M171.449 59L167.509 58.513L165.263 57.0392L164.571 54.2826L165.279 50.0227L173.707 20.2682L179.956 20.5622L171.181 50.0871L171.098 50.3645L170.795 51.3624L170.715 52.2997L170.664 52.2978L171.558 53.0182L173.332 53.3031L175.386 52.9907L176.748 52.0203L186.926 20.893L192.922 21.176L183.591 48.4496L181.755 53.0917L179.558 56.3886L176.374 58.3237L171.449 59Z" fill="white"/>
<path d="M187.692 59L192.998 44.6033L191.614 41.8798L190.957 39.1122L191.393 33.2021L193.545 26.1397L195.264 21.2183L201.138 21.4976L200.496 23.2471L199.807 24.9783L199.318 26.3125L198.779 27.6356L197.195 33.6339L197.112 36.4769L197.773 39.1636L200.55 36.5283L202.619 33.746L205.667 27.4629L206.152 26.2114L206.59 24.947L207.208 23.3556L207.755 21.81L213.5 22.082L211.553 26.8785L208.368 33.7479L204.436 39.4466L198.486 44.7025L192.959 59H187.692Z" fill="white"/>
<path d="M34.3551 62L31.8509 44.7603L27.973 41.4524L25.0826 38.0784L21.507 30.8378L19.5549 22.1214L18.5 16L27.1958 16.4116L27.5145 18.5893L27.7544 20.7358L27.9976 22.3898L28.1619 24.0235L30.1338 31.4093L32.0185 34.8954L34.8432 38.1795L36.9596 34.98L37.9685 31.5857L37.9291 23.8728L37.7467 22.3273L37.4887 20.7634L37.257 18.7915L36.9546 16.8729L45.399 17.2717L45.9511 23.2039L46.1664 31.6298L44.5166 38.5599L39.7103 44.9018L41.761 62H34.3551Z" fill="#051F39"/>
<path d="M63.5365 62L58.3046 61.4358L54.7685 59.7231L52.6783 56.5861L51.6612 51.8245L49.8471 30.0034L50.0624 24.3396L51.8337 20.5355L55.5884 18.4956L61.5351 18.0362L67.421 19.0469L71.2299 21.3919L73.3677 25.2364L74.1039 30.8267L74.2665 50.0658L73.9987 55.3309L72.6102 59.0541L69.4306 61.2962L63.5365 62ZM63.3689 55.4981L65.5921 55.1912L66.6421 54.2301L67.0792 49.9721L66.4565 30.5676L66.0835 27.5813L64.9299 26.4346L61.9015 26.0964L58.8123 26.3482L57.6818 27.5629L57.6292 30.2681L58.9422 50.1871L59.3957 53.4822L60.6478 55.0479L63.3689 55.4981Z" fill="#051F39"/>
<path d="M88.1285 62L83.217 61.4652L80.0062 59.8444L78.2365 56.8084L77.6466 52.1057L77.7337 18.8779L85.4731 19.2436L84.8109 52.1847L84.8027 52.4916L84.7747 53.5924L84.9916 54.6252H84.9308L86.2536 55.4191L88.4916 55.7352L90.8644 55.3934L92.1855 54.3238L94.0916 19.6497L101.489 19.9989L99.2529 50.3911L98.5791 55.5092L97.0247 59.1332L93.8336 61.2576L88.1285 62Z" fill="#051F39"/>
<path d="M101.713 62L105.272 20.1036L116.664 20.6439L120.728 21.2357L123.602 22.5588L125.391 24.6005L126.186 27.4729L126.167 30.8396L125.726 34.5206L125.345 37.0107L124.359 41.9358L122.41 45.9567L120.719 47.3717L118.343 48.3402L121.585 62H114.931L111.467 48.9081L109.518 48.8787L108.116 62H101.713ZM110.219 42.3143L114.564 42.2849L116.975 41.7005L118.094 39.9951L118.726 36.5567L118.988 34.5738L119.185 31.6813L118.684 29.3308L115.773 28.1087L111.754 27.9525L110.219 42.3143Z" fill="#051F39"/>
<path d="M148.087 62L143.91 61.502L141.432 59.9895L140.484 57.1631L140.888 52.7912L145.05 33.1735L146.69 28.1565L149.138 24.8321L152.716 23.0127L157.681 22.5827L162.294 23.4924L164.777 25.6591L165.493 29.1581L164.671 34.1622L158.304 33.949L158.633 32.2069L158.718 30.303L157.717 29.7333L155.958 29.6653L152.962 30.1505L152.101 31.2457L151.401 33.3904L146.884 52.8573L146.743 55.0718L147.766 55.9227L149.968 56.2167L150.231 56.2185L151.672 55.9227L152.638 55.0075L154.15 50.9332L154.977 47.6823L150.016 47.5978L151.537 41.2099L162.665 41.4855L160.764 48.4248L158.853 54.447L156.569 58.6737L155.072 60.1016L153.194 61.1455L148.087 62Z" fill="#051F39"/>
<path d="M168.449 62L164.509 61.513L162.263 60.0392L161.571 57.2826L162.279 53.0227L170.707 23.2682L176.956 23.5622L168.181 53.0871L168.098 53.3645L167.795 54.3624L167.715 55.2997L167.664 55.2978L168.558 56.0182L170.332 56.3031L172.386 55.9907L173.748 55.0203L183.926 23.893L189.922 24.176L180.591 51.4496L178.755 56.0917L176.558 59.3886L173.374 61.3237L168.449 62Z" fill="#051F39"/>
<path d="M184.692 62L189.998 47.6033L188.614 44.8798L187.957 42.1122L188.393 36.2021L190.545 29.1397L192.264 24.2183L198.138 24.4976L197.496 26.2471L196.807 27.9783L196.318 29.3125L195.779 30.6356L194.195 36.6339L194.112 39.4769L194.773 42.1636L197.55 39.5283L199.619 36.746L202.667 30.4629L203.152 29.2114L203.59 27.947L204.208 26.3556L204.755 24.81L210.5 25.082L208.553 29.8785L205.368 36.7479L201.436 42.4466L195.486 47.7025L189.959 62H184.692Z" fill="#051F39"/>
<path d="M59.429 148L26.5 74.3849L51.3067 73.326L57.9684 73.4413L63.8167 74.3922L68.7927 76.1641L72.8574 78.729L76.269 82.1051L79.1501 86.2997L81.4913 91.2315L83.2973 96.8082L92.3557 131.262L93.2233 136.751L92.608 140.796L90.8338 143.629L88.0069 145.604L84.2899 146.833L79.8857 147.579L69.8289 148H59.429ZM67.5914 138.717L75.6737 138.305L78.1316 137.618L79.5061 136.318L79.9246 134.191L79.2645 130.987L68.8127 98.5509L67.0609 94.3793L64.9331 91.6213L62.4752 90.0195L59.4632 89.2714L51.1652 89.1245L48.3301 89.2204L67.5914 138.717Z" fill="white"/>
<path d="M102.903 148L85.279 72.2002L102.306 71.4752L115.38 148H102.903Z" fill="white"/>
<path d="M121.734 148L110.965 70.7769L160.9 68.6431L160.247 85.4508L129.621 86.4819L131.204 107.015L151.042 106.571L150.985 119.329L132.175 119.62L133.619 138.37L158.197 138.241L157.818 148H121.734Z" fill="white"/>
<path d="M164.483 148L170.207 68.246L199.359 67L206.957 67.1105L213.113 68.1501L217.764 70.1029L220.879 72.9337L222.747 76.6608L223.5 81.2841L223.185 86.7078L221.867 92.8236L211.446 130.148L209.157 136.022L206.059 140.339L202.378 143.356L198.026 145.457L193.116 146.763L187.723 147.553L176.168 148H164.483ZM179.067 138.13L188.423 137.688L191.6 136.955L193.919 135.565L195.648 133.291L196.798 129.861L204.254 94.757L204.757 90.1932L203.98 87.1705L202.13 85.4156L199.129 84.6007L189.715 84.4574L186.412 84.5691L179.067 138.13Z" fill="white"/>
<path d="M55.429 152L22.5 78.3849L47.3067 77.326L53.9684 77.4413L59.8167 78.3922L64.7927 80.1641L68.8574 82.729L72.269 86.1051L75.1501 90.2997L77.4913 95.2315L79.2973 100.808L88.3557 135.262L89.2233 140.751L88.608 144.796L86.8338 147.629L84.0069 149.604L80.2899 150.833L75.8857 151.579L65.8289 152H55.429ZM63.5914 142.717L71.6737 142.305L74.1316 141.618L75.5061 140.318L75.9246 138.191L75.2645 134.987L64.8127 102.551L63.0609 98.3793L60.9331 95.6213L58.4752 94.0195L55.4632 93.2714L47.1652 93.1245L44.3301 93.2204L63.5914 142.717Z" fill="#051F39"/>
<path d="M98.9029 152L81.279 76.2002L98.3064 75.4752L111.38 152H98.9029Z" fill="#051F39"/>
<path d="M117.734 152L106.965 74.7769L156.9 72.6431L156.247 89.4508L125.621 90.4819L127.204 111.015L147.042 110.571L146.985 123.329L128.175 123.62L129.619 142.37L154.197 142.241L153.818 152H117.734Z" fill="#051F39"/>
<path d="M160.483 152L166.207 72.246L195.359 71L202.957 71.1105L209.113 72.1501L213.764 74.1029L216.879 76.9337L218.747 80.6608L219.5 85.2841L219.185 90.7078L217.867 96.8236L207.446 134.148L205.157 140.022L202.059 144.339L198.378 147.356L194.026 149.457L189.116 150.763L183.723 151.553L172.168 152H160.483ZM175.067 142.13L184.423 141.688L187.6 140.955L189.919 139.565L191.648 137.291L192.798 133.861L200.254 98.757L200.757 94.1932L199.98 91.1705L198.13 89.4156L195.129 88.6007L185.715 88.4574L182.412 88.5691L175.067 142.13Z" fill="#051F39"/>
<path d="M253.5 192.5H113.5L105.5 161L242 156L253.5 192.5Z" fill="#5B40D5"/>
<path d="M118.838 186.656L117.729 183.528L119.335 183.402L119.861 182.837L119.489 181.301L114.639 167.714L117.4 167.622L122.404 181.542L122.982 184.78L122.597 185.703L121.768 186.27L118.838 186.656Z" fill="white"/>
<path d="M125.918 186.656L119.018 167.54L126.998 167.277L128.135 170.368L122.936 170.512L124.547 174.948L128.233 174.874L129.39 178.028L125.686 178.082L127.646 183.475L132.949 183.446L134.13 186.656H125.918Z" fill="white"/>
<path d="M140.227 186.656L137.482 186.259L135.661 185.074L134.363 183.134L133.298 180.539L136.225 180.509L136.439 181.085L136.616 181.631L136.795 182.116L137.42 183.147L138.803 183.414L139.258 183.412L140.177 183.284L140.443 182.915L140.158 181.937L140.032 181.601L139.911 181.205L139.75 180.778L139.48 179.986L139.214 179.349L138.721 178.318L137.983 177.994L137.072 177.915L136.965 177.918L134.256 177.564L132.47 176.446L131.223 174.634L130.185 172.108L129.605 169.849L129.815 168.348L130.888 167.463L132.931 167.112L135.219 167.337L136.955 168.187L138.315 169.715L139.451 172.031L136.473 172.104L135.889 170.758L135.261 170.291L134.096 170.233L132.978 170.355L132.711 170.843L133.075 172.036L133.253 172.513L133.481 173.201L133.671 173.709L134.107 174.454L134.605 174.656L135.773 174.723L138.661 175.152L140.516 176.429L141.773 178.398L142.8 180.902L143.054 181.576L143.681 183.943L143.477 185.515L142.36 186.371L140.227 186.656Z" fill="white"/>
<path d="M151.247 186.656L148.845 186.368L147.041 185.508L145.641 183.934L144.476 181.565L138.929 166.914L141.929 166.815L147.626 181.538L147.684 181.693L147.897 182.249L148.208 182.773H148.18L148.942 183.172L150.027 183.322L151.039 183.129L151.409 182.566L145.368 166.701L148.404 166.601L153.778 180.484L154.664 183.141L154.796 185.085L153.779 186.248L151.247 186.656Z" fill="white"/>
<path d="M162.651 186.656L159.694 186.244L157.729 185.014L156.322 183.005L155.164 180.314L158.31 180.281L158.544 180.878L158.737 181.444L158.933 181.947L159.61 183.016L161.099 183.294L161.588 183.291L162.578 183.158L162.862 182.776L162.549 181.761L162.411 181.413L162.279 181.002L162.104 180.56L161.809 179.738L161.52 179.077L160.982 178.009L160.186 177.672L159.205 177.592L159.092 177.593L156.176 177.228L154.251 176.071L152.899 174.193L151.771 171.576L151.135 169.236L151.352 167.681L152.5 166.761L154.694 166.395L157.153 166.627L159.024 167.506L160.497 169.087L161.732 171.489L158.529 171.566L157.893 170.171L157.216 169.689L155.964 169.629L154.761 169.756L154.477 170.262L154.876 171.5L155.07 171.994L155.319 172.707L155.526 173.233L155.998 174.006L156.536 174.214L157.791 174.282L160.901 174.725L162.903 176.048L164.267 178.09L165.385 180.687L165.663 181.386L166.352 183.841L166.142 185.472L164.945 186.361L162.651 186.656Z" fill="white"/>
<path d="M182.843 186.656L180.185 186.353L178.184 185.45L176.625 183.794L175.319 181.305L171.18 171.098L170.492 168.7L170.687 167.081L171.902 166.107L174.254 165.718L176.857 165.946L178.86 166.828L180.442 168.475L181.791 171L178.408 171.082L177.749 169.706L177.042 169.177L175.636 169.086L174.326 169.219L174.043 169.709L174.515 171.016L178.999 181.99L180.064 182.799L181.61 183.052L182.9 182.815L182.736 181.439L182.476 180.884L182.097 180.037L185.525 180.002L186.541 182.826L186.76 184.938L185.672 186.227L182.843 186.656Z" fill="white"/>
<path d="M190.088 186.656L181.271 165.487L184.71 165.374L188.18 173.641L192.176 173.561L188.656 165.243L192.112 165.129L201.287 186.656H197.715L193.667 177.088L189.65 177.146L193.639 186.656H190.088Z" fill="white"/>
<path d="M203.482 186.656L194.238 165.06L199.882 164.873L203.876 165.481L205.365 166.361L206.607 167.691L207.589 169.321L208.464 171.163L209.024 172.441L210.029 175.042L210.223 177.255L208.679 178.638L215.287 186.656H211.228L204.997 179.055L203.91 179.068L207.184 186.656H203.482ZM202.392 175.545L204.723 175.439L205.863 175.08L205.964 174.164L205.29 172.386L204.853 171.382L204.131 169.949L203.212 168.828L201.385 168.342L199.31 168.399L202.392 175.545Z" fill="white"/>
<path d="M217.135 186.656L207.473 164.691L211.234 164.567L221.025 186.656H217.135Z" fill="white"/>
<path d="M229.008 186.656L225.384 186.201L222.96 184.842L221.206 182.621L219.745 179.649L223.589 179.609L223.885 180.269L224.131 180.893L224.379 181.451L225.225 182.633L227.051 182.937L227.65 182.934L228.859 182.786L229.2 182.363L228.799 181.24L228.626 180.857L228.455 180.402L228.235 179.912L227.859 179.005L227.493 178.274L226.818 177.093L225.839 176.722L224.638 176.636L224.498 176.637L220.93 176.239L218.558 174.963L216.878 172.894L215.457 170.008L214.643 167.427L214.881 165.711L216.265 164.692L218.935 164.279L221.942 164.525L224.244 165.49L226.071 167.232L227.623 169.882L223.708 169.977L222.905 168.438L222.07 167.907L220.54 167.847L219.075 167.99L218.736 168.55L219.245 169.914L219.489 170.46L219.806 171.247L220.066 171.827L220.657 172.678L221.317 172.907L222.852 172.981L226.66 173.462L229.134 174.922L230.839 177.178L232.255 180.05L232.607 180.822L233.494 183.538L233.265 185.345L231.814 186.329L229.008 186.656Z" fill="white"/>
<path d="M239.561 186.656L230.776 167.529L227.106 167.63L225.464 164.03L236.78 163.656L238.486 167.315L234.734 167.418L243.639 186.656H239.561Z" fill="white"/>
</svg>
