<svg width="40" height="26" viewBox="0 0 40 26" fill="none" xmlns="http://www.w3.org/2000/svg">
<path d="M0 0L36.5 5.5L40 26L2.33577 15.3636L0 0Z" fill="#FF8E80"/>
<path d="M6.97562 13.5752L5.5 4L11.0331 4.83481L11.2864 6.49545L7.62022 5.87203L7.97109 8.15518L10.5345 8.65984L10.7869 10.3106L8.21732 9.75554L8.63679 12.4858L12.3408 13.4052L12.5958 15.073L6.97562 13.5752Z" fill="#051F39"/>
<path d="M13.6159 15.3456L13.4348 14.1509L13.3152 12.7566L13.6062 11.5727L14.6624 10.549L13.2202 9.03407L12.5343 7.62712L12.2186 6.1707L12.0374 4.98684L14.2201 5.31609L14.2799 5.71011L14.3221 6.11672L14.3696 6.42798L14.3968 6.73653L14.8365 8.20286L16.1415 9.68537L17.1018 8.56629L17.1124 7.12336L17.0693 6.83639L16.9989 6.51164L16.9383 6.10593L16.8582 5.71371L19.3188 6.08524L19.5114 7.36894L19.6081 8.88834L19.259 10.1972L18.0736 11.2632L19.6705 12.9284L20.4453 14.4523L20.8137 16.022L21.0081 17.3165L18.5106 16.65L18.4684 16.2361L18.4077 15.8322L18.3813 15.5183L18.3383 15.2322L17.8819 13.729L16.5118 12.1259L15.5849 13.138L15.5734 14.49L15.6412 14.8049L15.6886 15.1153L15.7687 15.512L15.8329 15.9366L13.6159 15.3456Z" fill="#051F39"/>
<path d="M22.2709 17.653L20.5675 6.30833L23.2611 6.71584L25.0041 18.3816L22.2709 17.653Z" fill="#051F39"/>
<path d="M28.0538 19.1949L26.5527 9.08985L23.9075 8.64005L23.6234 6.73474L32.1949 8.02834L32.5 10.101L29.5373 9.59721L31.0754 20L28.0538 19.1949Z" fill="#051F39"/>
</svg>
