<svg width="140" height="34" viewBox="0 0 140 34" fill="none" xmlns="http://www.w3.org/2000/svg">
<path fill-rule="evenodd" clip-rule="evenodd" d="M20.6569 0L140 1.5L137.5 18L0 34L20.6569 0Z" fill="#FF8E80"/>
<path d="M11 27L25.9131 4H32.0613L32.6696 14.1675L45.6093 4H50.8183L38.565 24.5597L32.7686 25.0723L40.0161 13.1336L30.8225 20.5061L26.4746 20.8053L25.9587 13.6891L17.8893 26.3903L11 27Z" fill="#051F39"/>
<path d="M40.6583 24.3742L43.3116 19.8926L47.0174 14.2521L51.8148 9.032L58.6976 4.11614L61.7221 4.11488L62.8515 8.80603L61.657 13.6386L59.1287 18.7867L56.7958 22.9451L51.8838 23.3794L54.1216 19.4571L48.3773 19.8673L46.0327 23.8982L40.6583 24.3742ZM50.2725 16.6103L55.8866 16.2884L57.4523 12.154L57.7858 8.34272L53.5472 12.332L50.2725 16.6103Z" fill="#051F39"/>
<path d="M58.4983 22.7949L68.8889 4.16664L73.16 4.16285L63.1615 22.3808L58.4983 22.7949Z" fill="#051F39"/>
<path d="M65.4345 22.1801L75.2741 4.10731L79.1779 4.10478L79.5856 13.6928L84.6188 4.10226L88.2568 4.09973L79.5531 20.9303L75.6401 21.2762L75.1894 11.6086L69.7252 21.8001L65.4345 22.1801Z" fill="#051F39"/>
<path d="M90.3983 19.9696L98.3205 4H101.393L101.419 11.2311L108.328 4H111.057L104.133 18.7539L101.169 19.0165L105.189 10.5532L100.313 15.7253L98.1316 15.8756L98.073 10.836L93.7459 19.6729L90.3983 19.9696Z" fill="#051F39"/>
<path d="M105.649 18.6201L112.426 4.08711L119.594 4.08332L118.607 6.27109L114.003 6.33926L112.492 9.62029L115.823 9.50162L114.788 11.7815L111.419 11.9494L109.562 15.9791L114.386 15.6206L113.34 17.9384L105.649 18.6201Z" fill="#051F39"/>
<path d="M114.676 17.821L120.839 4.08206L123.146 4.08079L123.163 11.4836L126.399 4.07953L128.596 4.07827L122.972 17.0862L120.645 17.292L120.611 9.84121L117.169 17.6L114.676 17.821Z" fill="#051F39"/>
<path d="M127.595 16.6772L126.073 16.6318L125.258 16.1621L125.118 15.1762L125.594 13.6348L129.696 4.09721L131.776 4.09594L127.835 13.4858L127.793 13.5855L127.641 13.9428L127.574 14.2748L127.555 14.2761L127.868 14.5033L128.531 14.55L129.318 14.3783L129.858 13.9971L134.063 4.09342L136 4.09216L132.462 12.5819L131.691 14.2231L130.787 15.4552L129.521 16.2593L127.595 16.6772Z" fill="#051F39"/>
</svg>
