<svg width="164" height="70" viewBox="0 0 164 70" fill="none" xmlns="http://www.w3.org/2000/svg">
<path d="M0 19.5L121.5 0L163.5 69.5L0 49.5V19.5Z" fill="#051F39"/>
<path d="M6 43.3916V23.886L7.87108 23.6897L11.0118 34.557L10.7499 23.3865L12.8792 23.1616L13.5942 44.2054L11.2526 43.9545L7.96371 31.8607L8.07363 43.614L6 43.3916Z" fill="#FF8E80"/>
<path d="M14.9454 44.3496L14.0932 23.0336L20.7451 22.3328L20.9909 25.7051L16.52 26.0331L16.767 30.8766L19.967 30.7921L20.2103 34.4415L16.9486 34.4141L17.2722 40.74L22.1148 41.0767L22.4124 45.1498L14.9454 44.3496Z" fill="#FF8E80"/>
<path d="M27.3772 45.6816L25.5889 42.2522L24.3181 39.0277L22.8669 32.8945L22.1975 26.8507L21.8332 22.2185L24.4626 21.9414L24.5824 23.2548L24.6775 24.5545L24.7849 25.7324L24.8664 26.8917L25.7075 33.2784L26.5041 36.4929L27.7725 39.9L28.3974 36.6582L28.5653 33.3455L28.1565 26.7637L28.0182 25.469L27.8577 24.2252L27.7144 22.8944L27.5526 21.6159L30.471 21.3089L30.6266 22.585L30.7575 23.881L30.9045 25.0838L31.0243 26.3028L32.2173 33.2623L33.2276 36.7986L34.7183 40.3299L35.2889 36.9055L35.3692 33.3729L34.7566 26.3711L34.5652 25.0031L34.3527 23.6922L34.1576 22.2893L33.9402 20.9436L37.2032 20.5994L38.0072 25.7536L38.8038 32.7168L38.9075 36.2233L38.642 39.7397L37.9417 43.2164L36.6919 46.6806L34.3317 46.4271L32.5953 43.3816L31.154 40.3312L30.434 43.1605L29.4126 45.9003L27.3772 45.6816Z" fill="#FF8E80"/>
<path d="M53.9169 48.5258L47.8097 19.4824L54.327 18.7965L56.9452 18.7543L59.1053 19.2476L60.8282 20.2938L62.1756 21.9961L63.1451 24.1705L63.9454 26.6942L64.4481 28.4797L65.3027 32.1937L65.1113 35.4156L64.2282 36.5774L62.6548 37.3652L70.6406 50.3176L64.5247 49.6627L57.6122 37.7653L56.203 37.7231L58.8225 49.0514L53.9169 48.5258ZM55.0618 32.7914L58.0555 32.6808L59.6228 32.1987L59.9538 30.9201L59.4536 28.4636L59.1029 27.0992L58.4816 25.182L57.5578 23.7232L55.3953 23.1753L52.8807 23.3604L55.0618 32.7914Z" fill="#FF8E80"/>
<path d="M83.6344 51.7105L78.4744 50.612L74.9113 48.6538L72.4351 45.5785L70.6665 41.278L63.7972 17.8435L68.9251 17.3042L76.859 41.5837L76.9491 41.8657L77.2776 42.8908L77.8186 43.8811L77.7618 43.8774L79.2722 44.7174L81.5509 45.1622L83.7888 44.9634L84.7027 43.9619L75.1818 16.6469L81.0791 16.0281L90.4197 40.3337L92.1092 45.5847L92.1289 49.4515L89.5181 51.5241L83.6344 51.7105Z" fill="#FF8E80"/>
<path d="M99.2934 53.3879L84.1667 15.6528L90.6926 14.9657L111.914 35.6008L101.202 13.8586L109.356 13L133 57L121.965 55.8171L97.4211 30.2429L107.92 54.3124L99.2934 53.3879Z" fill="#FF8E80"/>
</svg>
