<svg width="102" height="45" viewBox="0 0 102 45" fill="none" xmlns="http://www.w3.org/2000/svg">
<path d="M0 45L95.5 28.5L101.5 0L6.5 23L0 45Z" fill="#5B40D5"/>
<path d="M10.7458 39.8888L9.10977 40L8.21859 39.5646L8 38.4934L8.3716 36.739L11.9565 25.4748L14.287 24.9344L10.7357 36.2622L10.6988 36.3766L10.5642 36.7994L10.5205 37.1808L10.5003 37.1871L10.8585 37.4001L11.5899 37.3651L12.4492 37.06L13.0242 36.5483L16.9673 24.3083L19.3448 23.7553L15.9147 34.5014L15.163 36.5419L14.2265 38.1057L12.8493 39.1959L10.7458 39.8888Z" fill="white"/>
<path d="M15.5548 38.9638L20.4983 23.4883L24.359 22.592L26.7921 22.5443L27.426 23.822L26.9753 26.0119L26.8038 26.5491L26.6088 27.0926L26.4675 27.5312L26.2876 28.0238L25.1627 30.4235L23.7099 31.8411L21.8956 32.6007L19.7047 33.1188L17.9829 38.4998L15.5548 38.9638ZM20.5118 30.5952L22.1193 30.2296L23.0037 29.9086L23.4762 29.4001L23.8293 28.4879L24.5288 26.3043L24.5523 25.2618L23.8175 25.1156L22.7734 25.3063L22.1579 25.443L20.5118 30.5952Z" fill="white"/>
<path d="M28.3239 36.5133L26.5163 36.6468L25.5242 36.2018L25.2653 35.083L25.6503 33.2427L28.1624 25.4048L28.983 23.4915L30.044 22.112L31.4985 21.1236L33.486 20.4434L35.3507 20.2431L36.3613 20.704L36.637 21.8419L36.2453 23.7235L33.5364 24.3274L33.7062 23.6663L33.7752 22.9797L33.3716 22.8876L32.6503 23.0497L31.4194 23.536L30.6998 24.8423L28.1675 32.7342L28.0178 33.6623L28.4248 33.9261L29.3714 33.853L29.4874 33.8308L30.5854 33.1029L31.369 31.2721L31.8163 29.88L29.6892 30.325L30.53 27.706L35.2935 26.6826L34.3502 29.6099L33.38 32.2861L32.245 34.3107L30.6426 35.6965L28.3239 36.5133Z" fill="white"/>
<path d="M33.7752 35.4676L39.0281 19.1561L43.3007 18.1613L45.912 18.0755L46.6703 19.5217L46.4635 20.739L46.0549 22.1438L45.7388 23.1228L44.999 25.1251L43.8875 26.9146L41.9774 28.2654L42.3002 33.8308L39.3576 34.3965L39.06 29.1299L38.263 29.2952L36.4386 34.9559L33.7752 35.4676ZM39.1206 26.6381L40.8844 26.2153L41.9185 25.7576L42.5104 24.9885L43.0199 23.6186L43.2687 22.8526L43.5495 21.772L43.5092 20.9742L42.4381 20.8375L40.8777 21.1903L39.1206 26.6381Z" fill="white"/>
<path d="M43.2452 33.6496L44.402 30.0739L46.0852 25.443L48.446 20.8947L52.1721 16.0985L54.0318 15.6663L55.0491 19.4517L54.5984 23.6885L53.3256 28.2813L52.1368 31.9428L49.2463 32.4958L50.3326 29.1522L47.0957 29.7974L46.0213 33.1156L43.2452 33.6496ZM47.9768 27.0735L51.1968 26.4092L51.8963 22.8494L51.8728 19.671L49.6045 23.3675L47.9768 27.0735Z" fill="white"/>
<path d="M53.181 31.7425L58.7617 14.5665L63.4682 13.47L65.6524 13.2126L66.8513 13.6861L67.2027 14.9098L66.8008 16.9122L64.1559 25.0203L62.725 27.8331L60.7761 29.5781L58.3885 30.6174L55.7856 31.2404L53.181 31.7425ZM57.0483 28.3544L59.0627 27.8554L60.3238 27.0767L61.1578 25.5288L63.6548 17.8625L63.7826 16.534L63.0142 16.2606L61.4134 16.5467L60.8484 16.6738L57.0483 28.3544Z" fill="white"/>
<path d="M64.1256 29.6416L69.8914 11.9762L78.9679 9.86571L78.0078 12.793L72.1193 14.1248L70.764 18.2725L74.887 17.3794L73.9252 20.3162L69.8123 21.1808L68.1914 26.1422L74.0126 24.9853L73.0492 27.9285L64.1256 29.6416Z" fill="white"/>
<path d="M79.7683 26.6381L77.0157 26.8256L75.8488 26.031L75.7916 24.3719L76.4608 21.9944L79.733 21.3238L79.5581 21.8578L79.3614 22.3727L79.2134 22.8208L79.1663 23.7235L80.5132 23.6949L81.021 23.5932L82.1392 23.2658L82.7024 22.8335L83.0925 21.9086L83.1951 21.5971L83.3465 21.2189L83.4776 20.8216L83.75 20.0779L83.9165 19.4867L84.1132 18.5491L83.5196 18.3806L82.5528 18.5046L82.4334 18.53L79.659 18.7716L78.4719 18.0342L78.3844 16.4672L79.0453 14.1152L80.0306 11.9221L81.359 10.3202L83.2187 9.15058L85.7947 8.30195L88.2345 8L89.583 8.47994L90 9.75765L89.5712 11.9062L86.131 12.6691L86.4605 11.4104L86.0923 11.0703L84.816 11.2801L83.4608 11.6647L82.8017 12.2336L82.3426 13.381L82.1946 13.8323L81.9508 14.4871L81.7928 14.967L81.7406 15.6313L82.156 15.7267L83.4188 15.5296L86.3647 15.3166L87.5249 16.2098L87.4963 17.9452L86.8153 20.2749L86.6068 20.9043L85.5828 23.1673L84.2107 24.7978L82.3443 25.8975L79.7683 26.6381Z" fill="white"/>
</svg>
