<svg width="118" height="34" viewBox="0 0 118 34" fill="none" xmlns="http://www.w3.org/2000/svg">
<path fill-rule="evenodd" clip-rule="evenodd" d="M18.6284 0L117.5 17L116.5 33.7482L0 29.6143L18.6284 0Z" fill="#5B40D5"/>
<path d="M19.7459 26.4928L15.4169 26.0325L13.051 25.0226L12.63 23.3095L13.968 20.8375L25.1028 6.5321L30.6431 7.28235L20.3215 21.2289L20.2061 21.3816L19.7914 21.9333L19.6144 22.4684L19.5608 22.466L20.444 22.9305L22.2957 23.1875L24.4594 23.1133L25.9267 22.6317L36.5694 8.08598L41.464 8.74998L32.8433 21.039L30.8747 23.4876L28.507 25.2684L25.0911 26.2783L19.7459 26.4928Z" fill="white"/>
<path d="M31.3914 26.9137L43.7303 9.05637L50.8263 10.0185L54.8942 11.1755L55.7655 12.9417L54.7874 15.2533L54.4447 15.7988L54.063 16.3436L53.7803 16.795L53.427 17.2937L51.2517 19.6581L48.5525 20.788L45.1649 21.0158L40.9068 20.7998L36.6844 27.1052L31.3914 26.9137ZM42.8147 17.9506L45.8853 18.1883L47.536 18.1666L48.4434 17.751L49.1814 16.8045L50.6671 14.5087L50.8345 13.2835L49.5784 12.7558L47.7024 12.4766L46.5695 12.3419L42.8147 17.9506Z" fill="white"/>
<path d="M55.7366 27.7939L52.7819 27.4372L51.1674 26.6183L50.8619 25.2116L51.7384 23.1639L56.7527 15.0743L58.2444 13.2715L60.011 12.2086L62.2591 11.7825L65.141 11.9337L67.6829 12.5222L68.9612 13.4194L69.207 14.7024L68.5126 16.4973L64.8085 16.0907L65.1113 15.4528L65.2758 14.7518L64.7278 14.4879L63.6996 14.3642L61.8852 14.3753L60.6892 15.5094L55.9209 23.4217L55.5778 24.4367L56.194 24.868L57.6826 25.0779L57.8632 25.0872L59.6147 24.609L60.9767 22.8339L61.7806 21.4577L58.5649 21.2144L60.124 18.604L66.9594 19.2322L65.3845 22.0051L63.7595 24.5619L61.928 26.4282L59.4131 27.5107L55.7366 27.7939Z" fill="white"/>
<path d="M63.9809 28.0924L72.4703 12.9286L77.5553 13.6181L80.4072 14.4986L80.9978 15.1919L81.0834 16.1096L80.7624 17.1699L80.2119 18.3481L79.7915 19.1638L78.819 20.824L77.4371 22.2023L75.1412 22.961L75.0094 28.4904L71.4306 28.3612L71.5636 22.9665L70.5541 22.8953L67.649 28.2247L63.9809 28.0924ZM71.8751 20.473L74.0448 20.6139L75.3011 20.4901L76.051 19.9284L76.7555 18.7666L77.1034 18.1097L77.5138 17.1651L77.5397 16.3883L76.3418 15.8779L74.5 15.6572L71.8751 20.473Z" fill="white"/>
<path d="M76.114 28.5313L77.7309 25.3676L79.9623 21.4477L82.7984 17.9574L86.8172 14.8748L88.5677 15.1124L89.1966 18.6867L88.4706 22.2131L86.95 25.898L85.5418 28.8722L82.6546 28.767L84.0105 25.9726L80.6617 25.7854L79.2356 28.6439L76.114 28.5313ZM81.8075 23.4888L85.0751 23.7239L86.0267 20.7448L86.2539 17.9285L83.7582 20.5552L81.8075 23.4888Z" fill="white"/>
<path d="M86.5455 28.9084L92.7581 15.6812L96.598 16.2024L98.2611 16.6245L99.1082 17.3263L99.2839 18.3681L98.8622 19.8144L96.3462 25.569L95.0409 27.5319L93.3554 28.5721L91.2884 28.9738L88.9692 28.9956L86.5455 28.9084ZM90.2982 26.7916L92.057 26.8001L93.1607 26.4219L93.9493 25.3324L96.4449 19.7485L96.6325 18.7264L96.0583 18.2981L94.7805 18.0841L94.3187 18.0294L90.2982 26.7916Z" fill="white"/>
<path d="M96.0101 29.2499L101.369 16.8492L107.33 17.6586L106.583 19.4974L102.748 19.0385L101.575 21.8129L104.363 22.082L103.564 24.0258L100.736 23.7981L99.2716 27.2624L103.341 27.4761L102.524 29.4855L96.0101 29.2499Z" fill="white"/>
<path d="M106.857 29.6428L105.156 29.3337L104.465 28.5643L104.526 27.348L105.091 25.7524L107.138 25.8899L107.003 26.2343L106.855 26.5602L106.741 26.8519L106.66 27.482L107.469 27.6936L107.774 27.7096L108.446 27.6707L108.795 27.4687L109.068 26.8979L109.144 26.7013L109.251 26.4703L109.347 26.221L109.541 25.7603L109.668 25.3881L109.829 24.7828L109.503 24.5574L108.947 24.4583L108.877 24.452L107.238 24.0794L106.564 23.3171L106.6 22.187L107.135 20.669L107.845 19.3549L108.711 18.5532L109.837 18.1865L111.304 18.2154L112.619 18.569L113.294 19.183L113.442 20.1046L113.113 21.4182L111.255 21.2135L111.5 20.4404L111.319 20.1353L110.61 19.9967L109.836 19.9583L109.433 20.2L109.107 20.8873L108.998 21.1655L108.823 21.566L108.705 21.8628L108.638 22.3124L108.871 22.4631L109.603 22.588L111.242 23.0321L111.817 23.8521L111.711 25.0011L111.222 26.4338L111.077 26.8209L110.397 28.1733L109.545 29.063L108.419 29.5276L106.857 29.6428Z" fill="white"/>
</svg>
