<svg width="233" height="72" viewBox="0 0 233 72" fill="none" xmlns="http://www.w3.org/2000/svg">
<path d="M232.5 71.5H23L0 23.5L194.5 0L232.5 71.5Z" fill="#5B40D5"/>
<path d="M36.9991 63.0198L33.6578 62.5297L30.9948 61.1051L28.6791 58.5293L26.4627 54.6542L15 30.8566L18.8242 30.4349L30.6309 54.563L30.7533 54.8138L31.1999 55.7256L31.7656 56.5917H31.7292L32.8705 57.2528L34.379 57.4921L35.7023 57.1616L36.0463 56.2156L23.2935 29.9562L27.3162 29.5117L38.7094 52.6825L40.7075 57.1388L41.4485 60.4212L40.3667 62.3588L36.9991 63.0198Z" fill="white"/>
<path d="M45.9608 63.0768L29.2878 29.2952L35.9934 28.5658L41.2335 29.2724L44.9551 32.4181L47.9457 37.3189L48.5477 38.5042L49.1068 39.6895L49.5964 40.6697L50.1026 41.7524L51.9915 46.961L51.3001 49.7192L48.5808 50.7563L44.6044 51.0527L50.5955 63.111L45.9608 63.0768ZM41.8322 45.4794L44.7467 45.2742L46.1394 44.8639L46.275 43.8724L45.405 41.8778L43 37.091L41.1772 34.6975L39.2916 34.1049L37.3497 34.1618L36.258 34.2644L41.8322 45.4794Z" fill="white"/>
<path d="M71.1919 63.225L67.0666 62.6779L63.8181 61.0937L61.0425 58.2216L58.4291 53.9248L49.5236 36.3501L47.853 32.2015L47.7141 29.3864L49.1895 27.6084L52.4646 26.708L56.3913 26.8676L59.6333 28.2922L62.475 31.0618L65.1942 35.3928L59.9244 35.8145L59.0577 34.31L57.913 32.7258L56.7916 32.3611L55.422 32.4864L53.4934 33.1703L54.284 35.974L63.3946 53.8108L64.8436 56.0219L66.3355 56.8539L68.4792 57.116H68.7141L69.9414 55.8167L68.2311 51.6681L66.5803 48.4655L62.3559 48.625L59.3124 42.6756L68.6975 42.14L72.2042 48.8986L75.1715 55.0873L76.4419 59.612L75.2576 62.3132L71.1919 63.225Z" fill="white"/>
<path d="M82.6479 63.2934L62.9679 25.5683L71.3275 24.6451L77.6163 25.3289L80.1734 26.7878L82.4825 29.1014L84.4707 31.9964L86.353 35.3016L87.587 37.6038L89.8828 42.3109L90.7793 46.3342L88.672 48.91L101.468 63.4073L94.845 63.3731L82.9887 49.7876L81.3081 49.8331L88.4041 63.3276L82.6479 63.2934ZM78.0331 43.6102L81.6026 43.3025L83.2864 42.5959L83.2004 40.9318L81.672 37.7634L80.7226 35.974L79.2141 33.4324L77.4939 31.4721L74.5562 30.754L71.4201 31.039L78.0331 43.6102Z" fill="white"/>
<path d="M103.625 63.4187L98.9107 54.6542L93.4027 43.576L89.9126 33.1361L89.4627 22.6734L93.406 22.2403L104.356 32.0533L112.606 42.7554L119.543 54.2781L124.674 63.5441L117.681 63.5099L113.083 55.1215L105.59 55.2469L110.049 63.4643L103.625 63.4187ZM101.974 48.5794L109.295 48.3173L103.287 39.4388L96.3006 31.3923L98.2524 39.7921L101.974 48.5794Z" fill="white"/>
<path d="M127.238 63.5669L103.655 21.1119L114.201 19.9608L119.792 20.052L124.347 21.6818L128.27 24.987L131.879 30.0816L143.752 50.7791L146.382 57.8569L144.742 61.6977L140.021 63.2934L133.722 63.6011L127.238 63.5669ZM130.517 56.3524L135.293 56.0105L137.182 54.5174L135.909 50.6993L124.913 31.3353L122.17 27.9275L119.325 26.9245L115.451 27.0727L114.151 27.1867L130.517 56.3524Z" fill="white"/>
<path d="M155.367 63.7265L129.17 18.331L151.55 15.8806L156.035 23.4028L141.06 24.7591L147.242 35.3586L157.951 34.6747L162.533 42.4135L151.646 42.9036L159.284 55.9877L175.332 55.7939L180.152 63.8746L155.367 63.7265Z" fill="white"/>
<path d="M200.03 64L190.781 62.9287L184.472 59.8742L179.665 54.9619L175.408 48.4199L184.707 48.1577L185.6 49.628L186.361 51.0185L187.115 52.2608L189.504 54.9049L194.158 55.5546L195.673 55.5432L198.717 55.1785L199.491 54.1983L198.191 51.6453L197.652 50.7677L197.106 49.7306L196.421 48.6136L195.243 46.5507L194.132 44.8981L192.13 42.2425L189.57 41.4675L186.553 41.3535L186.206 41.3763L177.376 40.7495L171.379 38.0939L166.886 33.6604L162.814 27.4146L160.247 21.7958L160.336 17.9435L163.284 15.4247L169.48 14L176.814 14.0114L182.745 15.8122L187.77 19.5391L192.382 25.4771L182.56 26.2521L180.191 22.8329L178.005 21.7502L174.27 21.8413L170.79 22.3884L170.131 23.7105L171.696 26.708L172.424 27.9047L173.39 29.6371L174.164 30.9136L175.805 32.7714L177.459 33.2159H181.22L190.83 33.8997L197.509 37.034L202.485 42.14L206.891 48.739L208.006 50.5284L211 56.8311L210.815 61.0253L207.219 63.2934L200.03 64Z" fill="white"/>
</svg>
